<?xml version="1.0" encoding="UTF-8"?>
<svg id="Layer_1" xmlns="http://www.w3.org/2000/svg" version="1.1" viewBox="0 0 439.84 109.5">
  <!-- Generator: Adobe Illustrator 30.2.1, SVG Export Plug-In . SVG Version: 2.1.1 Build 1)  -->
  <defs>
    <style>
      .st0 {
        fill: #302147;
      }

      .st1 {
        fill: #f15d22;
      }
    </style>
  </defs>
  <path class="st0" d="M54.55.22c-7.3,0-14.37,1.43-21.2,4.3-6.53,2.73-12.32,6.63-17.35,11.7-5.1,5.03-9,10.82-11.7,17.35C1.43,40.31,0,47.37,0,54.78c0,7.4,1.43,14.47,4.3,21.2,2.73,6.5,6.63,12.27,11.7,17.3,5.03,5.07,10.82,8.97,17.35,11.7,6.83,2.87,13.9,4.3,21.2,4.3s14.37-1.43,21.2-4.3c6.43-2.73,12.2-6.63,17.3-11.7,4.93-4.93,8.83-10.7,11.7-17.3,2.87-6.83,4.3-13.9,4.3-21.2s-1.43-14.37-4.3-21.2c-2.8-6.57-6.7-12.35-11.7-17.35-5.1-5.07-10.87-8.97-17.3-11.7C68.92,1.66,61.85.22,54.55.22M34.75,7.87c6.3-2.7,12.9-4.05,19.8-4.05s13.45,1.35,19.75,4.05c6.1,2.57,11.5,6.2,16.2,10.9,4.73,4.77,8.37,10.17,10.9,16.2,2.7,6.3,4.05,12.9,4.05,19.8,0,6.87-1.35,13.45-4.05,19.75-2.53,6.03-6.17,11.43-10.9,16.2-4.7,4.7-10.1,8.33-16.2,10.9-6.3,2.7-12.88,4.05-19.75,4.05s-13.5-1.35-19.8-4.05c-6.17-2.57-11.57-6.2-16.2-10.9-4.7-4.7-8.35-10.1-10.95-16.2-2.67-6.27-4-12.85-4-19.75s1.33-13.53,4-19.8c2.6-6.1,6.25-11.5,10.95-16.2,4.63-4.7,10.03-8.33,16.2-10.9M63.4,23.43c-2.87-1.23-5.9-1.85-9.1-1.85s-6.33.62-9.2,1.85c-2.8,1.2-5.28,2.88-7.45,5.05-2.27,2.27-3.95,4.77-5.05,7.5-1.23,2.8-1.85,5.85-1.85,9.15,0,5.27,3.6,12.5,10.8,21.7,1.4,1.8,2.8,3.5,4.2,5.1,1.97,2.3,4.05,4.55,6.25,6.75l1.05,1.05c.3.33.72.5,1.25.5.43,0,.83-.17,1.2-.5,2.7-2.7,5.1-5.28,7.2-7.75,1.33-1.53,2.77-3.25,4.3-5.15,7.23-9.3,10.85-16.53,10.85-21.7,0-3.1-.63-6.15-1.9-9.15-1.2-2.73-2.88-5.23-5.05-7.5-2.23-2.17-4.73-3.85-7.5-5.05M41.25,44.03c0-3.63,1.27-6.72,3.8-9.25,2.6-2.53,5.68-3.8,9.25-3.8s6.63,1.27,9.2,3.8c2.53,2.6,3.8,5.68,3.8,9.25s-1.27,6.63-3.8,9.2c-2.53,2.53-5.6,3.8-9.2,3.8s-6.75-1.27-9.25-3.8c-2.53-2.53-3.8-5.6-3.8-9.2Z"/>
  <path class="st1" d="M10.9,36.37c-2.47,5.83-3.7,11.97-3.7,18.4,0,6.43,1.23,12.57,3.7,18.4,2.4,5.63,5.8,10.65,10.2,15.05,4.43,4.43,9.45,7.82,15.05,10.15,2.27,1,4.7,1.78,7.3,2.35l6.45,1.15c1.17.13,2.65.2,4.45.2h.2l6.55-.45c4.13-.57,8.08-1.65,11.85-3.25,5.53-2.33,10.55-5.72,15.05-10.15,4.33-4.37,7.7-9.38,10.1-15.05,2.5-5.83,3.75-11.97,3.75-18.4s-1.25-12.53-3.75-18.4c-2.4-5.63-5.77-10.67-10.1-15.1-4.5-4.43-9.52-7.82-15.05-10.15-5.93-2.47-12.07-3.7-18.4-3.7s-12.47,1.23-18.4,3.7c-5.6,2.33-10.62,5.72-15.05,10.15-4.47,4.47-7.87,9.5-10.2,15.1M37.4,14.12c5.47-2.33,11.18-3.5,17.15-3.5,5.93,0,11.65,1.17,17.15,3.5,5.27,2.27,9.93,5.42,14,9.45,4.07,4.17,7.22,8.85,9.45,14.05,2.33,5.63,3.5,11.35,3.5,17.15s-1.17,11.52-3.5,17.15c-1.4,3.23-3.17,6.32-5.3,9.25-.63-.43-1.87-1.2-3.7-2.3-6.17-3.37-13.18-5.57-21.05-6.6-2.5,2.93-5.23,5.88-8.2,8.85-.73.73-1.6,1.1-2.6,1.1-1.07,0-1.95-.37-2.65-1.1-2.63-2.53-5.4-5.5-8.3-8.9-8,1.07-15.08,3.28-21.25,6.65-1.33.73-2.38,1.37-3.15,1.9-2.1-2.87-3.78-5.82-5.05-8.85-2.3-5.43-3.45-11.15-3.45-17.15,0-5.97,1.15-11.68,3.45-17.15,2.27-5.3,5.43-9.97,9.5-14v-.05c4.07-4.07,8.73-7.22,14-9.45Z"/>
  <g>
    <path class="st0" d="M120.55,35.41l7.95.05v30.05h17.28v7.95h-25.23v-38.05Z"/>
    <path class="st0" d="M149.01,49.13c2.91-2.91,6.36-4.35,10.39-4.35s7.47,1.43,10.33,4.35c2.86,2.86,4.29,6.31,4.29,10.28s-1.43,7.53-4.29,10.39c-2.86,2.86-6.31,4.29-10.33,4.29s-7.47-1.43-10.39-4.29c-2.86-2.86-4.29-6.31-4.29-10.39s1.43-7.42,4.29-10.28ZM154.57,64.29c1.32,1.33,2.97,2.01,4.82,2.01s3.5-.69,4.82-2.01c1.33-1.33,1.96-2.97,1.96-4.88s-.64-3.5-1.96-4.82c-1.32-1.32-2.91-2.01-4.82-2.01s-3.5.69-4.82,2.01c-1.33,1.32-2.01,2.97-2.01,4.82s.69,3.55,2.01,4.88Z"/>
    <path class="st0" d="M204.39,45.42l-13.46,13.57,14.41,14.47h-10.39l-9.59-9.59v9.59h-7.84v-38.05h7.84v19.13l8.53-9.11h10.49Z"/>
    <path class="st0" d="M233.96,45.42v28.03h-7.95v-3.71c-1.54,2.81-4.19,4.24-8.06,4.24s-6.89-1.43-9.54-4.24c-2.6-2.81-3.92-6.25-3.92-10.33s1.27-7.52,3.87-10.33c2.6-2.81,5.88-4.24,9.75-4.24,2.92,0,6.15,1.32,7.9,3.71v-3.13h7.95ZM223.95,64.45c1.33-1.38,2.01-3.02,2.07-4.88v-.21c-.05-1.91-.74-3.55-2.07-4.93-1.32-1.38-2.91-2.07-4.77-2.07s-3.44.69-4.77,2.12c-1.32,1.38-2.01,3.02-2.01,4.93s.69,3.55,2.01,4.98c1.33,1.43,2.92,2.12,4.77,2.12s3.45-.69,4.77-2.07Z"/>
    <path class="st0" d="M238.79,35.41h7.95v38.05h-7.95v-38.05Z"/>
    <path class="st0" d="M254.58,49.03c2.81-2.81,6.25-4.24,10.44-4.24s7.47,1.48,10.28,4.4c2.81,2.91,4.24,6.57,4.24,10.97l-.11,2.33h-21.09c.79,3.02,3.92,4.77,7.47,4.77,2.81,0,5.46-.85,7.95-2.6l3.39,5.35c-2.81,2.54-7.37,4.08-11.34,4.08-10.17,0-15.42-7.05-15.42-13.94,0-4.61,1.38-8.32,4.19-11.13ZM271.6,57.03c-.64-3.18-3.34-5.09-6.57-5.09s-6.15,2.17-6.57,5.09h13.14Z"/>
    <path class="st1" d="M305.52,53.43c2.92,1.7,4.98,5.25,4.98,8.69,0,3.13-1.11,5.83-3.29,8.06-2.17,2.17-4.82,3.29-7.95,3.29h-14.89v-38.05h14.63c2.86,0,5.35,1.01,7.47,3.07,2.12,2.01,3.18,4.45,3.18,7.31,0,3.02-1.64,5.99-4.13,7.63ZM289.67,50.83h9.33c1.43,0,2.65-.48,3.71-1.48,1.11-1.01,1.64-2.17,1.64-3.55s-.53-2.54-1.64-3.55c-1.06-1.01-2.28-1.54-3.71-1.54h-9.33v10.12ZM289.67,56.13v12.03h9.38c1.64,0,3.13-.58,4.35-1.75,1.22-1.22,1.85-2.65,1.85-4.29s-.64-3.02-1.91-4.19c-1.22-1.22-2.7-1.8-4.34-1.8h-9.33Z"/>
    <path class="st1" d="M338.59,49.24v-3.82h5.3v28.03h-5.3v-3.87c-2.44,3.02-5.67,4.5-9.7,4.5s-7.42-1.43-10.23-4.29c-2.75-2.86-4.13-6.31-4.13-10.39s1.38-7.47,4.19-10.33c2.81-2.86,6.2-4.29,10.17-4.29s7.26,1.48,9.7,4.45ZM335.73,66.2c1.85-1.75,2.81-3.92,2.86-6.47v-.58c-.05-2.54-1.01-4.72-2.86-6.46-1.85-1.75-4.03-2.65-6.57-2.65s-4.82.9-6.68,2.76c-1.85,1.85-2.75,4.03-2.75,6.62s.9,4.82,2.75,6.68c1.86,1.85,4.08,2.76,6.68,2.76s4.72-.9,6.57-2.65Z"/>
    <path class="st1" d="M355.71,45.42v3.18c2.38-2.54,5.3-3.82,8.74-3.82,3.02,0,5.62,1.27,7.9,3.76s3.44,5.67,3.44,9.54v15.37h-5.51v-15.37c0-2.28-.69-4.13-2.01-5.67-1.33-1.54-3.13-2.33-5.3-2.33-4.29,0-7.26,3.5-7.26,8v15.37h-5.46v-28.03h5.46Z"/>
    <path class="st1" d="M384.43,69.8c-2.92-2.92-4.4-6.36-4.4-10.39s1.43-7.42,4.29-10.28c2.86-2.91,6.31-4.35,10.33-4.35s7.42,1.43,10.28,4.35c2.92,2.86,4.35,6.31,4.35,10.28v2.12h-23.95c.27,2.01,1.38,3.76,3.34,5.19s4.03,2.12,6.25,2.12c3.18,0,6.62-1.48,9.01-4.29l3.97,3.23c-3.55,4.19-7.84,6.31-12.98,6.31-4.08,0-7.58-1.43-10.49-4.29ZM403.99,57.08c-.53-2.12-1.7-3.82-3.45-5.09-1.75-1.32-3.71-1.96-5.88-1.96-4.4,0-8.21,2.81-9.33,7.05h18.65Z"/>
    <path class="st1" d="M419.52,45.42v3.18c2.38-2.54,5.3-3.82,8.74-3.82,3.02,0,5.62,1.27,7.9,3.76s3.44,5.67,3.44,9.54v15.37h-5.51v-15.37c0-2.28-.69-4.13-2.01-5.67-1.33-1.54-3.13-2.33-5.3-2.33-4.29,0-7.26,3.5-7.26,8v15.37h-5.46v-28.03h5.46Z"/>
  </g>
</svg>