<?xml version="1.0" encoding="UTF-8"?>
<svg id="Layer_1" xmlns="http://www.w3.org/2000/svg" version="1.1" viewBox="0 0 622.72 109.05">
  <!-- Generator: Adobe Illustrator 29.8.2, SVG Export Plug-In . SVG Version: 2.1.1 Build 3)  -->
  <defs>
    <style>
      .st0 {
        fill: var(--secondary);
      }

      .st1 {
        fill: var(--primary);
      }
    </style>
  </defs>
  <g>
    <path class="st1" d="M138.62,35.96l14.79,38h-8.64l-2.76-6.41h-12.19l-2.81,6.41h-8.64l14.94-38h5.3ZM132.37,60.81h7.15l-3.55-11.23-3.6,11.23Z"/>
    <path class="st1" d="M156.91,49.58c2.86-2.86,6.31-4.29,10.39-4.29s7.58,1.59,10.81,4.77l-5.51,5.67c-1.7-1.75-3.44-2.65-5.3-2.65s-3.55.69-4.88,2.01-1.96,2.97-1.96,4.82.64,3.55,1.96,4.88,2.97,2.01,4.88,2.01,3.66-.85,5.35-2.54l5.51,5.51c-3.23,3.23-6.84,4.82-10.86,4.82s-7.53-1.43-10.39-4.29c-2.86-2.86-4.29-6.31-4.29-10.39s1.43-7.47,4.29-10.33Z"/>
    <path class="st1" d="M181.24,35.9h7.95v13.09c1.75-2.38,4.98-3.71,7.9-3.71,3.92,0,7,1.32,9.22,4.03,2.28,2.7,3.39,6.2,3.39,10.6v14.04h-7.9v-14.04c0-3.82-2.6-6.84-6.25-6.84s-6.36,2.97-6.36,6.78v14.1h-7.95v-38.05Z"/>
    <path class="st1" d="M230.68,45.92v7.84h-5.83v20.19h-7.95v-20.19h-5.3v-7.84h5.3v-9.06h7.95v9.06h5.83Z"/>
    <path class="st1" d="M236.2,49.52c2.81-2.81,6.25-4.24,10.44-4.24s7.47,1.48,10.28,4.4c2.81,2.91,4.24,6.57,4.24,10.97l-.11,2.33h-21.09c.79,3.02,3.92,4.77,7.47,4.77,2.81,0,5.46-.85,7.95-2.6l3.39,5.35c-2.81,2.54-7.37,4.08-11.34,4.08-10.17,0-15.42-7.05-15.42-13.94,0-4.61,1.38-8.32,4.19-11.13ZM253.21,57.53c-.64-3.18-3.34-5.09-6.57-5.09s-6.15,2.17-6.57,5.09h13.14Z"/>
    <path class="st1" d="M281.78,53.5c-.74-.27-1.8-.42-3.23-.42-3.66,0-5.93,2.81-5.93,7.26v13.62h-7.79v-28.03h7.79v4.45c1.48-3.39,3.87-5.09,7.21-5.09.58,0,1.22.05,1.91.16l.05,8.06Z"/>
    <path class="st1" d="M285.96,35.9h7.95v13.09c1.75-2.38,4.98-3.71,7.9-3.71,3.92,0,7,1.32,9.22,4.03,2.28,2.7,3.39,6.2,3.39,10.6v14.04h-7.9v-14.04c0-3.82-2.6-6.84-6.25-6.84s-6.36,2.97-6.36,6.78v14.1h-7.95v-38.05Z"/>
    <path class="st1" d="M321.05,49.63c2.92-2.91,6.36-4.35,10.39-4.35s7.47,1.43,10.33,4.35c2.86,2.86,4.29,6.31,4.29,10.28s-1.43,7.53-4.29,10.39-6.31,4.29-10.33,4.29-7.47-1.43-10.39-4.29c-2.86-2.86-4.29-6.31-4.29-10.39s1.43-7.42,4.29-10.28ZM326.61,64.79c1.33,1.33,2.97,2.01,4.82,2.01s3.5-.69,4.82-2.01c1.32-1.33,1.96-2.97,1.96-4.88s-.64-3.5-1.96-4.82c-1.33-1.32-2.92-2.01-4.82-2.01s-3.5.69-4.82,2.01c-1.32,1.32-2.01,2.97-2.01,4.82s.69,3.55,2.01,4.88Z"/>
    <path class="st1" d="M352,49.52c2.81-2.81,6.25-4.24,10.44-4.24s7.47,1.48,10.28,4.4c2.81,2.91,4.24,6.57,4.24,10.97l-.11,2.33h-21.09c.79,3.02,3.92,4.77,7.47,4.77,2.81,0,5.46-.85,7.95-2.6l3.39,5.35c-2.81,2.54-7.37,4.08-11.34,4.08-10.17,0-15.42-7.05-15.42-13.94,0-4.61,1.38-8.32,4.19-11.13ZM369.01,57.53c-.64-3.18-3.34-5.09-6.57-5.09s-6.15,2.17-6.57,5.09h13.14Z"/>
    <path class="st1" d="M407.49,45.92l-13.46,13.57,14.41,14.47h-10.39l-9.59-9.59v9.59h-7.84v-38.05h7.84v19.13l8.53-9.11h10.49Z"/>
    <path class="st1" d="M417.88,53.76c0,1.01,1.33,1.91,3.23,2.12,6.78.79,10.49,4.56,10.49,9.43,0,2.65-1.06,4.88-3.18,6.62-2.07,1.75-4.72,2.6-7.84,2.6-2.49,0-4.82-.74-6.94-2.17-2.07-1.43-3.55-3.34-4.45-5.67l6.15-2.81c.79,1.75,3.13,3.66,5.25,3.66s3.44-1.06,3.44-2.49c0-1.32-1.17-2.12-3.5-2.49-6.2-1.01-10.49-4.45-10.49-8.69,0-2.49,1.01-4.5,2.97-6.15,1.96-1.64,4.61-2.44,7.95-2.44,4.45,0,8.32,2.23,10.49,6.52l-5.93,2.6c-1.43-1.7-3.02-2.54-4.72-2.54-1.96,0-2.92.64-2.92,1.91Z"/>
    <path class="st1" d="M437.7,49.52c2.81-2.81,6.25-4.24,10.44-4.24s7.47,1.48,10.28,4.4c2.81,2.91,4.24,6.57,4.24,10.97l-.11,2.33h-21.09c.79,3.02,3.92,4.77,7.47,4.77,2.81,0,5.46-.85,7.95-2.6l3.39,5.35c-2.81,2.54-7.37,4.08-11.34,4.08-10.17,0-15.42-7.05-15.42-13.94,0-4.61,1.38-8.32,4.19-11.13ZM454.71,57.53c-.64-3.18-3.34-5.09-6.57-5.09s-6.15,2.17-6.57,5.09h13.14Z"/>
    <path class="st0" d="M488.63,53.92c2.92,1.7,4.98,5.25,4.98,8.69,0,3.13-1.11,5.83-3.29,8.06-2.17,2.17-4.82,3.29-7.95,3.29h-14.89v-38.05h14.63c2.86,0,5.35,1.01,7.47,3.07,2.12,2.01,3.18,4.45,3.18,7.31,0,3.02-1.64,5.99-4.13,7.63ZM472.79,51.33h9.33c1.43,0,2.65-.48,3.71-1.48,1.11-1.01,1.64-2.17,1.64-3.55s-.53-2.54-1.64-3.55c-1.06-1.01-2.28-1.54-3.71-1.54h-9.33v10.12ZM472.79,56.62v12.03h9.38c1.64,0,3.13-.58,4.35-1.75,1.22-1.22,1.85-2.65,1.85-4.29s-.64-3.02-1.91-4.19c-1.22-1.22-2.7-1.8-4.34-1.8h-9.33Z"/>
    <path class="st0" d="M521.7,49.74v-3.82h5.3v28.03h-5.3v-3.87c-2.44,3.02-5.67,4.5-9.7,4.5s-7.42-1.43-10.23-4.29c-2.75-2.86-4.13-6.31-4.13-10.39s1.38-7.47,4.19-10.33c2.81-2.86,6.2-4.29,10.17-4.29s7.26,1.48,9.7,4.45ZM518.84,66.69c1.85-1.75,2.81-3.92,2.86-6.47v-.58c-.05-2.54-1.01-4.72-2.86-6.46-1.85-1.75-4.03-2.65-6.57-2.65s-4.82.9-6.68,2.76c-1.85,1.85-2.75,4.03-2.75,6.62s.9,4.82,2.75,6.68c1.86,1.85,4.08,2.76,6.68,2.76s4.72-.9,6.57-2.65Z"/>
    <path class="st0" d="M538.82,45.92v3.18c2.38-2.54,5.3-3.82,8.74-3.82,3.02,0,5.62,1.27,7.9,3.76s3.44,5.67,3.44,9.54v15.37h-5.51v-15.37c0-2.28-.69-4.13-2.01-5.67-1.33-1.54-3.13-2.33-5.3-2.33-4.29,0-7.26,3.5-7.26,8v15.37h-5.46v-28.03h5.46Z"/>
    <path class="st0" d="M567.55,70.3c-2.92-2.92-4.4-6.36-4.4-10.39s1.43-7.42,4.29-10.28c2.86-2.91,6.31-4.35,10.33-4.35s7.42,1.43,10.28,4.35c2.92,2.86,4.35,6.31,4.35,10.28v2.12h-23.95c.27,2.01,1.38,3.76,3.34,5.19s4.03,2.12,6.25,2.12c3.18,0,6.62-1.48,9.01-4.29l3.97,3.23c-3.55,4.19-7.84,6.31-12.98,6.31-4.08,0-7.58-1.43-10.49-4.29ZM587.1,57.58c-.53-2.12-1.7-3.82-3.45-5.09-1.75-1.32-3.71-1.96-5.88-1.96-4.4,0-8.21,2.81-9.33,7.05h18.65Z"/>
    <path class="st0" d="M602.63,45.92v3.18c2.38-2.54,5.3-3.82,8.74-3.82,3.02,0,5.62,1.27,7.9,3.76s3.44,5.67,3.44,9.54v15.37h-5.51v-15.37c0-2.28-.69-4.13-2.01-5.67-1.33-1.54-3.13-2.33-5.3-2.33-4.29,0-7.26,3.5-7.26,8v15.37h-5.46v-28.03h5.46Z"/>
  </g>
  <path class="st1" d="M54.5,0c-7.3,0-14.37,1.43-21.2,4.3-6.53,2.73-12.32,6.63-17.35,11.7-5.1,5.03-9,10.82-11.7,17.35C1.38,40.08-.05,47.15-.05,54.55c0,7.4,1.43,14.47,4.3,21.2,2.73,6.5,6.63,12.27,11.7,17.3,5.03,5.07,10.82,8.97,17.35,11.7,6.83,2.87,13.9,4.3,21.2,4.3s14.37-1.43,21.2-4.3c6.43-2.73,12.2-6.63,17.3-11.7,4.93-4.93,8.83-10.7,11.7-17.3,2.87-6.83,4.3-13.9,4.3-21.2s-1.43-14.37-4.3-21.2c-2.8-6.57-6.7-12.35-11.7-17.35-5.1-5.07-10.87-8.97-17.3-11.7-6.83-2.87-13.9-4.3-21.2-4.3M34.7,7.65c6.3-2.7,12.9-4.05,19.8-4.05s13.45,1.35,19.75,4.05c6.1,2.57,11.5,6.2,16.2,10.9,4.73,4.77,8.37,10.17,10.9,16.2,2.7,6.3,4.05,12.9,4.05,19.8,0,6.87-1.35,13.45-4.05,19.75-2.53,6.03-6.17,11.43-10.9,16.2-4.7,4.7-10.1,8.33-16.2,10.9-6.3,2.7-12.88,4.05-19.75,4.05s-13.5-1.35-19.8-4.05c-6.17-2.57-11.57-6.2-16.2-10.9-4.7-4.7-8.35-10.1-10.95-16.2-2.67-6.27-4-12.85-4-19.75s1.33-13.53,4-19.8c2.6-6.1,6.25-11.5,10.95-16.2,4.63-4.7,10.03-8.33,16.2-10.9M63.35,23.2c-2.87-1.23-5.9-1.85-9.1-1.85s-6.33.62-9.2,1.85c-2.8,1.2-5.28,2.88-7.45,5.05-2.27,2.27-3.95,4.77-5.05,7.5-1.23,2.8-1.85,5.85-1.85,9.15,0,5.27,3.6,12.5,10.8,21.7,1.4,1.8,2.8,3.5,4.2,5.1,1.97,2.3,4.05,4.55,6.25,6.75l1.05,1.05c.3.33.72.5,1.25.5.43,0,.83-.17,1.2-.5,2.7-2.7,5.1-5.28,7.2-7.75,1.33-1.53,2.77-3.25,4.3-5.15,7.23-9.3,10.85-16.53,10.85-21.7,0-3.1-.63-6.15-1.9-9.15-1.2-2.73-2.88-5.23-5.05-7.5-2.23-2.17-4.73-3.85-7.5-5.05M41.2,43.8c0-3.63,1.27-6.72,3.8-9.25,2.6-2.53,5.68-3.8,9.25-3.8s6.63,1.27,9.2,3.8c2.53,2.6,3.8,5.68,3.8,9.25s-1.27,6.63-3.8,9.2c-2.53,2.53-5.6,3.8-9.2,3.8s-6.75-1.27-9.25-3.8c-2.53-2.53-3.8-5.6-3.8-9.2Z"/>
  <path class="st0" d="M10.85,36.15c-2.47,5.83-3.7,11.97-3.7,18.4,0,6.43,1.23,12.57,3.7,18.4,2.4,5.63,5.8,10.65,10.2,15.05,4.43,4.43,9.45,7.82,15.05,10.15,2.27,1,4.7,1.78,7.3,2.35l6.45,1.15c1.17.13,2.65.2,4.45.2h.2l6.55-.45c4.13-.57,8.08-1.65,11.85-3.25,5.53-2.33,10.55-5.72,15.05-10.15,4.33-4.37,7.7-9.38,10.1-15.05,2.5-5.83,3.75-11.97,3.75-18.4s-1.25-12.53-3.75-18.4c-2.4-5.63-5.77-10.67-10.1-15.1-4.5-4.43-9.52-7.82-15.05-10.15-5.93-2.47-12.07-3.7-18.4-3.7s-12.47,1.23-18.4,3.7c-5.6,2.33-10.62,5.72-15.05,10.15-4.47,4.47-7.87,9.5-10.2,15.1M37.35,13.9c5.47-2.33,11.18-3.5,17.15-3.5,5.93,0,11.65,1.17,17.15,3.5,5.27,2.27,9.93,5.42,14,9.45,4.07,4.17,7.22,8.85,9.45,14.05,2.33,5.63,3.5,11.35,3.5,17.15s-1.17,11.52-3.5,17.15c-1.4,3.23-3.17,6.32-5.3,9.25-.63-.43-1.87-1.2-3.7-2.3-6.17-3.37-13.18-5.57-21.05-6.6-2.5,2.93-5.23,5.88-8.2,8.85-.73.73-1.6,1.1-2.6,1.1-1.07,0-1.95-.37-2.65-1.1-2.63-2.53-5.4-5.5-8.3-8.9-8,1.07-15.08,3.28-21.25,6.65-1.33.73-2.38,1.37-3.15,1.9-2.1-2.87-3.78-5.82-5.05-8.85-2.3-5.43-3.45-11.15-3.45-17.15,0-5.97,1.15-11.68,3.45-17.15,2.27-5.3,5.43-9.97,9.5-14v-.05c4.07-4.07,8.73-7.22,14-9.45Z"/>
</svg>