<?xml version="1.0" encoding="UTF-8"?>
<svg id="a" xmlns="http://www.w3.org/2000/svg" version="1.1" viewBox="0 0 547.6 109.1">
  <!-- Generator: Adobe Illustrator 29.2.1, SVG Export Plug-In . SVG Version: 2.1.0 Build 116)  -->
  <defs>
    <style>
      .st0 {
        fill: var(--primary);
      }

      .st1 {
        fill: var(--secondary);
      }
    </style>
  </defs>
  <path class="st0" d="M54.5,0c-7.3,0-14.4,1.4-21.2,4.3-6.5,2.7-12.3,6.6-17.4,11.7-5.1,5-9,10.8-11.7,17.3C1.4,40.1,0,47.2,0,54.5s1.4,14.5,4.3,21.2c2.7,6.5,6.6,12.3,11.7,17.3,5,5.1,10.8,9,17.3,11.7,6.8,2.9,13.9,4.3,21.2,4.3s14.4-1.4,21.2-4.3c6.4-2.7,12.2-6.6,17.3-11.7,4.9-4.9,8.8-10.7,11.7-17.3,2.9-6.8,4.3-13.9,4.3-21.2s-1.4-14.4-4.3-21.2c-2.8-6.6-6.7-12.4-11.7-17.4-5.1-5.1-10.9-9-17.3-11.7-6.8-2.9-13.9-4.3-21.2-4.3M34.8,7.7c6.3-2.7,12.9-4.1,19.8-4.1s13.5,1.3,19.8,4.1c6.1,2.6,11.5,6.2,16.2,10.9,4.7,4.8,8.4,10.2,10.9,16.2,2.7,6.3,4.1,12.9,4.1,19.8s-1.3,13.5-4.1,19.8c-2.5,6-6.2,11.4-10.9,16.2-4.7,4.7-10.1,8.3-16.2,10.9-6.3,2.7-12.9,4.1-19.8,4.1s-13.5-1.3-19.8-4.1c-6.2-2.6-11.6-6.2-16.2-10.9-4.7-4.7-8.4-10.1-10.9-16.2-2.7-6.3-4-12.8-4-19.8s1.3-13.5,4-19.8c2.6-6.1,6.2-11.5,10.9-16.2,4.6-4.7,10-8.3,16.2-10.9M63.4,23.2c-2.9-1.2-5.9-1.9-9.1-1.9s-6.3.6-9.2,1.9c-2.8,1.2-5.3,2.9-7.5,5-2.3,2.3-4,4.8-5,7.5-1.2,2.8-1.9,5.8-1.9,9.2,0,5.3,3.6,12.5,10.8,21.7,1.4,1.8,2.8,3.5,4.2,5.1,2,2.3,4,4.6,6.2,6.8l1,1.1c.3.3.7.5,1.2.5s.8-.2,1.2-.5c2.7-2.7,5.1-5.3,7.2-7.8,1.3-1.5,2.8-3.2,4.3-5.2,7.2-9.3,10.8-16.5,10.8-21.7s-.6-6.2-1.9-9.1c-1.2-2.7-2.9-5.2-5.1-7.5-2.2-2.2-4.7-3.9-7.5-5M41.2,43.8c0-3.6,1.3-6.7,3.8-9.2,2.6-2.5,5.7-3.8,9.2-3.8s6.6,1.3,9.2,3.8c2.5,2.6,3.8,5.7,3.8,9.2s-1.3,6.6-3.8,9.2c-2.5,2.5-5.6,3.8-9.2,3.8s-6.8-1.3-9.2-3.8c-2.5-2.5-3.8-5.6-3.8-9.2Z"/>
  <path class="st1" d="M10.9,36.2c-2.5,5.8-3.7,12-3.7,18.4s1.2,12.6,3.7,18.4c2.4,5.6,5.8,10.7,10.2,15.1,4.4,4.4,9.5,7.8,15,10.2,2.3,1,4.7,1.8,7.3,2.3l6.5,1.2c1.2.1,2.7.2,4.5.2h.2l6.5-.4c4.1-.6,8.1-1.7,11.8-3.2,5.5-2.3,10.6-5.7,15.1-10.2,4.3-4.4,7.7-9.4,10.1-15.1,2.5-5.8,3.8-12,3.8-18.4s-1.2-12.5-3.8-18.4c-2.4-5.6-5.8-10.7-10.1-15.1-4.5-4.4-9.5-7.8-15.1-10.1-5.9-2.5-12.1-3.7-18.4-3.7s-12.5,1.2-18.4,3.7c-5.6,2.3-10.6,5.7-15,10.1s-7.9,9.5-10.2,15.1M37.4,13.9c5.5-2.3,11.2-3.5,17.2-3.5s11.7,1.2,17.2,3.5c5.3,2.3,9.9,5.4,14,9.4,4.1,4.2,7.2,8.8,9.4,14,2.3,5.6,3.5,11.4,3.5,17.1s-1.2,11.5-3.5,17.2c-1.4,3.2-3.2,6.3-5.3,9.2-.6-.4-1.9-1.2-3.7-2.3-6.2-3.4-13.2-5.6-21-6.6-2.5,2.9-5.2,5.9-8.2,8.8-.7.7-1.6,1.1-2.6,1.1s-2-.4-2.7-1.1c-2.6-2.5-5.4-5.5-8.3-8.9-8,1.1-15.1,3.3-21.2,6.7-1.3.7-2.4,1.4-3.1,1.9-2.1-2.9-3.8-5.8-5.1-8.8-2.3-5.4-3.4-11.2-3.4-17.2s1.1-11.7,3.4-17.2c2.3-5.3,5.4-10,9.5-14h0c4.1-4.1,8.7-7.3,14-9.5Z"/>
  <g>
    <g>
      <path class="st1" d="M417.3,53.7c2.8,1.7,4.8,5.1,4.8,8.5s-1.1,5.7-3.2,7.8c-2.1,2.1-4.7,3.2-7.7,3.2h-14.5v-37h14.2c2.8,0,5.2,1,7.3,3,2.1,2,3.1,4.3,3.1,7.1s-1.6,5.8-4,7.4ZM401.9,51.2h9.1c1.4,0,2.6-.5,3.6-1.4,1.1-1,1.6-2.1,1.6-3.5s-.5-2.5-1.6-3.5c-1-1-2.2-1.5-3.6-1.5h-9.1v9.8ZM401.9,56.3v11.7h9.1c1.6,0,3-.6,4.2-1.7,1.2-1.2,1.8-2.6,1.8-4.2s-.6-2.9-1.9-4.1c-1.2-1.2-2.6-1.8-4.2-1.8h-9.1,0Z"/>
      <path class="st1" d="M449.4,49.6v-3.7h5.1v27.2h-5.1v-3.8c-2.4,2.9-5.5,4.4-9.4,4.4s-7.2-1.4-9.9-4.2c-2.7-2.8-4-6.1-4-10.1s1.3-7.3,4.1-10c2.7-2.8,6-4.2,9.9-4.2s7.1,1.5,9.4,4.3h0ZM446.6,66.1c1.8-1.7,2.7-3.8,2.8-6.3v-.6c0-2.5-1-4.6-2.8-6.3s-3.9-2.6-6.4-2.6-4.7.9-6.5,2.7-2.7,3.9-2.7,6.4.9,4.7,2.7,6.5,4,2.7,6.5,2.7c2.5,0,4.6-.9,6.4-2.6Z"/>
      <path class="st1" d="M466.1,45.9v3.1c2.3-2.5,5.1-3.7,8.5-3.7s5.5,1.2,7.7,3.7c2.2,2.4,3.4,5.5,3.4,9.3v14.9h-5.4v-14.9c0-2.2-.7-4-2-5.5-1.3-1.5-3-2.3-5.1-2.3-4.2,0-7.1,3.4-7.1,7.8v14.9h-5.3v-27.2h5.3,0Z"/>
      <path class="st1" d="M494,69.6c-2.8-2.8-4.3-6.2-4.3-10.1s1.4-7.2,4.2-10c2.8-2.8,6.1-4.2,10-4.2s7.2,1.4,10,4.2c2.8,2.8,4.2,6.1,4.2,10v2.1h-23.3c.3,2,1.3,3.7,3.2,5,1.9,1.4,3.9,2.1,6.1,2.1,3.1,0,6.4-1.4,8.8-4.2l3.9,3.1c-3.5,4.1-7.6,6.1-12.6,6.1s-7.4-1.4-10.2-4.2h0ZM513,57.3c-.5-2.1-1.6-3.7-3.4-4.9-1.7-1.3-3.6-1.9-5.7-1.9-4.3,0-8,2.7-9.1,6.8h18.1Z"/>
      <path class="st1" d="M528.1,45.9v3.1c2.3-2.5,5.2-3.7,8.5-3.7s5.5,1.2,7.7,3.7c2.2,2.4,3.3,5.5,3.3,9.3v14.9h-5.4v-14.9c0-2.2-.7-4-2-5.5-1.3-1.5-3-2.3-5.2-2.3-4.2,0-7.1,3.4-7.1,7.8v14.9h-5.3v-27.2h5.3Z"/>
    </g>
    <g>
      <path class="st0" d="M136.6,35.3h5.2l14.5,37.4h-8.5l-2.7-6.3h-12l-2.8,6.3h-8.5l14.7-37.4h0ZM139.2,48.7l-3.5,11h7l-3.5-11Z"/>
      <path class="st0" d="M160.2,72.7v-37.4h7.8v37.4h-7.8Z"/>
      <path class="st0" d="M190.9,45.1h10.3l-13.2,13.3,14.2,14.2h-10.2l-9.4-9.4v9.4h-7.7v-37.4h7.7v18.8l8.4-9h0Z"/>
      <path class="st0" d="M228.7,56.2v16.5h-7.7v-16.2c0-1.3-.4-2.3-1-3.1-.7-.8-1.6-1.1-2.7-1.1s-2,.4-2.7,1.2c-.7.8-1,1.8-1,3.1v16.2h-7.7v-27.6h7.7v3.4c.6-1.2,1.4-2.2,2.6-3,1.2-.7,2.5-1.1,3.9-1.1h.5c1,0,2.1.3,3.4.9s2.4,1.6,3.2,3.1c2-2.7,4.6-4,8-4h.1c2.9,0,5.2,1.3,6.7,3.7,1.2,1.8,1.8,4.3,1.8,7.5v17.1h-7.7v-16.2c0-1.3-.4-2.3-1-3.1-.7-.8-1.6-1.1-2.7-1.1s-1.9.3-2.6,1c-.7.7-1.1,1.6-1.1,2.8h0Z"/>
      <path class="st0" d="M268.9,45.1h7.8v27.6h-7.8v-3.7c-1.5,2.8-4.2,4.2-7.9,4.2s-6.8-1.4-9.4-4.2c-2.6-2.8-3.9-6.2-3.9-10.2s1.3-7.4,3.8-10.2c2.6-2.8,5.8-4.2,9.6-4.2s3,.3,4.4,1c1.4.6,2.5,1.5,3.4,2.7v-3.1ZM262.1,65.9c1.8,0,3.4-.7,4.7-2,1.3-1.3,2-3,2-4.8v-.2c0-1.9-.7-3.5-2-4.8-1.3-1.3-2.9-2-4.7-2s-3.4.7-4.7,2.1c-1.3,1.4-2,3-2,4.8s.7,3.5,2,4.9c1.3,1.4,2.9,2.1,4.7,2.1Z"/>
      <path class="st0" d="M302.3,45.1h7.8v27.6h-7.8v-3.7c-1.5,2.8-4.2,4.2-7.9,4.2s-6.8-1.4-9.4-4.2c-2.6-2.8-3.9-6.2-3.9-10.2s1.3-7.4,3.8-10.2c2.6-2.8,5.8-4.2,9.6-4.2s3,.3,4.4,1c1.4.6,2.5,1.5,3.4,2.7v-3.1ZM295.5,65.9c1.8,0,3.4-.7,4.7-2,1.3-1.3,2-3,2-4.8v-.2c0-1.9-.7-3.5-2-4.8s-2.9-2-4.7-2-3.4.7-4.7,2.1c-1.3,1.4-2,3-2,4.8s.7,3.5,2,4.9c1.3,1.4,2.8,2.1,4.7,2.1Z"/>
      <path class="st0" d="M332.9,44.6v7.9c-.7-.3-1.8-.4-3.1-.4s-3.2.6-4.3,1.9c-1,1.3-1.6,3-1.6,5.2v13.4h-7.7v-27.6h7.7v4.4c1.5-3.3,3.8-5,7.1-5s1.2,0,1.9.2Z"/>
      <path class="st0" d="M347.6,50.9c-1.9,0-2.9.6-2.9,1.9s.3.9.9,1.3c.6.4,1.4.7,2.3.8,3.3.4,5.8,1.4,7.6,3.1,1.8,1.7,2.7,3.7,2.7,6.2s-1,4.8-3.1,6.5c-2,1.7-4.6,2.6-7.7,2.6s-4.7-.7-6.8-2.1c-2-1.4-3.5-3.2-4.4-5.6l6-2.8c.4.9,1.1,1.7,2.1,2.5s2,1.1,3,1.1,1.9-.2,2.5-.7c.6-.4.9-1,.9-1.8,0-1.2-1.1-2.1-3.4-2.5-3.1-.5-5.5-1.5-7.5-3.1-1.9-1.6-2.9-3.4-2.9-5.5s1-4.4,2.9-6c1.9-1.6,4.5-2.4,7.8-2.4s4.2.5,6,1.6c1.8,1.1,3.2,2.7,4.3,4.8l-5.8,2.5c-1.4-1.7-3-2.5-4.6-2.5h0Z"/>
      <path class="st0" d="M361.5,59.6c0-4.5,1.4-8.2,4.1-10.9,2.8-2.8,6.2-4.2,10.3-4.2s7.3,1.4,10.1,4.3c2.8,2.9,4.2,6.5,4.2,10.8v2.3h-20.8c.4,1.5,1.2,2.6,2.6,3.4,1.4.8,2.9,1.2,4.7,1.2,2.8,0,5.4-.8,7.8-2.5l3.3,5.3c-1.4,1.2-3.1,2.2-5.1,2.9-2,.7-4.1,1.1-6,1.1-4.7,0-8.4-1.4-11.1-4.1-2.7-2.7-4.1-5.9-4.1-9.6h0ZM369.4,56.5h12.9c-.3-1.5-1.1-2.7-2.2-3.7-1.2-.9-2.6-1.3-4.2-1.3s-3,.5-4.3,1.4c-1.2,1-2,2.2-2.2,3.6h0Z"/>
    </g>
  </g>
</svg>