<?xml version="1.0" encoding="UTF-8"?>
<svg id="a" xmlns="http://www.w3.org/2000/svg" version="1.1" viewBox="0 0 1190.6 220.8">
  <!-- Generator: Adobe Illustrator 29.2.1, SVG Export Plug-In . SVG Version: 2.1.0 Build 116)  -->
  <defs>
    <style>
      .st0 {
        fill: var(--primary);
      }

      .st1 {
        fill: var(--secondary);
      }
    </style>
  </defs>
  <g>
    <path class="st0" d="M110.2,0C95.4,0,81.1,2.8,67.3,8.7c-13.1,5.5-24.9,13.3-35,23.7-10.3,10.1-18.1,21.9-23.6,35C2.8,81.2,0,95.5,0,110.3s2.8,29.3,8.7,43.1c5.5,12.9,13.3,24.7,23.7,35,10.1,10.3,21.8,18.2,35,23.7,13.8,5.9,28.1,8.7,42.9,8.7s29.1-2.8,42.9-8.7c12.9-5.5,24.7-13.3,35-23.7,9.9-9.9,17.8-21.6,23.7-35,5.9-13.8,8.7-28.1,8.7-42.9s-2.8-29.1-8.7-42.9c-5.7-13.3-13.3-25.1-23.5-35.2-10.3-10.3-22-18.2-35-23.7C139.4,2.9,125,0,110.2,0M70.4,15.6c12.5-5.7,26.1-8.3,39.8-8.3s27.3,2.6,40,8.3c12.3,5.3,23.3,12.5,32.8,22,9.5,9.7,17,20.6,22,32.8,5.5,12.7,8.3,26.1,8.3,40s-2.6,27.3-8.3,40c-5.1,12.1-12.5,23.1-22,32.8-9.5,9.5-20.4,16.8-32.8,22-12.7,5.5-26.1,8.3-40,8.3s-27.3-2.6-40-8.3c-12.5-5.3-23.5-12.5-32.8-22-9.5-9.5-17-20.4-22-32.8-5.5-12.7-8.1-25.9-8.1-40s2.6-27.3,8.1-40c5.3-12.3,12.5-23.3,22-32.8s20.4-16.9,33-22M128.2,47c-5.9-2.4-11.9-3.8-18.4-3.8s-12.7,1.3-18.6,3.8c-5.7,2.4-10.7,5.9-15.2,10.1-4.7,4.7-8.1,9.7-10.1,15.2-2.4,5.7-3.8,11.7-3.8,18.4,0,10.7,7.3,25.3,21.8,43.9,2.8,3.6,5.7,7.1,8.5,10.3,4,4.7,8.1,9.3,12.5,13.8l2,2.2c.6.6,1.4,1,2.4,1s1.6-.4,2.4-1c5.5-5.5,10.3-10.7,14.6-15.8,2.6-3,5.7-6.5,8.7-10.5,14.6-18.8,21.8-33.4,21.8-43.9s-1.2-12.5-3.8-18.4c-2.4-5.5-5.9-10.5-10.3-15.2-3.7-4.3-8.8-7.7-14.5-10.1M83.3,88.6c0-7.3,2.6-13.6,7.7-18.6,5.3-5.1,11.5-7.7,18.6-7.7s13.3,2.6,18.6,7.7c5.1,5.3,7.7,11.5,7.7,18.6s-2.4,13.3-7.5,18.6c-5.1,5.1-11.3,7.7-18.6,7.7s-13.8-2.6-18.6-7.7c-5.2-5-7.7-11.3-7.9-18.6Z"/>
    <path class="st1" d="M22,73.3c-5.1,11.7-7.5,24.3-7.5,37.2s2.4,25.3,7.5,37.2c4.9,11.3,11.7,21.6,20.6,30.5,8.9,8.9,19.2,15.8,30.3,20.6,4.7,2,9.5,3.6,14.8,4.7l13.1,2.4c2.4.2,5.5.4,9.1.4h.4l13.1-.8c8.3-1.2,16.4-3.4,23.9-6.5,11.3-5.3,21.4-12.1,30.5-21,8.7-8.9,15.6-19,20.4-30.5,5.1-11.7,7.7-24.3,7.7-37.2s-2.4-25.3-7.7-37.2c-4.9-11.3-11.7-21.6-20.4-30.5-9.1-8.9-19.2-15.8-30.5-20.4-11.9-5.1-24.3-7.5-37.2-7.5s-25.1,2.3-37.1,7.4c-11.3,4.7-21.4,11.5-30.3,20.4s-16,19.4-20.7,30.8M75.6,28.2c11.1-4.7,22.7-7.1,34.8-7.1s23.7,2.4,34.8,7.1c10.7,4.7,20,10.9,28.3,19,8.3,8.5,14.6,17.8,19,28.3,4.7,11.3,7.1,23.1,7.1,34.6s-2.4,23.3-7.1,34.8c-2.8,6.5-6.5,12.7-10.7,18.6-1.2-.8-3.8-2.4-7.5-4.7-12.5-6.5-26.7-10.9-42.7-13.1-5.1,5.9-10.5,11.9-16.6,17.8-1.4,1.4-3.2,2.2-5.3,2.2s-4-.8-5.5-2.2c-5.3-5.1-10.9-11.1-16.8-18-16.2,2.2-30.5,6.7-42.9,13.6-2.6,1.4-4.9,2.8-6.3,3.8-4.2-5.9-7.7-11.7-10.3-17.8-4.7-10.9-6.9-22.7-6.9-34.8s2.2-23.7,6.9-34.8c4.9-10.7,11.1-20.2,19.4-28.3h0c8.3-8.1,17.6-14.6,28.3-19Z"/>
  </g>
  <g>
    <path class="st1" d="M927,107.7c5.7,3.4,9.7,10.3,9.7,17.2s-2.2,11.5-6.5,15.8c-4.2,4.2-9.5,6.5-15.6,6.5h-29.3v-74.9h28.9c5.7,0,10.5,2,14.8,6.1s6.3,8.7,6.3,14.4c-.2,6-3.4,11.6-8.3,14.9h0ZM895.8,102.6h18.4c2.8,0,5.3-1,7.3-2.8,2.2-2,3.2-4.2,3.2-7.1s-1-5.1-3.2-7.1c-2-2-4.4-3-7.3-3h-18.4v20h0ZM895.8,113.1v23.7h18.4c3.2,0,6.1-1.2,8.5-3.4,2.4-2.4,3.6-5.3,3.6-8.5s-1.2-5.9-3.8-8.3c-2.4-2.4-5.3-3.6-8.5-3.6h-18.2Z"/>
    <path class="st1" d="M991.9,99.6v-7.5h10.5v55h-10.5v-7.7c-4.9,5.9-11.1,8.9-19,8.9s-14.6-2.8-20-8.5c-5.5-5.7-8.1-12.3-8.1-20.4s2.6-14.8,8.3-20.2c5.5-5.7,12.1-8.5,20-8.5s14.2,3,18.8,8.9h0ZM986.5,132.7c3.6-3.4,5.5-7.7,5.7-12.7v-1.2c0-5.1-2-9.3-5.7-12.7-3.6-3.4-7.9-5.3-12.9-5.3s-9.5,1.8-13.1,5.5-5.5,7.9-5.5,12.9,1.8,9.5,5.5,13.1c3.6,3.6,8.1,5.5,13.1,5.5,5,.2,9-1.4,12.9-5.1h0Z"/>
    <path class="st1" d="M1025.7,92.1v6.3c4.7-5.1,10.5-7.5,17.2-7.5s11.1,2.4,15.6,7.5c4.4,4.9,6.7,11.1,6.7,18.8v30.1h-10.9v-30.3c0-4.4-1.4-8.1-4-11.1s-6.1-4.7-10.5-4.7c-8.5,0-14.4,6.9-14.4,15.8v30.1h-10.7v-55h11Z"/>
    <path class="st1" d="M1082.1,140c-5.7-5.7-8.7-12.5-8.7-20.4s2.8-14.6,8.5-20.2c5.7-5.7,12.3-8.5,20.2-8.5s14.6,2.8,20.2,8.5c5.7,5.7,8.5,12.3,8.5,20.2v4.2h-47.1c.6,4,2.6,7.5,6.5,10.1,3.8,2.8,7.9,4.2,12.3,4.2,6.3,0,12.9-2.8,17.8-8.5l7.9,6.3c-7.1,8.3-15.4,12.3-25.5,12.3-8,.1-14.9-2.7-20.6-8.2h0ZM1120.6,114.9c-1-4.2-3.4-7.5-6.7-9.9-3.4-2.6-7.3-3.8-11.5-3.8-8.7,0-16.2,5.5-18.4,13.8,0,0,36.6,0,36.6,0Z"/>
    <path class="st1" d="M1151.1,92.1v6.3c4.7-5.1,10.5-7.5,17.2-7.5s11.1,2.4,15.6,7.5c4.4,4.9,6.7,11.1,6.7,18.8v30.1h-10.9v-30.3c0-4.4-1.4-8.1-4-11.1-2.6-3-6.1-4.7-10.5-4.7-8.5,0-14.4,6.9-14.4,15.8v30.1h-10.8v-55s11.1,0,11.1,0Z"/>
  </g>
  <g>
    <path class="st0" d="M271.8,70.2h10.2l28.1,72.4h-16.4l-5.3-12.3h-23.3l-5.3,12.3h-16.6l28.6-72.4ZM276.9,96.1l-6.9,21.4h13.8l-6.9-21.4Z"/>
    <path class="st0" d="M332.9,160.9h-15v-71.9h15l.2,6.9c3.8-5.5,8.9-8.1,15.4-8.1s13.1,2.6,18,8.1c5.1,5.5,7.5,11.9,7.5,19.8s-2.4,14.4-7.3,20c-5.1,5.5-11.1,8.3-18.4,8.3s-5.7-.6-8.5-2-5.1-3-6.7-5.5l-.2,24.4h0ZM346.1,102.2c-3.6,0-6.7,1.4-9.3,4-2.4,2.6-3.6,5.7-3.8,9.3v.4c.2,3.6,1.4,6.9,3.8,9.5,2.6,2.6,5.7,4,9.3,4s6.7-1.4,9.1-4c2.6-2.8,3.8-5.9,3.8-9.5s-1.2-6.7-3.8-9.5c-2.6-2.8-5.7-4.2-9.1-4.2Z"/>
    <path class="st0" d="M380.5,117.4c0-8.9,2.6-16,7.9-21.2,5.5-5.5,11.9-8.1,20-8.1s14.2,2.8,19.6,8.5c5.5,5.7,8.1,12.5,8.1,21l-.2,4.4h-40.3c.8,2.8,2.4,5.1,5.1,6.7,2.6,1.6,5.7,2.4,9.3,2.4,5.5,0,10.5-1.6,15.2-5.1l6.5,10.1c-2.6,2.4-5.9,4.2-9.9,5.7-4,1.4-7.9,2.2-11.7,2.2-9.1,0-16.4-2.6-21.6-7.9-5.4-5.4-8-11.7-8-18.7h0ZM396,111.3h25.1c-.6-3-2-5.3-4.2-7.1-2.2-1.8-5.1-2.6-8.3-2.6s-5.9,1-8.3,2.8c-2.6,1.8-4.1,4.1-4.3,6.9h0Z"/>
    <path class="st0" d="M446.2,142.6v-72.6h15.2v72.6h-15.2Z"/>
    <path class="st0" d="M512.3,70h15.2v72.6h-15.2l-.2-7.1c-3,5.5-8.1,8.1-15.4,8.1s-13.1-2.6-18-8.1-7.5-11.9-7.5-19.8,2.4-14.4,7.3-19.8c5.1-5.5,11.1-8.1,18.4-8.1s5.7.6,8.5,1.8c2.8,1.2,4.9,3,6.5,5.3l.4-24.9h0ZM499.4,129.3c3.6,0,6.7-1.4,9.1-4,2.4-2.6,3.8-5.7,3.8-9.3v-.4c-.2-3.6-1.4-6.7-3.8-9.5-2.4-2.6-5.5-4-9.1-4s-6.7,1.4-9.1,4c-2.6,2.6-3.8,5.9-3.8,9.5s1.2,6.7,3.8,9.5c2.4,3,5.5,4.2,9.1,4.2Z"/>
    <path class="st0" d="M537.2,115.7c0-7.7,2.8-14.2,8.1-19.6,5.5-5.5,12.1-8.3,19.8-8.3s14.2,2.8,19.8,8.3c5.5,5.5,8.1,11.9,8.1,19.6s-2.8,14.4-8.1,19.8c-5.5,5.5-12.1,8.3-19.8,8.3s-14.2-2.6-19.8-8.3c-5.4-5.2-8.1-11.9-8.1-19.8ZM552.2,115.7c0,3.6,1.2,6.7,3.8,9.3s5.7,3.8,9.1,3.8,6.7-1.2,9.1-3.8c2.4-2.4,3.8-5.7,3.8-9.3s-1.2-6.7-3.8-9.1c-2.6-2.6-5.7-3.8-9.1-3.8s-6.7,1.2-9.1,3.8c-2.4,2.7-3.8,5.7-3.8,9.1Z"/>
    <path class="st0" d="M599.1,115.7c0-7.7,2.8-14.2,8.1-19.6,5.5-5.5,12.1-8.3,19.8-8.3s14.2,2.8,19.8,8.3c5.5,5.5,8.1,11.9,8.1,19.6s-2.8,14.4-8.1,19.8c-5.5,5.5-12.1,8.3-19.8,8.3s-14.2-2.6-19.8-8.3c-5.2-5.2-8.1-11.9-8.1-19.8ZM614.1,115.7c0,3.6,1.2,6.7,3.8,9.3s5.7,3.8,9.1,3.8,6.7-1.2,9.1-3.8c2.4-2.4,3.8-5.7,3.8-9.3s-1.2-6.7-3.8-9.1c-2.6-2.6-5.7-3.8-9.1-3.8s-6.7,1.2-9.1,3.8-3.8,5.7-3.8,9.1Z"/>
    <path class="st0" d="M697,88.2v15.4c-1.4-.6-3.6-.8-6.1-.8s-6.3,1.2-8.3,3.6-3,5.9-3,10.1v25.9h-15v-53.4h15v8.5c2.8-6.5,7.5-9.7,13.8-9.7s2.4.2,3.6.4h0Z"/>
    <path class="st0" d="M708.1,89h15.2v6.7c4.2-5.3,9.7-8.1,16-8.1s10.5,2,14.6,6.1c4,4,6.1,8.9,6.1,14.6v34.2h-15.2v-28.7c0-2.8-1-5.5-3-7.5s-4.7-3-7.5-3-5.5,1-7.5,3-3,4.7-3,7.5v28.9h-15.2l-.5-53.7h0Z"/>
    <path class="st0" d="M789.9,100.6c-3.6,0-5.7,1.2-5.7,3.6s.6,1.8,1.8,2.6,2.6,1.2,4.4,1.4c6.3.8,11.3,2.8,14.8,6.1,3.4,3.2,5.3,7.3,5.3,11.9s-2,9.3-6.1,12.7c-3.8,3.2-8.9,4.9-15,4.9s-9.1-1.4-13.1-4.2c-3.8-2.6-6.7-6.3-8.5-10.7l11.7-5.5c.8,1.8,2.2,3.4,4,4.9,2,1.4,3.8,2.2,5.9,2.2s3.6-.4,4.9-1.4c1.2-.8,1.8-2,1.8-3.4,0-2.4-2.2-4-6.7-4.7-5.9-1-10.7-3-14.4-6.1-3.6-3-5.7-6.5-5.7-10.5s1.8-8.5,5.7-11.7c3.6-3,8.7-4.7,15.2-4.7s8.3,1,11.7,3.2c3.4,2,6.3,5.3,8.3,9.3l-11.3,5.1c-2.8-3.4-5.8-5-9-5h0Z"/>
    <path class="st0" d="M817.2,117.4c0-8.9,2.6-16,8.1-21.2,5.5-5.5,12.1-8.1,20-8.1s14.2,2.8,19.6,8.5c5.5,5.7,8.1,12.5,8.1,21l-.2,4.4h-40.3c.8,2.8,2.4,5.1,5.1,6.7,2.6,1.6,5.7,2.4,9.1,2.4,5.5,0,10.5-1.6,15.2-5.1l6.5,10.1c-2.6,2.4-5.9,4.2-9.9,5.7-4,1.4-7.9,2.2-11.7,2.2-9.1,0-16.4-2.6-21.6-7.9-5.4-5.4-8-11.7-8-18.7h0ZM832.5,111.3h25.1c-.6-3-2-5.3-4.2-7.1-2.2-1.8-5.1-2.6-8.1-2.6s-5.9,1-8.3,2.8c-2.6,1.8-4.1,4.1-4.5,6.9Z"/>
  </g>
</svg>