<?xml version="1.0" encoding="UTF-8"?>
<svg id="Layer_1" xmlns="http://www.w3.org/2000/svg" version="1.1" viewBox="0 0 477.7 109.1">
  <!-- Generator: Adobe Illustrator 30.3.0, SVG Export Plug-In . SVG Version: 2.1.3 Build 182)  -->
  <defs>
    <style>
      .st0 {
        fill: var(--secondary);
      }

      .st1 {
        fill: var(--primary);
      }

      .st2 {
        fill: #1e3e75;
      }
    </style>
  </defs>
  <g>
    <path class="st2" d="M138.6,36l14.8,38h-8.6l-2.8-6.4h-12.2l-2.8,6.4h-8.6l14.9-38h5.3ZM132.4,60.8h7.2l-3.6-11.2-3.6,11.2Z"/>
    <path class="st2" d="M161.8,53.8c0,1,1.3,1.9,3.2,2.1,6.8.8,10.5,4.6,10.5,9.4s-1.1,4.9-3.2,6.6c-2.1,1.7-4.7,2.6-7.8,2.6s-4.8-.7-6.9-2.2c-2.1-1.4-3.6-3.3-4.5-5.7l6.1-2.8c.8,1.7,3.1,3.7,5.2,3.7s3.4-1.1,3.4-2.5-1.2-2.1-3.5-2.5c-6.2-1-10.5-4.5-10.5-8.7s1-4.5,3-6.1c2-1.6,4.6-2.4,7.9-2.4s8.3,2.2,10.5,6.5l-5.9,2.6c-1.4-1.7-3-2.5-4.7-2.5s-2.9.6-2.9,1.9Z"/>
    <path class="st2" d="M186.2,53.8c0,1,1.3,1.9,3.2,2.1,6.8.8,10.5,4.6,10.5,9.4s-1.1,4.9-3.2,6.6c-2.1,1.7-4.7,2.6-7.8,2.6s-4.8-.7-6.9-2.2c-2.1-1.4-3.6-3.3-4.5-5.7l6.1-2.8c.8,1.7,3.1,3.7,5.2,3.7s3.4-1.1,3.4-2.5-1.2-2.1-3.5-2.5c-6.2-1-10.5-4.5-10.5-8.7s1-4.5,3-6.1c2-1.6,4.6-2.4,7.9-2.4s8.3,2.2,10.5,6.5l-5.9,2.6c-1.4-1.7-3-2.5-4.7-2.5s-2.9.6-2.9,1.9Z"/>
    <path class="st2" d="M206,49.5c2.8-2.8,6.3-4.2,10.4-4.2s7.5,1.5,10.3,4.4c2.8,2.9,4.2,6.6,4.2,11v2.3h-21.2c.8,3,3.9,4.8,7.5,4.8s5.5-.8,7.9-2.6l3.4,5.4c-2.8,2.5-7.4,4.1-11.3,4.1-10.2,0-15.4-7-15.4-13.9s1.4-8.3,4.2-11.1ZM223,57.5c-.6-3.2-3.3-5.1-6.6-5.1s-6.1,2.2-6.6,5.1h13.1Z"/>
    <path class="st2" d="M242.6,45.9v3.6c2.3-2.8,5-4.2,8.4-4.2s5.6,1.1,7.6,3.1c2.1,2.1,3.1,4.6,3.1,7.6v17.9h-8v-15.2c0-3-2.5-5.6-5.6-5.6s-5.6,2.5-5.6,5.6v15.2h-7.9v-28h7.9Z"/>
    <path class="st2" d="M272.9,53.8c0,1,1.3,1.9,3.2,2.1,6.8.8,10.5,4.6,10.5,9.4s-1.1,4.9-3.2,6.6c-2.1,1.7-4.7,2.6-7.8,2.6s-4.8-.7-6.9-2.2c-2.1-1.4-3.6-3.3-4.5-5.7l6.1-2.8c.8,1.7,3.1,3.7,5.2,3.7s3.4-1.1,3.4-2.5-1.2-2.1-3.5-2.5c-6.2-1-10.5-4.5-10.5-8.7s1-4.5,3-6.1c2-1.6,4.6-2.4,7.9-2.4s8.3,2.2,10.5,6.5l-5.9,2.6c-1.4-1.7-3-2.5-4.7-2.5s-2.9.6-2.9,1.9Z"/>
    <path class="st2" d="M292.7,49.5c2.8-2.8,6.3-4.2,10.4-4.2s7.5,1.5,10.3,4.4c2.8,2.9,4.2,6.6,4.2,11v2.3h-21.2c.8,3,3.9,4.8,7.5,4.8s5.5-.8,7.9-2.6l3.4,5.4c-2.8,2.5-7.4,4.1-11.3,4.1-10.2,0-15.4-7-15.4-13.9s1.4-8.3,4.2-11.1ZM309.7,57.5c-.6-3.2-3.3-5.1-6.6-5.1s-6.1,2.2-6.6,5.1h13.1Z"/>
    <path class="st0" d="M343.6,53.9c2.9,1.7,5,5.2,5,8.7s-1.1,5.8-3.3,8.1c-2.2,2.2-4.8,3.3-7.9,3.3h-14.9v-38h14.6c2.9,0,5.4,1,7.5,3.1,2.1,2,3.2,4.5,3.2,7.3s-1.6,6-4.1,7.6ZM327.8,51.3h9.3c1.4,0,2.6-.5,3.7-1.5,1.1-1,1.6-2.2,1.6-3.6s-.5-2.5-1.6-3.6c-1.1-1-2.3-1.5-3.7-1.5h-9.3v10.1ZM327.8,56.6v12h9.4c1.6,0,3.1-.6,4.3-1.7,1.2-1.2,1.9-2.7,1.9-4.3s-.6-3-1.9-4.2c-1.2-1.2-2.7-1.8-4.3-1.8h-9.3Z"/>
    <path class="st0" d="M376.7,49.7v-3.8h5.3v28h-5.3v-3.9c-2.4,3-5.7,4.5-9.7,4.5s-7.4-1.4-10.2-4.3c-2.8-2.9-4.1-6.3-4.1-10.4s1.4-7.5,4.2-10.3c2.8-2.9,6.2-4.3,10.2-4.3s7.3,1.5,9.7,4.5ZM373.8,66.7c1.9-1.7,2.8-3.9,2.9-6.5v-.6c0-2.5-1-4.7-2.9-6.5-1.9-1.7-4-2.6-6.6-2.6s-4.8.9-6.7,2.8c-1.9,1.9-2.8,4-2.8,6.6s.9,4.8,2.8,6.7c1.9,1.9,4.1,2.8,6.7,2.8s4.7-.9,6.6-2.6Z"/>
    <path class="st0" d="M393.8,45.9v3.2c2.4-2.5,5.3-3.8,8.7-3.8s5.6,1.3,7.9,3.8,3.4,5.7,3.4,9.5v15.4h-5.5v-15.4c0-2.3-.7-4.1-2-5.7-1.3-1.5-3.1-2.3-5.3-2.3-4.3,0-7.3,3.5-7.3,8v15.4h-5.5v-28h5.5Z"/>
    <path class="st0" d="M422.5,70.3c-2.9-2.9-4.4-6.4-4.4-10.4s1.4-7.4,4.3-10.3c2.9-2.9,6.3-4.3,10.3-4.3s7.4,1.4,10.3,4.3c2.9,2.9,4.3,6.3,4.3,10.3v2.1h-24c.3,2,1.4,3.8,3.3,5.2s4,2.1,6.3,2.1c3.2,0,6.6-1.5,9-4.3l4,3.2c-3.5,4.2-7.8,6.3-13,6.3s-7.6-1.4-10.5-4.3ZM442.1,57.6c-.5-2.1-1.7-3.8-3.4-5.1-1.7-1.3-3.7-2-5.9-2-4.4,0-8.2,2.8-9.3,7h18.7Z"/>
    <path class="st0" d="M457.6,45.9v3.2c2.4-2.5,5.3-3.8,8.7-3.8s5.6,1.3,7.9,3.8,3.4,5.7,3.4,9.5v15.4h-5.5v-15.4c0-2.3-.7-4.1-2-5.7-1.3-1.5-3.1-2.3-5.3-2.3-4.3,0-7.3,3.5-7.3,8v15.4h-5.5v-28h5.5Z"/>
  </g>
  <path class="st1" d="M54.5,0c-7.3,0-14.4,1.4-21.2,4.3-6.5,2.7-12.3,6.6-17.3,11.7-5.1,5-9,10.8-11.7,17.4C1.4,40.1,0,47.1,0,54.6c0,7.4,1.4,14.5,4.3,21.2,2.7,6.5,6.6,12.3,11.7,17.3,5,5.1,10.8,9,17.3,11.7,6.8,2.9,13.9,4.3,21.2,4.3s14.4-1.4,21.2-4.3c6.4-2.7,12.2-6.6,17.3-11.7,4.9-4.9,8.8-10.7,11.7-17.3,2.9-6.8,4.3-13.9,4.3-21.2s-1.4-14.4-4.3-21.2c-2.8-6.6-6.7-12.4-11.7-17.4-5.1-5.1-10.9-9-17.3-11.7-6.8-2.9-13.9-4.3-21.2-4.3M34.7,7.6c6.3-2.7,12.9-4,19.8-4s13.4,1.4,19.8,4c6.1,2.6,11.5,6.2,16.2,10.9,4.7,4.8,8.4,10.2,10.9,16.2,2.7,6.3,4,12.9,4,19.8,0,6.9-1.3,13.4-4,19.8-2.5,6-6.2,11.4-10.9,16.2-4.7,4.7-10.1,8.3-16.2,10.9-6.3,2.7-12.9,4-19.8,4s-13.5-1.3-19.8-4c-6.2-2.6-11.6-6.2-16.2-10.9-4.7-4.7-8.3-10.1-11-16.2-2.7-6.3-4-12.8-4-19.8s1.3-13.5,4-19.8c2.6-6.1,6.2-11.5,11-16.2,4.6-4.7,10-8.3,16.2-10.9M63.4,23.2c-2.9-1.2-5.9-1.9-9.1-1.9s-6.3.6-9.2,1.9c-2.8,1.2-5.3,2.9-7.5,5.1-2.3,2.3-3.9,4.8-5,7.5-1.2,2.8-1.8,5.8-1.8,9.1,0,5.3,3.6,12.5,10.8,21.7,1.4,1.8,2.8,3.5,4.2,5.1,2,2.3,4,4.5,6.2,6.8l1,1.1c.3.3.7.5,1.2.5s.8-.2,1.2-.5c2.7-2.7,5.1-5.3,7.2-7.8,1.3-1.5,2.8-3.3,4.3-5.2,7.2-9.3,10.8-16.5,10.8-21.7s-.6-6.1-1.9-9.1c-1.2-2.7-2.9-5.2-5-7.5-2.2-2.2-4.7-3.9-7.5-5.1M41.2,43.8c0-3.6,1.3-6.7,3.8-9.2,2.6-2.5,5.7-3.8,9.2-3.8s6.6,1.3,9.2,3.8c2.5,2.6,3.8,5.7,3.8,9.2s-1.3,6.6-3.8,9.2c-2.5,2.5-5.6,3.8-9.2,3.8s-6.8-1.3-9.2-3.8c-2.5-2.5-3.8-5.6-3.8-9.2Z"/>
  <path class="st0" d="M10.9,36.1c-2.5,5.8-3.7,12-3.7,18.4,0,6.4,1.2,12.6,3.7,18.4,2.4,5.6,5.8,10.7,10.2,15.1,4.4,4.4,9.5,7.8,15,10.1,2.3,1,4.7,1.8,7.3,2.4l6.5,1.1c1.2.1,2.7.2,4.5.2h.2l6.5-.5c4.1-.6,8.1-1.7,11.8-3.2,5.5-2.3,10.6-5.7,15.1-10.1,4.3-4.4,7.7-9.4,10.1-15.1,2.5-5.8,3.8-12,3.8-18.4s-1.2-12.5-3.8-18.4c-2.4-5.6-5.8-10.7-10.1-15.1-4.5-4.4-9.5-7.8-15.1-10.2-5.9-2.5-12.1-3.7-18.4-3.7s-12.5,1.2-18.4,3.7c-5.6,2.3-10.6,5.7-15,10.2-4.5,4.5-7.9,9.5-10.2,15.1M37.4,13.9c5.5-2.3,11.2-3.5,17.2-3.5,5.9,0,11.6,1.2,17.1,3.5,5.3,2.3,9.9,5.4,14,9.5,4.1,4.2,7.2,8.9,9.5,14,2.3,5.6,3.5,11.3,3.5,17.2s-1.2,11.5-3.5,17.1c-1.4,3.2-3.2,6.3-5.3,9.2-.6-.4-1.9-1.2-3.7-2.3-6.2-3.4-13.2-5.6-21-6.6-2.5,2.9-5.2,5.9-8.2,8.8-.7.7-1.6,1.1-2.6,1.1s-2-.4-2.7-1.1c-2.6-2.5-5.4-5.5-8.3-8.9-8,1.1-15.1,3.3-21.2,6.6-1.3.7-2.4,1.4-3.2,1.9-2.1-2.9-3.8-5.8-5-8.9-2.3-5.4-3.5-11.1-3.5-17.1,0-6,1.2-11.7,3.5-17.2,2.3-5.3,5.4-10,9.5-14h0c4.1-4.1,8.7-7.3,14-9.5Z"/>
</svg>