<?xml version="1.0" encoding="UTF-8"?>
<svg id="a" xmlns="http://www.w3.org/2000/svg" version="1.1" viewBox="0 0 962.5 222.7">
  <!-- Generator: Adobe Illustrator 29.2.1, SVG Export Plug-In . SVG Version: 2.1.0 Build 116)  -->
  <defs>
    <style>
      .st0 {
        fill: var(--primary);
      }
    </style>
  </defs>
  <path d="M111.2,0C96.3,0,81.8,2.9,67.9,8.8c-13.3,5.5-25.1,13.5-35.3,23.9-10.4,10.1-18.3,22-23.8,35.2C2.9,81.8,0,96.3,0,111.2s2.9,29.6,8.8,43.5c5.5,13.1,13.5,24.9,23.9,35.3,10.2,10.4,22,18.4,35.3,23.9,13.9,5.9,28.4,8.8,43.3,8.8s29.4-2.9,43.3-8.8c13.1-5.5,24.9-13.5,35.3-23.9,10-10,18-21.8,23.9-35.3,5.9-13.9,8.8-28.4,8.8-43.3s-2.9-29.4-8.8-43.3c-5.7-13.5-13.5-25.3-23.7-35.5-10.4-10.4-22.2-18.4-35.3-23.9C140.6,2.8,126.1,0,111.2,0M71,15.7c12.7-5.7,26.3-8.4,40.2-8.4s27.5,2.7,40.4,8.4c12.4,5.3,23.5,12.7,33.1,22.2,9.6,9.8,17.1,20.8,22.2,33.1,5.5,12.9,8.4,26.3,8.4,40.4s-2.7,27.5-8.4,40.4c-5.1,12.2-12.7,23.3-22.2,33.1-9.6,9.6-20.6,16.9-33.1,22.2-12.9,5.5-26.3,8.4-40.4,8.4s-27.5-2.7-40.4-8.4c-12.7-5.3-23.7-12.7-33.1-22.2-9.6-9.6-17.1-20.6-22.2-33.1-5.5-12.9-8.2-26.1-8.2-40.4s2.7-27.5,8.2-40.4c5.3-12.5,12.7-23.5,22.2-33.1,9.6-9.6,20.7-17.1,33.3-22.2M129.4,47.3c-5.9-2.4-12-3.9-18.6-3.9s-12.9,1.5-18.8,3.9c-5.7,2.4-10.8,5.9-15.3,10.2-4.7,4.7-8.2,9.8-10.2,15.3-2.4,5.7-3.9,11.8-3.9,18.8,0,10.8,7.3,25.5,22,44.3,2.9,3.7,5.7,7.1,8.6,10.4,4.1,4.7,8.2,9.4,12.7,13.9l2,2.2c.6.6,1.4,1,2.4,1s1.6-.4,2.4-1c5.5-5.5,10.4-10.8,14.7-15.9,2.7-3.1,5.7-6.5,8.8-10.6,14.7-19,22-33.7,22-44.3s-1.2-12.7-3.9-18.6c-2.4-5.5-5.9-10.6-10.4-15.3-3.7-4.5-8.8-7.9-14.5-10.4M84.1,89.3c0-7.3,2.7-13.7,7.8-18.8,5.3-5.1,11.6-7.8,18.8-7.8s13.5,2.7,18.8,7.8c5.1,5.3,7.8,11.6,7.8,18.8s-2.4,13.5-7.6,18.8c-5.1,5.1-11.4,7.8-18.8,7.8s-13.9-2.7-18.8-7.8c-5.4-5.1-7.8-11.4-8-18.8Z"/>
  <path class="st0" d="M22.2,73.8c-5.1,11.8-7.6,24.5-7.6,37.5s2.4,25.5,7.6,37.5c4.9,11.4,11.8,21.8,20.8,30.8s19.4,15.9,30.6,20.8c4.7,2,9.6,3.7,14.9,4.7l13.3,2.4c2.4.2,5.5.4,9.2.4h.4l13.3-.8c8.4-1.2,16.5-3.5,24.1-6.5,11.4-5.3,21.6-12.2,30.8-21.2,8.8-9,15.7-19.2,20.6-30.8,5.1-11.8,7.8-24.5,7.8-37.5s-2.4-25.5-7.8-37.5c-4.9-11.4-11.8-21.8-20.6-30.8-9.2-9-19.4-15.9-30.8-20.6-12-5.1-24.5-7.6-37.5-7.6s-25.5,2.4-37.5,7.6c-11.6,4.7-21.8,11.6-30.7,20.6-9.2,9.2-16.2,19.6-20.9,31M76.3,28.3c11.2-4.7,22.9-7.1,35.1-7.1s23.9,2.4,35.1,7.1c10.8,4.7,20.2,11,28.6,19.2,8.4,8.6,14.7,18,19.2,28.6,4.7,11.4,7.1,23.3,7.1,34.9s-2.4,23.5-7.1,35.1c-2.9,6.5-6.5,12.9-10.8,18.8-1.2-.8-3.9-2.4-7.6-4.7-12.7-6.5-26.9-11-43.1-13.3-5.1,5.9-10.6,12-16.7,18-1.4,1.4-3.3,2.2-5.3,2.2s-4.1-.8-5.5-2.2c-5.3-5.1-11-11.2-16.9-18.2-16.3,2.2-30.8,6.7-43.3,13.7-2.7,1.4-4.9,2.9-6.3,3.9-4.3-5.9-7.8-11.8-10.4-18-4.7-11-6.9-22.9-6.9-35.1s2.2-23.9,6.9-35.1c4.7-10.8,11-20.4,19.4-28.6h0c8.3-8.1,17.7-14.7,28.5-19.2Z"/>
  <g>
    <g>
      <path class="st0" d="M696.5,110.1c5.7,3.5,9.8,10.4,9.8,17.3s-2.2,11.6-6.5,15.9c-4.3,4.3-9.6,6.5-15.7,6.5h-29.7v-75.4h29.2c5.7,0,10.6,2,14.9,6.1s6.3,8.8,6.3,14.5c-.2,6.2-3.4,12.1-8.3,15.1ZM665.1,105h18.6c2.9,0,5.3-1,7.3-2.9,2.2-2,3.3-4.3,3.3-7.1s-1-5.1-3.3-7.1c-2-2-4.5-3.1-7.3-3.1h-18.6v20.2ZM665.1,115.6v23.9h18.6c3.3,0,6.1-1.2,8.6-3.5,2.4-2.4,3.7-5.3,3.7-8.6s-1.2-5.9-3.9-8.4c-2.4-2.4-5.3-3.7-8.6-3.7l-18.4.3h0Z"/>
      <path class="st0" d="M762,102v-7.6h10.4v55.5h-10.4v-7.8c-4.9,5.9-11.2,9-19.2,9s-14.7-2.9-20.2-8.6c-5.5-5.7-8.2-12.4-8.2-20.6s2.7-14.9,8.4-20.4c5.5-5.7,12.2-8.6,20.2-8.6,7.8.1,14.3,3.2,19,9.1h0ZM756.3,135.7c3.7-3.5,5.5-7.8,5.7-12.9v-1.2c0-5.1-2-9.4-5.7-12.9s-8-5.3-13.1-5.3-9.6,1.8-13.3,5.5-5.5,8-5.5,13.1,1.8,9.6,5.5,13.3,8.2,5.5,13.3,5.5,9.4-1.6,13.1-5.1Z"/>
      <path class="st0" d="M796.1,94.4v6.3c4.7-5.1,10.4-7.6,17.3-7.6s11.2,2.4,15.7,7.6c4.5,4.9,6.9,11.2,6.9,19v30.4h-11v-30.6c0-4.5-1.4-8.2-4.1-11.2-2.7-3.1-6.1-4.7-10.4-4.7-8.6,0-14.5,6.9-14.5,15.9v30.4h-10.8v-55.5h10.9Z"/>
      <path class="st0" d="M853,142.8c-5.7-5.7-8.8-12.7-8.8-20.6s2.9-14.7,8.6-20.4c5.7-5.7,12.4-8.6,20.4-8.6s14.7,2.9,20.4,8.6,8.6,12.4,8.6,20.4v4.3h-47.5c.6,4.1,2.7,7.6,6.5,10.2,3.9,2.9,8,4.3,12.4,4.3,6.3,0,13.1-2.9,18-8.6l8,6.3c-7.1,8.4-15.5,12.4-25.7,12.4s-15.2-2.8-20.9-8.3h0ZM891.8,117.5c-1-4.3-3.3-7.6-6.9-10-3.5-2.7-7.3-3.9-11.6-3.9-8.8,0-16.3,5.5-18.6,13.9-.1,0,37.1,0,37.1,0Z"/>
      <path class="st0" d="M922.6,94.4v6.3c4.7-5.1,10.4-7.6,17.3-7.6s11.2,2.4,15.7,7.6c4.5,4.9,6.9,11.2,6.9,19v30.4h-11v-30.6c0-4.5-1.4-8.2-4.1-11.2-2.7-3.1-6.1-4.7-10.4-4.7-8.6,0-14.5,6.9-14.5,15.9v30.4h-10.8v-55.5h10.9Z"/>
    </g>
    <g>
      <path d="M262,82.8c7.8-7.8,16.9-11.4,28-11.4s20.4,4.3,29,12.7l-11.2,11.2c-5.3-5.3-11.2-8.2-17.8-8.2s-12,2.2-16.7,6.9c-4.5,4.5-6.7,10.2-6.7,16.7s2.2,12,6.9,16.7c4.7,4.7,10.2,6.9,16.5,6.9s10.4-1.6,14.3-4.7v-13.7h-17.5v-13.9h33.6v34.5l-2.2,2c-8,7.8-17.3,11.4-27.8,11.4s-20.2-3.9-27.8-11.6c-7.8-7.8-11.6-17.1-11.6-28-.4-10.4,3.5-19.8,11-27.5h0Z"/>
      <path d="M329.6,120.7c0-8,2.9-14.9,8.6-20.6,5.9-5.7,12.7-8.8,20.8-8.8s15.1,2.9,20.8,8.8c5.7,5.7,8.6,12.7,8.6,20.6s-2.9,15.1-8.6,20.8-12.7,8.6-20.8,8.6-14.9-2.9-20.8-8.6c-5.8-5.7-8.6-12.6-8.6-20.8ZM345.3,120.7c0,3.9,1.4,7.1,4.1,9.8s5.9,4.1,9.6,4.1,6.9-1.4,9.6-4.1,3.9-5.9,3.9-9.8-1.2-7.1-3.9-9.6c-2.7-2.7-5.9-4.1-9.6-4.1s-6.9,1.4-9.6,4.1-4.1,6-4.1,9.6Z"/>
      <path d="M451.4,148.9h-15.9v-7.1c-4.5,5.5-10.2,8.4-16.7,8.4s-11.2-2-15.3-6.3c-4.3-4.3-6.3-9.4-6.3-15.3v-35.8h16.1v30.6c0,3.1,1,5.7,3.3,8,2.2,2,4.9,3.3,8,3.3s5.7-1,8-3.3,3.3-4.9,3.3-8v-30.6h15.9l-.4,56.1h0Z"/>
      <path d="M504.7,72.6h15.9v76.3h-15.9l-.2-7.6c-3.1,5.7-8.4,8.6-16.1,8.6s-13.9-2.9-19-8.6c-5.1-5.7-8-12.7-8-20.8s2.7-15.1,7.8-20.8c5.3-5.7,11.8-8.6,19.4-8.6s5.9.6,9,2c2.9,1.2,5.3,3.1,6.9,5.5v-26h.2ZM491,135c3.7,0,6.9-1.4,9.6-4.1,2.7-2.7,4.1-6.1,4.1-9.8v-.4c-.2-3.9-1.6-7.1-4.1-9.8-2.7-2.7-5.9-4.1-9.6-4.1s-6.9,1.4-9.6,4.3-4.1,6.1-4.1,9.8,1.4,7.1,4.1,10c2.6,2.7,5.7,4.1,9.6,4.1Z"/>
      <path d="M554,104.6c-3.9,0-5.9,1.2-5.9,3.9s.6,1.8,1.8,2.7c1.2.8,2.9,1.4,4.7,1.6,6.7.8,11.8,2.9,15.5,6.3,3.7,3.5,5.5,7.6,5.5,12.7s-2,9.8-6.3,13.3c-4.1,3.5-9.4,5.3-15.7,5.3s-9.6-1.4-13.9-4.3c-4.1-2.9-7.1-6.5-9-11.4l12.2-5.7c.8,1.8,2.2,3.5,4.3,5.1,2,1.6,4.1,2.2,6.1,2.2s3.9-.4,5.1-1.4c1.2-.8,1.8-2,1.8-3.7s-2.2-4.3-6.9-5.1c-6.3-1-11.2-3.1-15.3-6.3-3.9-3.3-5.9-6.9-5.9-11.2s2-9,5.9-12.2c3.9-3.3,9.2-4.9,15.9-4.9s8.6,1,12.2,3.3c3.7,2.2,6.5,5.5,8.8,9.8l-11.8,5.1c-2.5-3.4-5.6-5.1-9.1-5.1h0Z"/>
      <path d="M582.4,122.2c0-9.2,2.9-16.7,8.4-22.2,5.7-5.7,12.7-8.6,21-8.6s14.9,2.9,20.6,8.8c5.7,5.9,8.6,13.3,8.6,22l-.2,4.7h-42.2c.8,3.1,2.4,5.3,5.3,6.9,2.9,1.6,5.9,2.4,9.6,2.4,5.7,0,11-1.6,15.9-5.1l6.7,10.8c-2.9,2.4-6.3,4.5-10.4,5.9-4.1,1.4-8.4,2.2-12.2,2.2-9.6,0-17.1-2.9-22.7-8.4-5.5-5.3-8.4-11.9-8.4-19.4h0ZM598.7,116h26.3c-.6-3.1-2.2-5.5-4.5-7.6-2.4-1.8-5.3-2.7-8.6-2.7s-6.1,1-8.8,2.9c-2.5,2.1-4,4.6-4.4,7.4h0Z"/>
    </g>
  </g>
</svg>