<?xml version="1.0" encoding="utf-8"?>
<!-- Generator: Adobe Illustrator 26.5.2, SVG Export Plug-In . SVG Version: 6.00 Build 0)  -->
<svg version="1.1" id="a" xmlns="http://www.w3.org/2000/svg" xmlns:xlink="http://www.w3.org/1999/xlink" x="0px" y="0px"
	 viewBox="0 0 1190.6 226.8" style="enable-background:new 0 0 1190.6 226.8;" xml:space="preserve">
<style type="text/css">
	.st0{fill: var(--primary);}
	.st1{fill: var(--secondary);}
</style>
<g>
	<path class="st0" d="M107.2,6c-14.4,0-28.4,2.8-41.7,8.5c-12.8,5.3-24.2,13-34.1,23c-10,9.8-17.7,21.3-23,34.1
		C2.7,85-0.1,99-0.1,113.3s2.8,28.6,8.5,41.9c5.3,12.6,13,24,23,34.1c9.8,10,21.3,17.7,34.1,23c13.4,5.7,27.4,8.5,41.7,8.5
		s28.4-2.8,41.7-8.5c12.6-5.3,24-13,34.1-23c9.6-9.6,17.3-21.1,23-34.1c5.7-13.4,8.5-27.4,8.5-41.7s-2.8-28.4-8.5-41.7
		c-5.5-13-13-24.4-22.8-34.3c-10-10-21.5-17.7-34.1-23C135.6,8.7,121.6,6,107.2,6 M68.4,21.1c12.2-5.5,25.4-8.1,38.8-8.1
		s26.6,2.6,39,8.1c12,5.1,22.6,12.2,31.9,21.5c9.3,9.5,16.5,20.1,21.5,31.9c5.3,12.4,8.1,25.4,8.1,39s-2.6,26.6-8.1,39
		c-4.9,11.8-12.2,22.4-21.5,31.9c-9.3,9.3-19.9,16.3-31.9,21.5c-12.4,5.3-25.4,8.1-39,8.1s-26.6-2.6-39-8.1
		c-12.2-5.1-22.8-12.2-31.9-21.5c-9.3-9.3-16.5-19.9-21.5-31.9c-5.3-12.4-7.9-25.2-7.9-39s2.6-26.6,7.9-39
		c5.1-12,12.2-22.6,21.5-31.9S56.2,26.1,68.4,21.1 M124.7,51.7c-5.7-2.4-11.6-3.7-17.9-3.7s-12.4,1.4-18.1,3.7
		c-5.5,2.4-10.4,5.7-14.8,9.8C69.4,66,66,71,64.1,76.3c-2.4,5.5-3.7,11.4-3.7,17.9c0,10.4,7.1,24.6,21.3,42.7
		c2.8,3.5,5.5,6.9,8.3,10c3.9,4.5,7.9,9.1,12.2,13.4l2,2.2c0.6,0.6,1.4,1,2.4,1c0.8,0,1.6-0.4,2.4-1c5.3-5.3,10-10.4,14.2-15.4
		c2.6-3,5.5-6.3,8.5-10.2c14.2-18.3,21.3-32.5,21.3-42.7c0-6.1-1.2-12.2-3.7-17.9c-2.4-5.3-5.7-10.2-10-14.8
		C135.2,57.4,130.2,54,124.7,51.7 M81,92.2c0-7.1,2.6-13.2,7.5-18.1c5.1-4.9,11.2-7.5,18.1-7.5s13,2.6,18.1,7.5
		c4.9,5.1,7.5,11.2,7.5,18.1s-2.4,13-7.3,18.1c-4.9,4.9-11,7.5-18.1,7.5s-13.4-2.6-18.1-7.5C83.6,105.4,81.2,99.3,81,92.2z"/>
	<path class="st1" d="M21.4,77.3c-4.9,11.4-7.3,23.6-7.3,36.2s2.4,24.6,7.3,36.2c4.7,11,11.4,21.1,20.1,29.7
		c8.7,8.7,18.7,15.4,29.5,20.1c4.5,2,9.3,3.5,14.4,4.5l12.8,2.4c2.4,0.2,5.3,0.4,8.9,0.4h0.4l12.8-0.8c8.1-1.2,15.9-3.3,23.2-6.3
		c11-5.1,20.9-11.8,29.7-20.5c8.5-8.7,15.2-18.5,19.9-29.7c4.9-11.4,7.5-23.6,7.5-36.2s-2.4-24.6-7.5-36.2
		c-4.7-11-11.4-21.1-19.9-29.7c-8.9-8.7-18.7-15.4-29.7-19.9c-11.6-4.9-23.6-7.3-36.2-7.3S82.6,22.5,71,27.4
		C60,32,50.1,38.7,41.4,47.3C32.6,56.2,25.9,66.2,21.4,77.3 M73.5,33.3c10.8-4.5,22.1-6.9,33.9-6.9c11.6,0,23,2.4,33.9,6.9
		c10.4,4.5,19.5,10.6,27.6,18.5c8.1,8.3,14.2,17.3,18.5,27.6c4.5,11,6.9,22.4,6.9,33.7s-2.4,22.6-6.9,33.9
		c-2.8,6.3-6.3,12.4-10.4,18.1c-1.2-0.8-3.7-2.4-7.3-4.5c-12.2-6.3-26-10.6-41.5-12.8c-4.9,5.7-10.2,11.6-16.1,17.3
		c-1.4,1.4-3.2,2.2-5.1,2.2c-2.2,0-3.9-0.8-5.3-2.2c-5.1-4.9-10.6-10.8-16.3-17.5c-15.8,2.2-29.7,6.5-41.7,13.2
		c-2.6,1.4-4.7,2.8-6.1,3.7c-4.1-5.7-7.5-11.4-10-17.3c-4.5-10.6-6.7-22.1-6.7-33.9s2.2-23,6.7-33.9C31.8,69,37.9,59.7,46,51.9l0,0
		C54,44,63.1,37.7,73.5,33.3z"/>
	<g>
		<path class="st1" d="M935.2,103.5c5.5,3.3,9.5,10,9.5,16.7c0,5.9-2.2,11.2-6.3,15.4s-9.3,6.3-15.2,6.3h-28.6V69h28
			c5.5,0,10.2,2,14.4,5.9c4.1,3.9,6.1,8.5,6.1,14C943,94.6,939.9,100.3,935.2,103.5z M904.8,98.3h17.9c2.8,0,5.1-1,7.1-2.8
			c2.2-2,3.2-4.1,3.2-6.9s-1-4.9-3.2-6.9c-2-2-4.3-3-7.1-3h-17.9V98.3L904.8,98.3z M904.8,108.6v23h17.9c3.2,0,5.9-1.2,8.3-3.3
			c2.4-2.4,3.5-5.1,3.5-8.3s-1.2-5.7-3.7-8.1c-2.4-2.4-5.1-3.5-8.3-3.5L904.8,108.6L904.8,108.6z"/>
		<path class="st1" d="M998.4,95.4v-7.3h10v53.6h-10v-7.3c-4.7,5.7-10.8,8.7-18.5,8.7s-14.2-2.8-19.5-8.3s-7.9-12-7.9-19.9
			s2.6-14.4,8.1-19.7c5.3-5.5,11.8-8.3,19.5-8.3S993.8,89.7,998.4,95.4L998.4,95.4z M992.8,127.9c3.5-3.3,5.3-7.5,5.5-12.4v-1.2
			c0-4.9-2-9.1-5.5-12.4s-7.7-5.1-12.6-5.1s-9.3,1.8-12.8,5.3s-5.3,7.7-5.3,12.6s1.8,9.3,5.3,12.8c3.5,3.5,7.9,5.3,12.8,5.3
			S989.3,131.2,992.8,127.9L992.8,127.9z"/>
		<path class="st1" d="M1031,88.1v6.1c4.5-4.9,10.2-7.3,16.7-7.3c5.7,0,10.8,2.4,15.2,7.3c4.3,4.7,6.5,10.8,6.5,18.3v29.3h-10.6
			v-29.5c0-4.3-1.4-7.9-3.9-10.8c-2.6-3-5.9-4.5-10.2-4.5c-8.3,0-14,6.7-14,15.4v29.3h-10.4V88.1H1031L1031,88.1z"/>
		<path class="st1" d="M1086.2,134.8c-5.5-5.5-8.5-12.2-8.5-19.9s2.8-14.2,8.3-19.7c5.5-5.5,12-8.3,19.7-8.3s14.2,2.8,19.7,8.3
			s8.3,12,8.3,19.7v4.1h-45.9c0.6,3.9,2.6,7.3,6.3,9.8c3.7,2.8,7.7,4.1,12,4.1c6.1,0,12.6-2.8,17.3-8.3l7.7,6.1
			c-6.9,8.1-15,12-24.8,12C1098.4,142.8,1091.7,140.3,1086.2,134.8L1086.2,134.8z M1123.6,110.4c-1-4.1-3.3-7.3-6.5-9.6
			c-3.3-2.6-7.1-3.7-11.2-3.7c-8.5,0-15.8,5.3-17.9,13.4L1123.6,110.4L1123.6,110.4z"/>
		<path class="st1" d="M1153.1,88.1v6.1c4.5-4.9,10.2-7.3,16.7-7.3c5.7,0,10.8,2.4,15.2,7.3c4.3,4.7,6.5,10.8,6.5,18.3v29.3h-10.6
			v-29.5c0-4.3-1.4-7.9-3.9-10.8s-5.9-4.5-10.2-4.5c-8.3,0-14,6.7-14,15.4v29.3h-10.4V88.1H1153.1L1153.1,88.1z"/>
	</g>
	<g>
		<path class="st0" d="M284.4,98.9V71.5h14.8v70.7h-14.8v-28.6h-31.7v28.6H238V71.5h14.8v27.4C252.7,98.9,284.4,98.9,284.4,98.9z"/>
		<path class="st0" d="M349.2,90.2H364v52.2h-14.8v-6.9c-3,5.3-7.9,7.9-15,7.9s-12.8-2.6-17.7-7.9c-4.9-5.3-7.3-11.6-7.3-19.1
			s2.4-14,7.1-19.3c4.9-5.3,10.8-7.9,18.1-7.9c2.8,0,5.5,0.6,8.3,1.8s4.7,3,6.3,5.1L349.2,90.2L349.2,90.2z M336.6,129.4
			c3.3,0,6.3-1.4,8.9-3.9c2.4-2.6,3.7-5.5,3.7-9.1V116c0-3.5-1.4-6.5-3.7-9.3c-2.6-2.6-5.5-3.9-8.9-3.9c-3.3,0-6.5,1.4-8.9,3.9
			c-2.6,2.6-3.7,5.7-3.7,9.3s1.2,6.5,3.7,9.3C330.1,128.1,333.1,129.4,336.6,129.4z"/>
		<path class="st0" d="M407.3,89.3l0.2,15c-1.4-0.6-3.5-0.8-6.1-0.8c-3.3,0-6.1,1.2-8.1,3.5c-2,2.4-3,5.7-3,9.8V142H376V90.2h14.6
			v8.3c2.8-6.3,7.3-9.5,13.4-9.5C404.9,89.1,406.1,89.1,407.3,89.3z"/>
		<path class="st0" d="M453.8,71.5h14.8v70.7h-14.8l-0.2-6.9c-3,5.3-7.9,7.9-15,7.9s-12.8-2.6-17.5-7.9c-4.9-5.3-7.3-11.6-7.3-19.1
			s2.4-14,7.1-19.3c4.9-5.3,10.8-7.9,17.9-7.9c2.8,0,5.5,0.6,8.3,1.8c2.8,1.2,4.7,3,6.3,5.1L453.8,71.5L453.8,71.5z M441.2,129.4
			c3.5,0,6.5-1.4,8.9-3.9c2.4-2.6,3.7-5.5,3.7-9.1V116c-0.2-3.5-1.4-6.5-3.7-9.3c-2.4-2.6-5.3-3.9-8.9-3.9s-6.5,1.4-8.9,3.9
			c-2.6,2.6-3.7,5.7-3.7,9.3s1.2,6.5,3.7,9.3C434.7,128.1,437.6,129.4,441.2,129.4z"/>
		<path class="st0" d="M478.4,117.6c0-8.7,2.6-15.6,7.7-20.7c5.3-5.3,11.6-7.9,19.5-7.9c7.7,0,13.8,2.8,19.1,8.3s7.9,12.2,7.9,20.3
			l-0.2,4.3h-39.2c0.8,2.8,2.4,4.9,4.9,6.5c2.6,1.6,5.5,2.4,8.9,2.4c5.3,0,10.2-1.6,14.8-4.9l6.3,9.8c-2.6,2.4-5.7,4.1-9.6,5.5
			c-3.9,1.4-7.7,2.2-11.4,2.2c-8.9,0-15.9-2.6-21.1-7.7C480.9,130.6,478.4,124.5,478.4,117.6L478.4,117.6z M493.3,111.7h24.4
			c-0.6-3-2-5.1-4.1-6.9c-2.2-1.8-4.9-2.6-7.9-2.6s-5.7,1-8.1,2.8C495.1,106.8,493.7,109.2,493.3,111.7L493.3,111.7z"/>
		<path class="st0" d="M573.7,89.3v15c-1.4-0.6-3.5-0.8-5.9-0.8c-3.3,0-6.1,1.2-8.1,3.5c-2,2.4-3,5.7-3,9.8V142h-14.6V90.2h14.6v8.3
			c2.8-6.3,7.3-9.5,13.4-9.5C571.3,89.1,572.5,89.1,573.7,89.3L573.7,89.3z"/>
		<path class="st0" d="M617.8,89.1l13.4,27.6l8.5-26.6h15.6l-20.1,52.2h-5.9l-11.4-24.6l-11.4,24.6h-5.9l-20.1-52h15.8l8.5,26.6
			L617.8,89.1L617.8,89.1z"/>
		<path class="st0" d="M671.5,83.6c-2.4,0-4.3-0.8-5.9-2.4c-1.6-1.6-2.4-3.5-2.4-5.9s0.8-4.3,2.4-5.9c1.6-1.6,3.7-2.6,5.9-2.6
			s4.3,0.8,5.9,2.6c1.6,1.8,2.4,3.7,2.4,5.9c0,2.4-0.8,4.3-2.4,5.9C675.9,82.8,673.9,83.6,671.5,83.6z M678.8,142.2H664v-52h14.8
			V142.2z"/>
		<path class="st0" d="M701.5,83.6c-2.4,0-4.3-0.8-5.9-2.4c-1.6-1.6-2.4-3.5-2.4-5.9s0.8-4.3,2.4-5.9c1.6-1.6,3.7-2.6,5.9-2.6
			s4.3,0.8,5.9,2.6c1.6,1.8,2.4,3.7,2.4,5.9c0,2.4-0.8,4.3-2.4,5.9C705.8,82.8,703.8,83.6,701.5,83.6z M708.3,160h-14.6V90.2h14.6
			V160z"/>
		<path class="st0" d="M753.2,90.2h19.5l-25,25.2l26.8,26.8h-19.3l-17.7-17.7v17.7h-14.6V71.5h14.6V107L753.2,90.2z"/>
		<path class="st0" d="M800.3,101.3c-3.5,0-5.5,1.2-5.5,3.5c0,1,0.6,1.8,1.8,2.6c1.2,0.8,2.6,1.2,4.3,1.4c6.1,0.8,11,2.8,14.4,5.9
			c3.3,3.2,5.1,7.1,5.1,11.6c0,4.9-2,9.1-5.9,12.2c-3.7,3.2-8.7,4.7-14.6,4.7c-4.5,0-8.9-1.4-12.8-4.1c-3.7-2.6-6.5-6.1-8.3-10.4
			l11.4-5.3c0.8,1.8,2.2,3.3,3.9,4.7s3.7,2.2,5.7,2.2s3.5-0.4,4.7-1.4c1.2-0.8,1.8-2,1.8-3.3c0-2.4-2.2-3.9-6.5-4.5
			c-5.7-1-10.4-3-14-5.9c-3.5-3-5.5-6.3-5.5-10.2c0-4.5,1.8-8.3,5.5-11.4c3.5-3,8.5-4.5,14.8-4.5c4.1,0,8.1,1,11.4,3.2
			c3.3,2,6.1,5.1,8.1,9.1l-11,4.9C806.4,102.9,803.4,101.3,800.3,101.3L800.3,101.3z"/>
		<path class="st0" d="M826.9,117.6c0-8.7,2.6-15.6,7.9-20.7c5.3-5.3,11.8-7.9,19.5-7.9s13.8,2.8,19.1,8.3s7.9,12.2,7.9,20.3
			L881,122h-39.2c0.8,2.8,2.4,4.9,4.9,6.5c2.6,1.6,5.5,2.4,8.9,2.4c5.3,0,10.2-1.6,14.8-4.9l6.3,9.8c-2.6,2.4-5.7,4.1-9.6,5.5
			c-3.9,1.4-7.7,2.2-11.4,2.2c-8.9,0-15.9-2.6-21.1-7.7C829.4,130.6,826.9,124.5,826.9,117.6L826.9,117.6z M841.8,111.7h24.4
			c-0.6-3-2-5.1-4.1-6.9c-2.2-1.8-4.9-2.6-7.9-2.6s-5.7,1-8.1,2.8C843.6,106.8,842.2,109.2,841.8,111.7z"/>
	</g>
</g>
</svg>
