<?xml version="1.0" encoding="UTF-8"?>
<svg id="a" xmlns="http://www.w3.org/2000/svg" version="1.1" viewBox="0 0 1247.3 220">
  <!-- Generator: Adobe Illustrator 29.2.1, SVG Export Plug-In . SVG Version: 2.1.0 Build 116)  -->
  <defs>
    <style>
      .st0 {
        fill: var(--primary);
      }

      .st1 {
        fill: var(--secondary);
      }
    </style>
  </defs>
  <g>
    <path class="st0" d="M109.9,0c-14.7,0-29,2.8-42.7,8.7-13.1,5.4-24.8,13.3-34.9,23.6-10.3,10.1-18.1,21.8-23.6,34.9C2.8,80.8,0,95.2,0,109.9s2.8,29.2,8.7,43c5.4,12.9,13.3,24.6,23.6,34.9,10.1,10.3,21.8,18.1,34.9,23.6,13.7,5.9,28,8.7,42.7,8.7s29-2.8,42.7-8.7c12.9-5.4,24.6-13.3,34.9-23.6s17.7-21.6,23.6-34.9c5.9-13.7,8.7-28,8.7-42.7s-2.8-29-8.7-42.7c-5.6-13.3-13.3-25-23.4-35.1s-22-18.1-34.9-23.6C138.9,2.8,124.6,0,109.9,0M70.2,15.5c12.5-5.7,26-8.3,39.7-8.3s27.2,2.6,39.9,8.3c12.3,5.2,23.2,12.5,32.7,22,9.5,9.7,16.9,20.6,22,32.7,5.4,12.7,8.3,26,8.3,39.9s-2.6,27.2-8.3,39.9c-5,12.1-12.5,23-22,32.7-9.5,9.5-20.4,16.7-32.7,22-12.7,5.4-26,8.3-39.9,8.3s-27.2-2.6-39.9-8.3c-12.5-5.2-23.4-12.5-32.7-22-9.5-9.5-16.9-20.4-22-32.7-5.4-12.7-8.1-25.8-8.1-39.9s2.6-27.2,8.1-39.9c5.2-12.3,12.5-23.2,22-32.7,9.5-9.5,20.4-16.9,32.9-22M127.8,46.8c-5.8-2.4-11.9-3.8-18.3-3.8s-12.7,1.4-18.5,3.8c-5.7,2.4-10.7,5.8-15.1,10.1-4.6,4.6-8.1,9.7-10.1,15.1-2.4,5.7-3.8,11.7-3.8,18.3,0,10.7,7.3,25.2,21.8,43.8,2.8,3.6,5.7,7.1,8.5,10.3,4,4.6,8.1,9.3,12.5,13.7l2,2.2c.6.6,1.4,1,2.4,1s1.6-.4,2.4-1c5.4-5.4,10.3-10.7,14.5-15.7,2.6-3,5.6-6.4,8.7-10.5,14.5-18.8,21.8-33.3,21.8-43.8s-1.2-12.5-3.8-18.3c-2.4-5.4-5.9-10.5-10.3-15.1-3.8-4.2-8.9-7.7-14.5-10.1M83.1,88.3c0-7.3,2.6-13.5,7.7-18.5,5.2-5,11.5-7.7,18.6-7.7s13.3,2.6,18.6,7.7c5,5.2,7.7,11.5,7.7,18.6s-2.4,13.3-7.5,18.6c-5,5-11.3,7.7-18.6,7.7s-13.7-2.6-18.6-7.7c-5.2-5-7.7-11.3-7.9-18.6Z"/>
    <path class="st1" d="M22,73c-5,11.7-7.5,24.2-7.5,37.1s2.4,25.2,7.5,37.1c4.8,11.3,11.7,21.6,20.6,30.4,8.9,8.9,19.1,15.7,30.2,20.6,4.6,2,9.5,3.6,14.7,4.6l13.1,2.4c2.4.2,5.4.4,9.1.4h.4l13.1-.8c8.3-1.2,16.3-3.4,23.8-6.4,11.3-5.2,21.4-12.1,30.4-21,8.7-8.9,15.5-18.9,20.4-30.4,5-11.7,7.7-24.2,7.7-37.1s-2.4-25.2-7.7-37.1c-4.8-11.3-11.7-21.6-20.4-30.5-9.1-8.9-19.1-15.7-30.4-20.4-11.9-5-24.2-7.5-37.1-7.5s-25.2,2.4-37.1,7.5c-11.3,4.6-21.4,11.5-30.2,20.4-9.1,9.1-15.9,19.4-20.6,30.6M75.4,28c11.1-4.6,22.6-7.1,34.7-7.1s23.6,2.4,34.7,7.1c10.7,4.6,20,10.9,28.2,19,8.3,8.5,14.5,17.7,18.9,28.2,4.6,11.3,7.1,23,7.1,34.5s-2.4,23.2-7.1,34.7c-2.8,6.4-6.4,12.7-10.7,18.6-1.2-.8-3.8-2.4-7.5-4.6-12.5-6.4-26.6-10.9-42.5-13.1-5,5.9-10.5,11.9-16.5,17.7-1.4,1.4-3.2,2.2-5.2,2.2s-4-.8-5.4-2.2c-5.2-5-10.9-11.1-16.7-17.9-16.1,2.2-30.5,6.6-42.7,13.5-2.6,1.4-4.8,2.8-6.2,3.8-4.2-5.9-7.7-11.7-10.3-17.7-4.6-10.9-6.9-22.6-6.9-34.7s2.2-23.6,6.9-34.7c4.6-10.7,10.9-20.2,19.1-28.2h0c8.3-8.1,17.5-14.5,28.2-19h0Z"/>
  </g>
  <g>
    <path class="st1" d="M984.5,107.3c5.7,3.4,9.7,10.3,9.7,17.1s-2.2,11.5-6.5,15.7c-4.2,4.2-9.5,6.4-15.5,6.4h-29.2v-74.6h28.8c5.7,0,10.5,2,14.7,6.1,4.2,4,6.2,8.7,6.2,14.3-.2,6.1-3.4,11.7-8.3,14.9h0ZM953.5,102.2h18.3c2.8,0,5.2-1,7.3-2.8,2.2-2,3.2-4.2,3.2-7.1s-1-5-3.2-7.1c-2-2-4.4-3-7.3-3h-18.3v20h0ZM953.5,112.7v23.6h18.3c3.2,0,6-1.2,8.5-3.4,2.4-2.4,3.6-5.2,3.6-8.5s-1.2-5.8-3.8-8.3c-2.4-2.4-5.2-3.6-8.5-3.6l-18.2.2h0Z"/>
    <path class="st1" d="M1049.2,99.2v-7.5h10.5v54.8h-10.5v-7.7c-4.8,5.9-11.1,8.9-18.9,8.9s-14.5-2.8-20-8.5-8.1-12.3-8.1-20.4,2.6-14.7,8.3-20.2c5.4-5.7,12.1-8.5,20-8.5s14.1,3,18.8,8.9h0ZM1043.8,132.3c3.6-3.4,5.4-7.7,5.7-12.7v-1.2c0-5-2-9.3-5.7-12.7s-7.9-5.2-12.9-5.2-9.5,1.8-13.1,5.4c-3.6,3.6-5.4,7.9-5.4,12.9s1.8,9.5,5.4,13.1c3.6,3.6,8.1,5.4,13.1,5.4,5,.2,9.1-1.4,12.9-5h0Z"/>
    <path class="st1" d="M1082.9,91.7v6.2c4.6-5,10.5-7.5,17.1-7.5s11.1,2.4,15.5,7.5c4.4,4.8,6.7,11.1,6.7,18.8v30h-10.9v-30.2c0-4.4-1.4-8.1-4-11.1-2.6-3-6.1-4.6-10.5-4.6-8.5,0-14.3,6.9-14.3,15.7v30h-10.7v-54.8h11.1,0Z"/>
    <path class="st1" d="M1139.2,139.5c-5.7-5.6-8.7-12.5-8.7-20.4s2.8-14.5,8.5-20.2c5.7-5.6,12.3-8.5,20.2-8.5s14.5,2.8,20.2,8.5,8.5,12.3,8.5,20.2v4.2h-47c.6,4,2.6,7.5,6.4,10.1,3.8,2.8,7.9,4.2,12.3,4.2s12.9-2.8,17.7-8.5l7.9,6.2c-7.1,8.3-15.3,12.3-25.4,12.3s-14.9-2.8-20.6-8.3h0ZM1177.5,114.5c-1-4.2-3.4-7.5-6.7-9.9-3.4-2.6-7.3-3.8-11.5-3.8-8.7,0-16.1,5.4-18.3,13.7h36.5Z"/>
    <path class="st1" d="M1207.9,91.7v6.2c4.6-5,10.5-7.5,17.1-7.5s11.1,2.4,15.5,7.5c4.4,4.8,6.7,11.1,6.7,18.8v30h-10.9v-30.2c0-4.4-1.4-8.1-4-11.1s-6.1-4.6-10.5-4.6c-8.5,0-14.3,6.9-14.3,15.7v30h-10.7v-54.8h11.1,0Z"/>
  </g>
  <g>
    <path class="st0" d="M301.2,99.4v-29.2h15.7v75.4h-15.7v-30.4h-33.7v30.4h-15.7v-75.4h15.7v29.2h33.7Z"/>
    <path class="st0" d="M327.2,117.8c0-7.9,2.8-14.7,8.5-20.4s12.5-8.7,20.6-8.7,14.9,2.8,20.6,8.7c5.6,5.7,8.5,12.5,8.5,20.4s-2.8,14.9-8.5,20.6c-5.6,5.6-12.5,8.5-20.6,8.5s-14.7-2.8-20.6-8.5c-5.6-5.6-8.5-12.5-8.5-20.6ZM342.8,117.8c0,3.8,1.4,7.1,4,9.7s5.9,4,9.5,4,6.9-1.4,9.5-4c2.6-2.6,3.8-5.8,3.8-9.7s-1.2-7.1-3.8-9.5c-2.6-2.6-5.9-4-9.5-4s-6.9,1.4-9.5,4-4,5.8-4,9.5Z"/>
    <path class="st0" d="M391.3,117.8c0-7.9,2.8-14.7,8.5-20.4s12.5-8.7,20.6-8.7,14.9,2.8,20.6,8.7c5.6,5.7,8.5,12.5,8.5,20.4s-2.8,14.9-8.5,20.6c-5.6,5.6-12.5,8.5-20.6,8.5s-14.7-2.8-20.6-8.5c-5.6-5.6-8.5-12.5-8.5-20.6ZM406.9,117.8c0,3.8,1.4,7.1,4,9.7s5.9,4,9.5,4,6.9-1.4,9.5-4c2.6-2.6,3.8-5.8,3.8-9.7s-1.2-7.1-3.8-9.5c-2.6-2.6-5.9-4-9.5-4s-6.9,1.4-9.5,4-4,5.8-4,9.5Z"/>
    <path class="st0" d="M464.7,103.2h-10.1v-13.1h10.1v-5.4c0-6.2,2.2-11.5,6.5-15.7,4.2-4.4,9.7-6.5,15.7-6.5s7.7,1.2,11.3,3.4c3.4,2.2,6.2,5.2,8.5,9.1l-12.3,7.1c-1.8-3.6-4.2-5.4-7.7-5.4s-3.4.6-4.8,2-2,3-2,4.8v6.7h21v13.1h-21v42.3h-15.5v-42.3h.4Z"/>
    <path class="st0" d="M548.4,70.2h15.7v75.4h-15.7v-7.5c-3,5.6-8.3,8.5-15.9,8.5s-13.7-2.8-18.8-8.5c-5.2-5.6-7.9-12.5-7.9-20.6s2.6-14.9,7.7-20.6c5.2-5.7,11.5-8.5,19.2-8.5s6,.6,8.9,2c2.8,1.2,5,3,6.9,5.4v-25.8h0ZM534.9,131.9c3.6,0,6.9-1.4,9.5-4s4-6.1,4-9.7v-.4c-.2-3.8-1.6-7.1-4-9.7-2.6-2.6-5.8-4-9.5-4s-6.9,1.4-9.5,4.2-4,6.1-4,9.7,1.4,7.1,4,9.9c2.6,2.6,5.7,4,9.5,4Z"/>
    <path class="st0" d="M616.8,70.2h15.7v75.4h-15.7v-7.5c-3,5.6-8.3,8.5-15.9,8.5s-13.7-2.8-18.8-8.5c-5.2-5.6-7.9-12.5-7.9-20.6s2.6-14.9,7.7-20.6c5.2-5.7,11.7-8.5,19.2-8.5s6,.6,8.9,2c2.8,1.2,5,3,6.9,5.4v-25.8h0ZM603.3,131.9c3.6,0,6.9-1.4,9.5-4s4-6.1,4-9.7v-.4c-.2-3.8-1.6-7.1-4-9.7-2.6-2.6-5.8-4-9.5-4s-6.9,1.4-9.5,4.2-4,6.1-4,9.7,1.4,7.1,4,9.9c2.6,2.6,5.8,4,9.5,4Z"/>
    <path class="st0" d="M642.4,117.8c0-7.9,2.8-14.7,8.5-20.4,5.8-5.7,12.5-8.7,20.6-8.7s14.9,2.8,20.6,8.7c5.7,5.7,8.5,12.5,8.5,20.4s-2.8,14.9-8.5,20.6c-5.7,5.6-12.5,8.5-20.6,8.5s-14.7-2.8-20.6-8.5c-5.7-5.6-8.5-12.5-8.5-20.6ZM657.9,117.8c0,3.8,1.4,7.1,4,9.7s5.8,4,9.5,4,6.9-1.4,9.5-4c2.6-2.6,3.8-5.8,3.8-9.7s-1.2-7.1-3.8-9.5c-2.6-2.6-5.8-4-9.5-4s-6.9,1.4-9.5,4c-2.8,2.6-4,5.8-4,9.5Z"/>
    <path class="st0" d="M743.8,89.1v15.9c-1.6-.6-3.6-.8-6.5-.8s-6.5,1.2-8.7,3.8c-2,2.6-3.2,6.1-3.2,10.5v27h-15.5v-55.7h15.5v8.9c3-6.7,7.7-10.1,14.3-10.1s2.6.2,4,.4h0Z"/>
    <path class="st0" d="M770.6,164.5h-15.5v-74.4h15.5v7.1c4-5.7,9.3-8.5,15.9-8.5s13.7,2.8,18.8,8.5c5.2,5.7,7.9,12.5,7.9,20.6s-2.6,14.9-7.7,20.8c-5.2,5.6-11.7,8.5-19.2,8.5s-5.8-.6-8.9-2-5.2-3.2-6.9-5.6v25.2h0ZM784.1,103.6c-3.6,0-6.9,1.4-9.5,4-2.4,2.6-3.8,5.8-4,9.7v.4c.2,3.8,1.4,7.1,4,9.7,2.6,2.8,5.8,4,9.5,4s6.9-1.4,9.5-4c2.6-2.8,4-6.2,4-9.9s-1.4-7.1-4-9.9c-2.6-2.6-5.8-4-9.5-4h0Z"/>
    <path class="st0" d="M842.8,101.8c-3.8,0-5.8,1.2-5.8,3.8s.6,1.8,1.8,2.6c1.2.8,2.8,1.4,4.6,1.6,6.7.8,11.7,2.8,15.3,6.2s5.4,7.5,5.4,12.5-2,9.7-6.2,13.1c-4,3.4-9.3,5.2-15.5,5.2s-9.5-1.4-13.7-4.2c-4-2.8-7.1-6.4-8.9-11.3l12.1-5.7c.8,1.8,2.2,3.4,4.2,5s4,2.2,6,2.2,3.8-.4,5-1.4c1.2-.8,1.8-2,1.8-3.6,0-2.4-2.2-4.2-6.9-5-6.2-1-11.1-3-15.1-6.2-3.8-3.2-5.8-6.9-5.8-11.1s2-8.9,5.8-12.1,9.1-4.8,15.7-4.8,8.5,1,12.1,3.2,6.5,5.4,8.7,9.7l-11.7,5c-2.6-3.2-5.8-4.8-9.1-4.8h0Z"/>
    <path class="st0" d="M870.8,119.2c0-9.1,2.8-16.5,8.3-22,5.7-5.7,12.5-8.5,20.8-8.5s14.7,2.8,20.4,8.7c5.7,5.8,8.5,13.1,8.5,21.8l-.2,4.6h-41.7c.8,3,2.4,5.2,5.2,6.9s5.8,2.4,9.5,2.4c5.7,0,10.9-1.6,15.7-5l6.7,10.7c-2.8,2.4-6.2,4.4-10.3,5.9s-8.3,2.2-12.1,2.2c-9.5,0-16.9-2.8-22.4-8.3-5.7-5.4-8.3-11.9-8.3-19.4h0ZM886.7,113.1h26c-.6-3-2.2-5.4-4.4-7.5-2.4-1.8-5.2-2.6-8.5-2.6s-6,1-8.7,2.8-4,4.2-4.4,7.3h0Z"/>
  </g>
</svg>