<?xml version="1.0" encoding="utf-8"?>
<!-- Generator: Adobe Illustrator 26.5.2, SVG Export Plug-In . SVG Version: 6.00 Build 0)  -->
<svg version="1.1" id="a" xmlns="http://www.w3.org/2000/svg" xmlns:xlink="http://www.w3.org/1999/xlink" x="0px" y="0px"
	 viewBox="0 0 1247.8 216.6" style="enable-background:new 0 0 1247.8 216.6;" xml:space="preserve">
<style type="text/css">
	.st0{fill: var(--primary);}
	.st1{fill: var(--secondary);}
</style>
<path class="st0" d="M108.3,0C93.8,0,79.7,2.8,66.1,8.5c-12.9,5.4-24.4,13.1-34.4,23.2C21.6,41.7,13.9,53.2,8.5,66.1
	C2.8,79.5,0,93.6,0,108.3s2.8,28.8,8.5,42.1c5.4,12.9,13.1,24.4,23.2,34.4c9.9,10.1,21.5,17.9,34.4,23.2c13.5,5.8,27.6,8.5,42.1,8.5
	s28.6-2.8,42.1-8.5c12.7-5.6,24.2-13.3,34.4-23.2c9.7-9.7,17.5-21.3,23.2-34.4c5.8-13.5,8.5-27.6,8.5-42.1s-2.8-28.6-8.5-42.1
	c-5.6-12.9-13.3-24.4-23.2-34.4c-10.1-10.1-21.6-17.9-34.4-23.2C136.9,2.8,122.8,0,108.3,0 M68.9,15.1c12.5-5.4,25.6-7.9,39.3-7.9
	s26.6,2.6,39.1,7.9c12.1,5.2,22.9,12.3,32.2,21.6c9.3,9.5,16.7,20.3,21.6,32.2c5.4,12.5,7.9,25.6,7.9,39.3s-2.6,26.6-7.9,39.1
	c-5,11.9-12.3,22.6-21.6,32.2c-9.3,9.3-20.1,16.5-32.2,21.6c-12.5,5.4-25.6,7.9-39.1,7.9s-26.8-2.6-39.3-7.9
	c-12.3-5.2-23-12.3-32.2-21.6c-9.3-9.3-16.5-20.1-21.6-32.2c-5.4-12.5-7.9-25.4-7.9-39.1s2.6-26.8,7.9-39.3
	c5.2-12.1,12.3-22.8,21.6-32.2C46.1,27.4,56.8,20.3,68.9,15.1 M125.8,46.1c-5.8-2.4-11.7-3.6-18.1-3.6s-12.5,1.2-18.3,3.6
	c-5.6,2.4-10.5,5.8-14.7,9.9c-4.6,4.6-7.8,9.5-9.9,14.9c-2.4,5.6-3.6,11.5-3.6,18.1c0,10.5,7.2,24.8,21.5,43.1
	c2.8,3.6,5.6,6.9,8.3,10.1c4,4.6,7.9,8.9,12.3,13.3l2,2c0.6,0.6,1.4,1,2.4,1c0.8,0,1.6-0.4,2.4-1c5.4-5.4,10.1-10.5,14.3-15.3
	c2.6-3,5.6-6.4,8.5-10.1c14.3-18.5,21.5-32.8,21.5-43.1c0-6.2-1.2-12.1-3.8-18.1c-2.4-5.4-5.8-10.3-9.9-14.9
	C136.3,51.9,131.3,48.5,125.8,46.1 M81.8,87c0-7.2,2.6-13.3,7.6-18.3c5.2-5,11.3-7.5,18.3-7.5s13.1,2.6,18.3,7.5
	c5,5.2,7.6,11.3,7.6,18.3s-2.6,13.1-7.6,18.3c-5,5-11.1,7.6-18.3,7.6s-13.3-2.6-18.3-7.6C84.4,100.1,81.8,94.2,81.8,87z"/>
<path class="st1" d="M21.6,71.7c-5,11.5-7.4,23.8-7.4,36.6s2.4,25,7.4,36.6c4.8,11.1,11.5,21.1,20.3,29.8s18.7,15.5,29.8,20.1
	c4.6,2,9.3,3.6,14.5,4.6l12.7,2.2c2.4,0.2,5.2,0.4,8.7,0.4h0.4l12.9-0.8c8.1-1.2,16.1-3.2,23.4-6.4c10.9-4.6,20.9-11.3,29.8-20.1
	c8.5-8.7,15.3-18.7,20.1-29.8c5-11.5,7.4-23.8,7.4-36.6s-2-24.8-6.9-36.6c-4.8-11.1-11.5-21.3-20.1-30c-8.9-8.7-18.9-15.5-29.8-20.1
	c-11.7-5-24-7.4-36.6-7.4s-24.8,2.4-36.6,7.4C60.6,26.2,50.6,33,41.9,41.7C33,50.7,26.2,60.6,21.6,71.7 M74.3,27.6
	c10.9-4.6,22.2-6.9,34-6.9s23.1,2.4,34,7c10.5,4.6,19.7,10.7,27.8,18.7c8.1,8.3,14.3,17.5,18.7,27.8c4.6,11.1,6.9,22.5,6.9,34
	s-2.2,23-6.8,34.2c-2.8,6.4-6.4,12.5-10.5,18.3c-1.2-0.8-3.8-2.4-7.4-4.6c-12.3-6.6-26.2-10.9-41.9-12.9c-5,5.8-10.3,11.7-16.3,17.5
	c-1.4,1.4-3.2,2.2-5.2,2.2c-2.2,0-3.8-0.8-5.2-2.2c-5.2-5-10.7-10.9-16.5-17.7c-15.9,2.2-30,6.6-42.1,13.1c-2.6,1.4-4.8,2.8-6.2,3.8
	c-4.2-5.8-7.5-11.5-9.9-17.5c-4.6-10.7-6.8-22.1-6.8-34s2.2-23.2,6.8-34c4.6-10.5,10.7-19.9,18.9-27.8l0,0
	C54.4,38.3,63.8,32,74.3,27.6L74.3,27.6z"/>
<g>
	<path class="st1" d="M989.2,105.7c5.6,3.2,9.5,10.1,9.5,16.7c0,6-2.2,11.3-6.4,15.5c-4.2,4.2-9.3,6.4-15.3,6.4h-28.8V70.7h28.2
		c5.6,0,10.3,2,14.5,6s6.2,8.5,6.2,14.1C997.1,96.8,993.9,102.5,989.2,105.7L989.2,105.7z M958.6,100.7h18.1c2.8,0,5.2-1,7.2-2.8
		c2.2-2,3.2-4.2,3.2-6.8s-1-5-3.2-6.8c-2-2-4.4-3-7.2-3h-18.1V100.7L958.6,100.7L958.6,100.7z M958.6,110.8v23.2h18.1
		c3.2,0,6-1.2,8.3-3.4c2.4-2.4,3.6-5.2,3.6-8.3s-1.2-5.8-3.6-8.2c-2.4-2.4-5.2-3.4-8.3-3.4L958.6,110.8L958.6,110.8z"/>
	<path class="st1" d="M1052.9,97.6v-7.3h10.1v54h-10.1v-7.6c-4.8,5.8-10.9,8.7-18.7,8.7s-14.3-2.8-19.7-8.3c-5.4-5.6-8-12.1-8-20.1
		s2.6-14.5,8.2-19.9c5.4-5.6,11.9-8.3,19.7-8.3C1042,89,1048.4,92,1052.9,97.6L1052.9,97.6z M1047.4,130.3c3.6-3.4,5.4-7.6,5.6-12.5
		v-1.2c0-5-2-9.1-5.6-12.5s-7.8-5.2-12.7-5.2s-9.3,1.8-12.9,5.4s-5.4,7.8-5.4,12.7s1.8,9.3,5.4,12.9s8,5.4,12.9,5.4
		C1039.6,135.5,1043.8,133.7,1047.4,130.3L1047.4,130.3z"/>
	<path class="st1" d="M1085.9,90.2v6.2c4.6-5,10.1-7.3,16.9-7.3c5.8,0,10.9,2.4,15.3,7.3c4.4,4.8,6.6,10.9,6.6,18.5v29.6H1114v-29.8
		c0-4.4-1.4-7.9-4-10.9s-6-4.6-10.1-4.6c-8.3,0-14.1,6.8-14.1,15.5v29.6h-10.5v-54L1085.9,90.2L1085.9,90.2z"/>
	<path class="st1" d="M1141.4,137.3c-5.6-5.6-8.5-12.3-8.5-20.1s2.8-14.3,8.3-19.9c5.6-5.6,12.1-8.3,19.9-8.3s14.3,2.8,19.9,8.3
		c5.6,5.6,8.3,12.1,8.3,19.9v4.2h-46.3c0.6,4,2.6,7.3,6.4,9.9c3.8,2.8,7.8,4.2,12.1,4.2c6.2,0,12.7-2.8,17.5-8.3l7.8,6.2
		c-6.8,8.1-15.1,12.1-25,12.1C1153.7,145.6,1147.1,142.8,1141.4,137.3L1141.4,137.3L1141.4,137.3z M1179.1,112.8
		c-1-4.2-3.2-7.3-6.6-9.7c-3.4-2.6-7.2-3.8-11.3-3.8c-8.5,0-15.9,5.4-18.1,13.5L1179.1,112.8L1179.1,112.8z"/>
	<path class="st1" d="M1209.1,90.2v6.2c4.6-5,10.1-7.3,16.9-7.3c5.8,0,10.9,2.4,15.3,7.3c4.4,4.8,6.6,10.9,6.6,18.5v29.6h-10.7
		v-29.8c0-4.4-1.4-7.9-4-10.9s-6-4.6-10.1-4.6c-8.3,0-14.1,6.8-14.1,15.5v29.6h-10.5v-54L1209.1,90.2L1209.1,90.2z"/>
</g>
<g>
	<path class="st0" d="M254.3,78.9c7.3-7.3,16.5-11.1,27.2-11.1s19.5,3.8,27,11.3s11.3,16.7,11.3,27s-3.8,19.5-11.3,27
		c-7.5,7.6-16.7,11.3-27,11.3s-19.5-3.8-27-11.3s-11.3-16.5-11.3-27S246.9,86.6,254.3,78.9L254.3,78.9L254.3,78.9z M281.5,129.1
		c6.4,0,11.7-2.2,16.3-6.8c4.6-4.6,6.8-10.1,6.8-16.3s-2.2-11.7-6.8-16.3c-4.6-4.6-9.9-6.8-16.3-6.8s-11.7,2.2-16.3,6.8
		c-4.4,4.4-6.6,9.7-6.6,16.3s2.2,11.7,6.8,16.3C269.8,127,275.1,129.1,281.5,129.1L281.5,129.1L281.5,129.1z"/>
	<path class="st0" d="M325.2,116c0-7.8,2.8-14.5,8.3-20.1s12.3-8.5,20.3-8.5s14.5,2.8,20.3,8.5c5.6,5.6,8.3,12.3,8.3,20.1
		s-2.8,14.7-8.3,20.3s-12.3,8.3-20.3,8.3s-14.5-2.8-20.3-8.3C328,130.7,325.2,124,325.2,116z M340.5,116c0,3.8,1.4,6.9,4,9.5
		c2.6,2.6,5.8,4,9.3,4s6.8-1.4,9.3-4c2.6-2.6,3.8-5.8,3.8-9.5s-1.2-6.9-3.8-9.3c-2.6-2.6-5.8-4-9.3-4s-6.8,1.4-9.3,4
		C341.7,109.1,340.5,112.2,340.5,116z"/>
	<path class="st0" d="M411.2,100.1c-3.8,0-5.8,1.2-5.8,3.8c0,1,0.6,1.8,1.8,2.6s2.6,1.2,4.6,1.6c6.6,0.8,11.5,2.8,15.1,6.2
		c3.6,3.4,5.4,7.3,5.4,12.3c0,5-2,9.5-6.2,12.9c-4,3.4-9.1,5-15.3,5c-4.8,0-9.3-1.4-13.5-4.2c-4-2.8-7-6.4-8.7-11.1l11.9-5.6
		c0.8,1.8,2.2,3.4,4.2,5c2,1.4,4,2.2,6,2.2s3.8-0.4,5-1.4c1.2-0.8,1.8-2,1.8-3.6c0-2.4-2.2-4.2-6.8-4.8c-6.2-1-10.9-3-14.7-6.2
		s-5.8-6.8-5.8-10.9c0-4.8,2-8.7,5.8-11.9s8.9-4.8,15.5-4.8c4.4,0,8.3,1,11.9,3.2s6.4,5.4,8.5,9.5l-11.5,5
		C417.6,101.9,414.6,100.1,411.2,100.1L411.2,100.1z"/>
	<path class="st0" d="M463.5,88.6h11.3v15.3h-11.3v39.3H448v-39.3h-10.3V88.6H448V70.9h15.5V88.6z"/>
	<path class="st0" d="M480.4,117.4c0-8.9,2.8-16.3,8.1-21.7c5.6-5.6,12.3-8.3,20.5-8.3c8.1,0,14.5,2.8,20.1,8.5
		c5.6,5.8,8.3,12.9,8.3,21.5l-0.2,4.6h-41.1c0.8,3,2.4,5.2,5.2,6.7c2.8,1.6,5.8,2.4,9.3,2.4c5.6,0,10.7-1.6,15.5-5l6.6,10.5
		c-2.6,2.4-6.2,4.4-10.1,5.8c-4,1.4-8.2,2.2-11.9,2.2c-9.3,0-16.7-2.8-22-8.1C483,131.1,480.4,124.8,480.4,117.4L480.4,117.4
		L480.4,117.4z M496.1,111.2h25.6c-0.6-3-2.2-5.4-4.4-7.2c-2.4-1.8-5.2-2.6-8.3-2.6s-6,1-8.5,2.8
		C497.9,106.1,496.5,108.5,496.1,111.2L496.1,111.2L496.1,111.2z"/>
	<path class="st0" d="M580.1,87.8v15.7c-1.6-0.6-3.6-0.8-6.4-0.8c-3.6,0-6.4,1.2-8.5,3.8c-2,2.6-3.2,6-3.2,10.3v26.6h-15.3V88.6H562
		v8.7c3-6.6,7.5-9.9,14.1-9.9C577.5,87.4,578.9,87.4,580.1,87.8z"/>
	<path class="st0" d="M591.2,143.4V69.1h15.5v25.6c1.6-2.2,4-4,6.8-5.4c2.8-1.2,5.8-2,8.7-2c7.8,0,13.7,2.6,18.1,7.9
		c4.4,5.2,6.6,12.1,6.6,20.7v27.4h-15.5V116c0-3.8-1.2-6.9-3.4-9.5c-2.4-2.6-5.2-3.8-8.7-3.8s-6.6,1.2-8.9,3.8
		c-2.4,2.6-3.6,5.8-3.6,9.3v27.4L591.2,143.4L591.2,143.4L591.2,143.4z"/>
	<path class="st0" d="M654.2,116c0-7.8,2.8-14.5,8.3-20.1c5.6-5.6,12.3-8.5,20.3-8.5s14.5,2.8,20.3,8.5c5.6,5.6,8.3,12.3,8.3,20.1
		s-2.8,14.7-8.3,20.3s-12.3,8.3-20.3,8.3s-14.5-2.8-20.3-8.3C657,130.7,654.2,124,654.2,116z M669.5,116c0,3.8,1.4,6.9,4,9.5
		c2.6,2.6,5.8,4,9.3,4s6.8-1.4,9.3-4c2.6-2.6,3.8-5.8,3.8-9.5s-1.2-6.9-3.8-9.3c-2.6-2.6-5.8-4-9.3-4s-6.8,1.4-9.3,4
		C670.7,109.1,669.5,112.2,669.5,116z"/>
	<path class="st0" d="M772.6,143.4h-15.5v-6.9c-4.4,5.4-9.9,8.1-16.3,8.1c-5.8,0-10.9-2-14.9-6.2s-6.2-8.9-6.2-14.9v-35h15.7v29.6
		c0,3,1,5.6,3.2,7.8c2.2,2,4.8,3.2,7.8,3.2s5.6-1,7.8-3.2s3.2-4.8,3.2-7.8V88.6h15.5L772.6,143.4L772.6,143.4L772.6,143.4z"/>
	<path class="st0" d="M807.4,88.6h11.3v15.3h-11.3v39.3h-15.5v-39.3h-10.3V88.6h10.3V70.9h15.5V88.6z"/>
	<path class="st0" d="M846.7,100.1c-3.8,0-5.8,1.2-5.8,3.8c0,1,0.6,1.8,1.8,2.6s2.6,1.2,4.6,1.6c6.6,0.8,11.5,2.8,15.1,6.2
		c3.6,3.4,5.4,7.3,5.4,12.3c0,5-2,9.5-6.2,12.9c-4,3.4-9.1,5-15.3,5c-4.8,0-9.3-1.4-13.5-4.2c-4-2.8-7-6.4-8.7-11.1l11.9-5.6
		c0.8,1.8,2.2,3.4,4.2,5c2,1.6,4,2.2,6,2.2s3.8-0.4,5-1.4c1.2-0.8,1.8-2,1.8-3.6c0-2.4-2.2-4.2-6.8-4.8c-6.2-1-10.9-3-14.7-6.2
		s-5.8-6.8-5.8-10.9c0-4.8,2-8.7,5.8-11.9s8.9-4.8,15.5-4.8c4.4,0,8.3,1,11.9,3.2s6.4,5.4,8.5,9.5l-11.5,5
		C853.1,101.9,850.1,100.1,846.7,100.1L846.7,100.1L846.7,100.1z"/>
	<path class="st0" d="M874.3,117.4c0-8.9,2.8-16.3,8.2-21.7c5.6-5.6,12.3-8.3,20.5-8.3s14.5,2.8,20.1,8.5c5.6,5.8,8.3,12.9,8.3,21.5
		l-0.2,4.6h-41.1c0.8,3,2.4,5.2,5.2,6.7c2.6,1.6,5.8,2.4,9.3,2.4c5.6,0,10.7-1.6,15.5-5l6.6,10.5c-2.8,2.4-6.2,4.4-10.1,5.8
		c-4,1.4-8.2,2.2-11.9,2.2c-9.3,0-16.7-2.8-22-8.1C877.2,131.1,874.4,124.8,874.3,117.4L874.3,117.4L874.3,117.4z M890,111.2h25.6
		c-0.6-3-2.2-5.4-4.4-7.2c-2.4-1.8-5.2-2.6-8.3-2.6s-6,1-8.5,2.8C892,106.1,890.5,108.5,890,111.2L890,111.2L890,111.2z"/>
</g>
</svg>
