<?xml version="1.0" encoding="utf-8"?>
<!-- Generator: Adobe Illustrator 26.5.2, SVG Export Plug-In . SVG Version: 6.00 Build 0)  -->
<svg version="1.1" id="a" xmlns="http://www.w3.org/2000/svg" xmlns:xlink="http://www.w3.org/1999/xlink" x="0px" y="0px"
	 viewBox="0 0 1020.5 215.3" style="enable-background:new 0 0 1020.5 215.3;" xml:space="preserve">
<style type="text/css">
	.st0{fill: var(--primary);}
	.st1{fill: var(--secondary);}
</style>
<g>
	<path class="st0" d="M107.6,0C93.1,0,79.1,2.8,65.7,8.5c-12.8,5.3-24.3,13-34.1,23.1C21.5,41.4,13.8,52.9,8.5,65.7
		C2.8,79.1,0,93.1,0,107.6s2.8,28.6,8.5,42c5.3,12.6,13,24.1,23.1,34.1c9.9,10.1,21.3,17.8,34.1,23.1c13.4,5.7,27.4,8.5,41.8,8.5
		s28.4-2.8,41.8-8.5c12.6-5.3,24.1-13,34.1-23.1c9.7-9.7,17.4-21.1,23.1-34.1c5.7-13.4,8.5-27.4,8.5-41.8s-2.8-28.4-8.5-41.8
		c-5.5-13-13-24.5-22.9-34.3c-10.1-10.1-21.5-17.8-34.1-23.1C136,2.8,122,0,107.6,0 M68.7,15.2c12.2-5.5,25.5-8.1,38.9-8.1
		s26.6,2.6,39.1,8.1c12,5.1,22.7,12.2,32,21.5c9.3,9.5,16.6,20.1,21.5,32c5.3,12.4,8.1,25.5,8.1,39.1s-2.6,26.6-8.1,39.1
		c-4.9,11.8-12.2,22.5-21.5,32c-9.3,9.3-19.9,16.4-32,21.5c-12.4,5.3-25.5,8.1-39.1,8.1s-26.6-2.6-39.1-8.1
		c-12.2-5.1-22.9-12.2-32-21.5c-9.3-9.3-16.6-19.9-21.5-32c-5.3-12.4-7.9-25.3-7.9-39.1S9.7,81.1,15,68.7c5.1-12,12.2-22.7,21.5-32
		S56.4,20.1,68.7,15.2 M125.1,45.8c-5.7-2.4-11.6-3.7-18-3.7S94.7,43.4,89,45.8c-5.5,2.4-10.5,5.7-14.8,9.9
		c-4.5,4.5-7.9,9.5-9.9,14.8C62,76,60.6,81.9,60.6,88.6c0,10.5,7.1,24.7,21.3,42.8c2.8,3.6,5.5,6.9,8.3,10.1
		c3.9,4.5,7.9,9.1,12.2,13.4l2,2.2c0.6,0.6,1.4,1,2.4,1c0.8,0,1.6-0.4,2.4-1c5.3-5.3,10.1-10.5,14.2-15.4c2.6-3,5.5-6.3,8.5-10.3
		c14.2-18.4,21.3-32.6,21.3-42.8c0-6.1-1.2-12.2-3.7-18c-2.4-5.3-5.7-10.3-10.1-14.8C135.6,51.5,130.6,48.2,125.1,45.8 M81.3,86.4
		c0-7.1,2.6-13.2,7.5-18.2c5.1-4.9,11.2-7.5,18.2-7.5s13,2.6,18.2,7.5c4.9,5.1,7.5,11.2,7.5,18.2s-2.4,13-7.3,18.2
		c-4.9,4.9-11.1,7.5-18.2,7.5s-13.4-2.6-18.2-7.5C83.9,99.7,81.5,93.5,81.3,86.4z"/>
	<path class="st1" d="M21.5,71.4c-4.9,11.4-7.3,23.7-7.3,36.3s2.4,24.7,7.3,36.3c4.7,11.1,11.4,21.1,20.1,29.8s18.7,15.4,29.6,20.1
		c4.5,2,9.3,3.6,14.4,4.5l12.8,2.4c2.4,0.2,5.3,0.4,8.9,0.4h0.4l12.8-0.8c8.1-1.2,16-3.4,23.3-6.3c11.1-5.1,20.9-11.8,29.8-20.5
		c8.5-8.7,15.2-18.6,19.9-29.8c4.9-11.4,7.5-23.7,7.5-36.3s-2.4-24.7-7.5-36.3c-4.7-11.1-11.4-21.1-19.9-29.8
		c-8.9-8.7-18.7-15.4-29.8-19.9c-11.6-4.9-23.7-7.3-36.3-7.3s-24.7,2.4-36.3,7.3c-11,4.5-20.9,11.3-29.6,19.9
		C32.8,50.3,26.1,60.4,21.5,71.4 M73.8,27.4c10.9-4.5,22.1-6.9,33.9-6.9s23.1,2.4,33.9,6.9c10.5,4.5,19.5,10.7,27.6,18.6
		c8.1,8.3,14.2,17.4,18.6,27.6c4.5,11.1,6.9,22.5,6.9,33.7s-2.4,22.7-6.9,33.9c-2.8,6.3-6.3,12.4-10.5,18.2
		c-1.2-0.8-3.7-2.4-7.3-4.5c-12.2-6.3-26-10.7-41.6-12.8c-4.9,5.7-10.3,11.6-16.2,17.4c-1.4,1.4-3.2,2.2-5.1,2.2
		c-2.2,0-3.9-0.8-5.3-2.2c-5.1-4.9-10.7-10.9-16.4-17.6c-15.8,2.2-29.8,6.5-41.8,13.2c-2.6,1.4-4.7,2.8-6.1,3.7
		c-4.1-5.7-7.5-11.4-10.1-17.4c-4.5-10.7-6.7-22.1-6.7-33.9s2.2-23.1,6.7-33.9C32,63.2,38.1,53.9,46.2,46l0,0
		C54.3,38.1,63.3,31.8,73.8,27.4z"/>
	<g>
		<path class="st1" d="M763.5,104.4c5.5,3.4,9.5,10.1,9.5,16.8c0,5.9-2.2,11.2-6.3,15.4c-4.1,4.1-9.3,6.3-15.2,6.3h-28.6v-73h28
			c5.5,0,10.3,2,14.4,5.9s6.1,8.5,6.1,14C771.4,95.7,768.3,101.2,763.5,104.4z M732.9,99.5h18c2.8,0,5.1-1,7.1-2.8
			c2.2-2,3.2-4.1,3.2-6.9s-1-4.9-3.2-6.9c-2-2-4.3-3-7.1-3h-18C732.9,80.1,732.9,99.5,732.9,99.5z M732.9,109.7v23.1h18
			c3.2,0,5.9-1.2,8.3-3.4c2.4-2.4,3.6-5.1,3.6-8.3s-1.2-5.7-3.7-8.1c-2.4-2.4-5.1-3.6-8.3-3.6L732.9,109.7L732.9,109.7z"/>
		<path class="st1" d="M826.9,96.5v-7.3H837v53.7h-10.1v-7.5c-4.7,5.7-10.9,8.7-18.6,8.7c-7.7,0-14.2-2.8-19.5-8.3s-7.9-12-7.9-19.9
			s2.6-14.4,8.1-19.7c5.3-5.5,11.8-8.3,19.5-8.3C816,87.8,822.1,90.8,826.9,96.5L826.9,96.5z M821.4,128.9c3.6-3.4,5.3-7.5,5.5-12.4
			v-1.2c0-4.9-2-9.1-5.5-12.4s-7.7-5.1-12.6-5.1c-4.9,0-9.3,1.8-12.8,5.3s-5.3,7.7-5.3,12.6s1.8,9.3,5.3,12.8
			c3.6,3.6,7.9,5.3,12.8,5.3C813.7,134,817.8,132.4,821.4,128.9z"/>
		<path class="st1" d="M859.6,89.2v6.1c4.5-4.9,10.1-7.3,16.8-7.3c5.7,0,10.9,2.4,15.2,7.3c4.3,4.7,6.7,10.9,6.7,18.4v29.4h-10.7
			v-29.6c0-4.3-1.4-7.9-3.9-10.9c-2.6-3-5.9-4.5-10.1-4.5c-8.3,0-14,6.7-14,15.4v29.4h-10.5V89.2H859.6L859.6,89.2z"/>
		<path class="st1" d="M914.7,135.8c-5.5-5.5-8.5-12.2-8.5-19.9s2.8-14.2,8.3-19.7c5.5-5.5,12-8.3,19.7-8.3s14.2,2.8,19.7,8.3
			s8.3,12,8.3,19.7v4.1h-46c0.6,3.9,2.6,7.3,6.3,9.9c3.7,2.8,7.7,4.1,12,4.1c6.1,0,12.6-2.8,17.4-8.3l7.7,6.1
			c-6.9,8.1-15,12-24.9,12C926.9,144.1,920.2,141.3,914.7,135.8L914.7,135.8z M952.2,111.5c-1-4.1-3.2-7.3-6.7-9.7
			c-3.4-2.6-7.1-3.7-11.2-3.7c-8.5,0-15.8,5.3-18,13.4C916.3,111.5,952.2,111.5,952.2,111.5z"/>
		<path class="st1" d="M982,89.2v6.1c4.5-4.9,10.1-7.3,16.8-7.3c5.7,0,10.9,2.4,15.2,7.3c4.3,4.7,6.5,10.9,6.5,18.4v29.4h-10.7
			v-29.6c0-4.3-1.4-7.9-3.9-10.9c-2.6-3-5.9-4.5-10.1-4.5c-8.3,0-14,6.7-14,15.4v29.4h-10.5V89.2C971.5,89.2,982,89.2,982,89.2z"/>
	</g>
	<g>
		<path class="st0" d="M241.4,68.7h54.3v15.4h-19.3v58.4H261V84.1h-19.3L241.4,68.7L241.4,68.7z"/>
		<path class="st0" d="M312.8,81.3c-2.4,0-4.5-0.8-6.3-2.6s-2.6-3.7-2.6-6.1s0.8-4.5,2.6-6.3c1.8-1.8,3.7-2.6,6.3-2.6
			s4.5,0.8,6.1,2.6c1.8,1.8,2.6,3.7,2.6,6.3s-0.8,4.5-2.6,6.1C317.3,80.3,315.4,81.3,312.8,81.3z M320.3,142.5h-15.4V88.2h15.4
			V142.5z"/>
		<path class="st0" d="M334.9,142.5V68.7h15.4v73.8H334.9L334.9,142.5z"/>
		<path class="st0" d="M379.1,142.5h-15.4V68.7h15.4v25.5c1.6-2.4,3.9-3.9,6.7-5.3c2.8-1.2,5.7-2,8.7-2c7.5,0,13.8,2.8,18.7,8.3
			c5.1,5.5,7.7,12.2,7.7,20.1s-2.6,14.6-7.7,20.1s-11.2,8.3-18.4,8.3s-12.4-2.8-15.6-8.3L379.1,142.5z M392.3,129.1
			c3.6,0,6.7-1.4,9.3-4.1s3.9-6.1,3.9-9.7s-1.4-6.9-3.9-9.5c-2.6-2.8-5.7-4.1-9.3-4.1s-6.7,1.4-9.3,3.9c-2.4,2.6-3.7,5.7-3.9,9.5
			v0.4c0.2,3.7,1.4,6.9,3.9,9.5C385.6,127.7,388.6,129.1,392.3,129.1z"/>
		<path class="st0" d="M482.1,142.5h-15.4v-6.9c-4.3,5.3-9.9,8.1-16.2,8.1c-5.7,0-10.9-2-14.8-6.1c-4.1-4.1-6.1-9.1-6.1-14.8V88.2
			h15.6v29.6c0,3,1,5.5,3.2,7.7c2.2,2,4.7,3.2,7.7,3.2s5.5-1,7.7-3.2s3.2-4.7,3.2-7.7V88.2h15.4L482.1,142.5L482.1,142.5
			L482.1,142.5z"/>
		<path class="st0" d="M528.1,87.2v15.6c-1.6-0.6-3.6-0.8-6.3-0.8c-3.6,0-6.3,1.2-8.5,3.7c-2,2.6-3.2,5.9-3.2,10.3v26.4h-14.8V88.2
			h15.2v8.5c3-6.5,7.5-9.9,14-9.9C525.5,86.8,526.7,87,528.1,87.2z"/>
		<path class="st0" d="M576.2,94.3V88h15.4v48.3c0,8.3-2.6,15.2-7.9,21.1c-5.1,5.7-12.6,8.7-22.1,8.7c-6.9,0-14.2-2.8-21.7-8.1
			l6.3-11.6c5.3,3.6,10.5,5.3,15.4,5.3c4.1,0,7.7-1.4,10.5-3.9s4.1-6.5,4.1-11.4c-1.4,2-3.4,3.7-6.1,4.9s-5.3,2-7.9,2
			c-7.9,0-14.4-2.6-19.7-8.1c-5.1-5.3-7.9-12-7.9-19.9s2.4-14.6,7.3-20.1c4.9-5.5,11.2-8.3,18.9-8.3c3,0,5.7,0.6,8.7,1.8
			C572.5,89.8,574.7,92,576.2,94.3L576.2,94.3z M563.2,128.9c3.4,0,6.5-1.2,9.1-3.7c2.6-2.4,3.9-5.5,3.9-8.9v-1.8
			c0-3.6-1.4-6.5-3.9-8.9c-2.6-2.6-5.5-3.7-9.1-3.7c-3.7,0-6.9,1.4-9.5,4.1c-2.6,2.8-3.7,5.9-3.7,9.7s1.2,6.9,3.7,9.5
			C556.3,127.7,559.5,128.9,563.2,128.9z"/>
		<path class="st0" d="M624,99.7c-3.7,0-5.7,1.2-5.7,3.7c0,1,0.6,1.8,1.8,2.6c1.2,0.8,2.8,1.4,4.5,1.6c6.5,0.8,11.4,2.8,15,6.1
			c3.6,3.4,5.3,7.3,5.3,12.2c0,5.1-2,9.5-6.1,12.8c-3.9,3.4-9.1,5.1-15.2,5.1c-4.7,0-9.3-1.4-13.4-4.1c-3.9-2.8-6.9-6.3-8.7-11.1
			l11.8-5.5c0.8,1.8,2.2,3.4,4.1,4.9c2,1.6,3.9,2.2,5.9,2.2s3.7-0.4,4.9-1.4c1.2-0.8,1.8-2,1.8-3.6c0-2.4-2.2-4.1-6.7-4.9
			c-6.1-1-10.9-3-14.8-6.1c-3.7-3.2-5.7-6.7-5.7-10.9c0-4.7,2-8.7,5.7-11.8c3.7-3.2,8.9-4.7,15.4-4.7c4.3,0,8.3,1,11.8,3.2
			s6.3,5.3,8.5,9.5l-11.4,4.9C630.5,101.2,627.4,99.7,624,99.7L624,99.7z"/>
		<path class="st0" d="M651.4,116.6c0-8.9,2.8-16.2,8.1-21.5c5.5-5.5,12.2-8.3,20.3-8.3s14.4,2.8,19.9,8.5s8.3,12.8,8.3,21.3
			l-0.2,4.5H667c0.8,3,2.4,5.1,5.1,6.7c2.8,1.6,5.7,2.4,9.3,2.4c5.5,0,10.7-1.6,15.4-4.9l6.5,10.5c-2.8,2.4-6.1,4.3-10.1,5.7
			c-3.9,1.4-8.1,2.2-11.8,2.2c-9.3,0-16.6-2.8-21.9-8.1C654.2,130.2,651.4,123.9,651.4,116.6L651.4,116.6z M667.2,110.7h25.5
			c-0.6-3-2.2-5.3-4.3-7.3c-2.4-1.8-5.1-2.6-8.3-2.6s-5.9,1-8.5,2.8C669,105.6,667.6,107.9,667.2,110.7L667.2,110.7z"/>
	</g>
</g>
</svg>
