<?xml version="1.0" encoding="UTF-8"?>
<svg id="Layer_1" xmlns="http://www.w3.org/2000/svg" version="1.1" viewBox="0 0 481.2 109.5">
  <!-- Generator: Adobe Illustrator 29.2.1, SVG Export Plug-In . SVG Version: 2.1.0 Build 116)  -->
  <defs>
    <style>
      .st0 {
        fill: var(--secondary);
      }

      .st1 {
        fill: #38c6f4;
      }

      .st2 {
        fill: #222f50;
      }

      .st3 {
        fill: var(--primary);
      }
    </style>
  </defs>
  <g>
    <path class="st3" d="M54.7,0c-7.3,0-14.4,1.4-21.3,4.3-6.5,2.7-12.4,6.6-17.3,11.7-5.1,5-9.1,10.9-11.8,17.4C1.4,40.3,0,47.4,0,54.7s1.4,14.5,4.3,21.4c2.7,6.4,6.6,12.3,11.8,17.3,5,5.1,10.9,9,17.3,11.8,6.8,2.9,13.9,4.3,21.3,4.3s14.4-1.4,21.3-4.3c6.4-2.7,12.3-6.6,17.3-11.8,4.9-4.9,8.8-10.7,11.8-17.3,2.9-6.8,4.3-13.9,4.3-21.3s-1.4-14.4-4.3-21.3c-2.8-6.6-6.6-12.5-11.7-17.4-5.1-5.1-11-9-17.3-11.8-7-2.9-14.1-4.3-21.4-4.3M34.9,7.7c6.2-2.8,13-4.1,19.8-4.1s13.6,1.3,19.9,4.1c6.1,2.6,11.6,6.2,16.2,11,4.7,4.8,8.4,10.2,11,16.2,2.7,6.3,4.1,13,4.1,19.9s-1.3,13.6-4.1,19.9c-2.5,6-6.2,11.5-11,16.2-4.7,4.7-10.1,8.3-16.2,11-6.3,2.7-13,4.1-19.9,4.1s-13.6-1.3-19.9-4.1c-6.2-2.6-11.7-6.2-16.2-11-4.7-4.7-8.4-10.1-11-16.2-2.7-6.3-4-12.9-4-19.9s1.3-13.6,4-19.9c2.6-6.1,6.2-11.6,11-16.2,4.7-4.7,10.1-8.5,16.3-11M63.6,23.3c-2.9-1.2-5.9-1.9-9.1-1.9s-6.3.7-9.2,1.9c-2.8,1.2-5.3,2.9-7.5,5-2.3,2.3-4,4.8-5,7.5-1.2,2.8-1.9,5.8-1.9,9.2,0,5.3,3.6,12.6,10.9,21.8,1.4,1.8,2.8,3.5,4.2,5.1,2,2.3,4,4.6,6.2,6.8l1,1.1c.3.3.7.5,1.2.5s.8-.2,1.2-.5c2.7-2.7,5.1-5.3,7.2-7.8,1.3-1.5,2.8-3.2,4.3-5.2,7.2-9.3,10.9-16.5,10.9-21.8s-.6-6.2-1.9-9.1c-1.2-2.7-2.9-5.2-5.1-7.5-2-2.2-4.5-3.9-7.3-5.1M41.3,43.9c0-3.6,1.3-6.7,3.8-9.2,2.6-2.5,5.7-3.8,9.2-3.8s6.6,1.3,9.2,3.8c2.5,2.6,3.8,5.7,3.8,9.2s-1.2,6.6-3.7,9.2c-2.5,2.5-5.6,3.8-9.2,3.8s-6.8-1.3-9.2-3.8c-2.6-2.5-3.8-5.6-3.9-9.2Z"/>
    <path class="st0" d="M10.9,36.3c-2.5,5.8-3.7,12.1-3.7,18.5s1.2,12.6,3.7,18.5c2.4,5.6,5.8,10.7,10.2,15.1,4.4,4.4,9.5,7.8,15,10.2,2.3,1,4.7,1.8,7.3,2.3l6.5,1.2c1.2,0,2.7.2,4.5.2h.2l6.5-.4c4.1-.6,8.1-1.7,11.9-3.2,5.6-2.6,10.6-6,15.1-10.4,4.3-4.4,7.7-9.4,10.1-15.1,2.5-5.8,3.8-12.1,3.8-18.5s-1.2-12.6-3.8-18.5c-2.4-5.6-5.8-10.7-10.1-15.1-4.5-4.4-9.5-7.8-15.1-10.1-5.9-2.5-12.1-3.7-18.5-3.7s-12.6,1.2-18.4,3.7c-5.6,2.3-10.6,5.7-15,10.1-4.5,4.5-8,9.6-10.3,15.2M37.5,13.9c5.5-2.3,11.3-3.5,17.2-3.5s11.8,1.2,17.2,3.5c5.3,2.3,9.9,5.4,14,9.4,4.1,4.2,7.2,8.8,9.4,14,2.3,5.6,3.5,11.5,3.5,17.1s-1.2,11.6-3.5,17.2c-1.4,3.2-3.2,6.3-5.3,9.2-.6-.4-1.9-1.2-3.7-2.3-6.2-3.2-13.3-5.4-21.2-6.5-2.5,2.9-5.2,5.9-8.2,8.8-.7.7-1.6,1.1-2.6,1.1s-2-.4-2.7-1.1c-2.6-2.5-5.4-5.5-8.3-8.9-8,1.1-15.1,3.3-21.3,6.7-1.3.7-2.4,1.4-3.1,1.9-2.1-2.9-3.8-5.8-5.1-8.8-2.3-5.4-3.4-11.3-3.4-17.2s1.1-11.8,3.4-17.2c2.3-5.3,5.4-10,9.6-14h0c4.1-4,8.7-7.2,14-9.4Z"/>
  </g>
  <g>
    <path class="st2" d="M136.6,59.7l8.7-24.3h8.9l-14.9,38.2h-5.3l-14.8-38.2h8.9l8.6,24.3Z"/>
    <path class="st2" d="M156.5,49.1c2.9-2.9,6.4-4.4,10.4-4.4s7.5,1.4,10.4,4.4c2.9,2.9,4.3,6.3,4.3,10.3s-1.4,7.5-4.3,10.4c-2.9,2.9-6.3,4.3-10.4,4.3s-7.5-1.4-10.4-4.3c-2.9-2.9-4.3-6.3-4.3-10.4s1.4-7.4,4.3-10.3ZM162.1,64.3c1.3,1.3,3,2,4.8,2s3.5-.7,4.8-2c1.3-1.3,2-3,2-4.9s-.6-3.5-2-4.8c-1.3-1.3-2.9-2-4.8-2s-3.5.7-4.8,2c-1.3,1.3-2,3-2,4.8s.7,3.6,2,4.9Z"/>
    <path class="st2" d="M187.5,49.1c2.9-2.9,6.4-4.4,10.4-4.4s7.5,1.4,10.4,4.4c2.9,2.9,4.3,6.3,4.3,10.3s-1.4,7.5-4.3,10.4c-2.9,2.9-6.3,4.3-10.4,4.3s-7.5-1.4-10.4-4.3c-2.9-2.9-4.3-6.3-4.3-10.4s1.4-7.4,4.3-10.3ZM193.1,64.3c1.3,1.3,3,2,4.8,2s3.5-.7,4.8-2c1.3-1.3,2-3,2-4.9s-.6-3.5-2-4.8c-1.3-1.3-2.9-2-4.8-2s-3.5.7-4.8,2c-1.3,1.3-2,3-2,4.8s.7,3.6,2,4.9Z"/>
    <path class="st2" d="M233.1,53c-.7-.3-1.8-.4-3.2-.4-3.7,0-6,2.8-6,7.3v13.7h-7.8v-28.1h7.8v4.5c1.5-3.4,3.9-5.1,7.2-5.1s1.2,0,1.9.2v8.1Z"/>
    <path class="st2" d="M245.3,45.4v3.6c2.3-2.8,5.1-4.2,8.4-4.2s5.6,1.1,7.7,3.1c2.1,2.1,3.1,4.6,3.1,7.7v18h-8v-15.3c0-3-2.6-5.6-5.6-5.6s-5.6,2.6-5.6,5.6v15.3h-8v-28.1h8Z"/>
    <path class="st2" d="M275.7,53.3c0,1,1.3,1.9,3.2,2.1,6.8.8,10.5,4.6,10.5,9.5s-1.1,4.9-3.2,6.6c-2.1,1.8-4.7,2.6-7.9,2.6s-4.8-.7-7-2.2c-2.1-1.4-3.6-3.3-4.5-5.7l6.2-2.8c.8,1.8,3.1,3.7,5.3,3.7s3.5-1.1,3.5-2.5-1.2-2.1-3.5-2.5c-6.2-1-10.5-4.5-10.5-8.7s1-4.5,3-6.2c2-1.6,4.6-2.4,8-2.4s8.3,2.2,10.5,6.5l-6,2.6c-1.4-1.7-3-2.6-4.7-2.6s-2.9.6-2.9,1.9Z"/>
    <path class="st2" d="M295.6,49c2.8-2.8,6.3-4.3,10.5-4.3s7.5,1.5,10.3,4.4c2.8,2.9,4.3,6.6,4.3,11v2.3h-21.3c.8,3,3.9,4.8,7.5,4.8s5.5-.9,8-2.6l3.4,5.4c-2.8,2.6-7.4,4.1-11.4,4.1-10.2,0-15.5-7.1-15.5-14s1.4-8.3,4.2-11.2ZM312.6,57c-.6-3.2-3.3-5.1-6.6-5.1s-6.2,2.2-6.6,5.1h13.2Z"/>
    <path class="st1" d="M346.7,53.4c2.9,1.7,5,5.3,5,8.7s-1.1,5.8-3.3,8.1c-2.2,2.2-4.8,3.3-8,3.3h-14.9v-38.2h14.7c2.9,0,5.4,1,7.5,3.1,2.1,2,3.2,4.5,3.2,7.3s-1.6,6-4.1,7.7ZM330.8,50.8h9.4c1.4,0,2.7-.5,3.7-1.5,1.1-1,1.6-2.2,1.6-3.6s-.5-2.6-1.6-3.6c-1.1-1-2.3-1.5-3.7-1.5h-9.4v10.2ZM330.8,56.1v12.1h9.4c1.6,0,3.1-.6,4.4-1.8,1.2-1.2,1.9-2.7,1.9-4.3s-.6-3-1.9-4.2c-1.2-1.2-2.7-1.8-4.4-1.8h-9.4Z"/>
    <path class="st1" d="M379.9,49.2v-3.8h5.3v28.1h-5.3v-3.9c-2.4,3-5.7,4.5-9.7,4.5s-7.4-1.4-10.3-4.3c-2.8-2.9-4.1-6.3-4.1-10.4s1.4-7.5,4.2-10.4c2.8-2.9,6.2-4.3,10.2-4.3s7.3,1.5,9.7,4.5ZM377,66.2c1.9-1.8,2.8-3.9,2.9-6.5v-.6c0-2.6-1-4.7-2.9-6.5-1.9-1.8-4-2.7-6.6-2.7s-4.8.9-6.7,2.8c-1.9,1.9-2.8,4-2.8,6.6s.9,4.8,2.8,6.7c1.9,1.9,4.1,2.8,6.7,2.8s4.7-.9,6.6-2.7Z"/>
    <path class="st1" d="M397,45.4v3.2c2.4-2.6,5.3-3.8,8.8-3.8s5.6,1.3,7.9,3.8,3.5,5.7,3.5,9.6v15.4h-5.5v-15.4c0-2.3-.7-4.1-2-5.7-1.3-1.5-3.1-2.3-5.3-2.3-4.3,0-7.3,3.5-7.3,8v15.4h-5.5v-28.1h5.5Z"/>
    <path class="st1" d="M425.8,69.8c-2.9-2.9-4.4-6.4-4.4-10.4s1.4-7.4,4.3-10.3c2.9-2.9,6.3-4.4,10.4-4.4s7.4,1.4,10.3,4.4c2.9,2.9,4.4,6.3,4.4,10.3v2.1h-24c.3,2,1.4,3.8,3.3,5.2s4,2.1,6.3,2.1c3.2,0,6.6-1.5,9-4.3l4,3.2c-3.6,4.2-7.9,6.3-13,6.3s-7.6-1.4-10.5-4.3ZM445.5,57.1c-.5-2.1-1.7-3.8-3.5-5.1-1.8-1.3-3.7-2-5.9-2-4.4,0-8.2,2.8-9.4,7.1h18.7Z"/>
    <path class="st1" d="M461,45.4v3.2c2.4-2.6,5.3-3.8,8.8-3.8s5.6,1.3,7.9,3.8,3.5,5.7,3.5,9.6v15.4h-5.5v-15.4c0-2.3-.7-4.1-2-5.7-1.3-1.5-3.1-2.3-5.3-2.3-4.3,0-7.3,3.5-7.3,8v15.4h-5.5v-28.1h5.5Z"/>
  </g>
</svg>