<?xml version="1.0" encoding="utf-8"?>
<!-- Generator: Adobe Illustrator 26.5.2, SVG Export Plug-In . SVG Version: 6.00 Build 0)  -->
<svg version="1.1" id="a" xmlns="http://www.w3.org/2000/svg" xmlns:xlink="http://www.w3.org/1999/xlink" x="0px" y="0px"
	 viewBox="0 0 907.1 211.6" style="enable-background:new 0 0 907.1 211.6;" xml:space="preserve">
<style type="text/css">
	.st0{fill: var(--primary);}
	.st1{fill: var(--secondary);}
</style>
<g>
	<path class="st0" d="M105.7,0c-14.2,0-28,2.7-41.1,8.3C51.9,13.6,40.7,21.1,31,31c-9.9,9.7-17.5,21-22.7,33.6
		C2.7,77.8,0,91.6,0,105.7s2.7,28.1,8.3,41.3c5.2,12.4,12.8,23.7,22.7,33.6c9.7,9.9,21,17.5,33.6,22.7c13.2,5.6,27,8.3,41.1,8.3
		s27.9-2.7,41.1-8.3c12.4-5.2,23.7-12.8,33.6-22.7c9.5-9.5,17.1-20.8,22.7-33.6c5.6-13.2,8.3-27,8.3-41.1s-2.7-27.9-8.3-41.1
		C197.6,52,190.3,40.7,180.6,31c-9.9-9.9-21.1-17.5-33.6-22.7C133.6,2.7,119.8,0,105.7,0 M67.5,14.9c12-5.4,25-8,38.2-8
		s26.2,2.5,38.4,8c11.8,5,22.3,12,31.4,21.1c9.1,9.3,16.3,19.8,21.1,31.4c5.2,12.2,8,25,8,38.4s-2.5,26.2-8,38.4
		c-4.8,11.6-12,22.1-21.1,31.4c-9.1,9.1-19.6,16.1-31.4,21.1c-12.2,5.2-25,8-38.4,8s-26.2-2.5-38.4-8c-12-5-22.5-12-31.4-21.1
		c-9.1-9.1-16.3-19.6-21.1-31.4C9.6,132,7,119.4,7,105.8s2.5-26.2,7.8-38.4c5-11.8,12-22.3,21.1-31.4S55.4,19.8,67.5,14.9 M122.9,45
		c-5.6-2.3-11.4-3.7-17.7-3.7S93.1,42.7,87.4,45c-5.4,2.3-10.3,5.6-14.5,9.7c-4.5,4.5-7.8,9.3-9.7,14.5c-2.3,5.4-3.7,11.3-3.7,17.7
		c0,10.3,7,24.2,21,42.1c2.7,3.5,5.4,6.8,8.1,9.9c3.9,4.5,7.8,8.9,12,13.2l1.9,2.1c0.6,0.6,1.4,1,2.3,1c0.8,0,1.6-0.4,2.3-1
		c5.2-5.2,9.9-10.3,14-15.1c2.5-2.9,5.4-6.2,8.3-10.1c14-18,21-32,21-42.1c0-6-1.2-12-3.7-17.7c-2.3-5.2-5.6-10.1-9.9-14.5
		C133.2,50.6,128.4,47.3,122.9,45 M79.9,85c0-7,2.5-13,7.4-17.8c5-4.8,11.1-7.4,17.8-7.4s12.8,2.5,17.8,7.4c4.8,5,7.4,11.1,7.4,17.8
		s-2.3,12.8-7.2,17.8c-4.8,4.8-10.9,7.4-17.8,7.4s-13.2-2.5-17.8-7.4C82.4,98,80.1,92,79.9,85z"/>
	<path class="st1" d="M21.1,70.2c-4.8,11.3-7.2,23.3-7.2,35.7s2.3,24.2,7.2,35.7c4.7,10.9,11.3,20.8,19.8,29.3S59.3,186,70,190.7
		c4.5,1.9,9.1,3.5,14.2,4.5l12.6,2.3c2.3,0.2,5.2,0.4,8.7,0.4h0.4l12.6-0.8c8-1.2,15.7-3.3,22.9-6.2c10.9-5,20.6-11.6,29.3-20.2
		c8.3-8.5,14.9-18.2,19.6-29.3c4.8-11.3,7.4-23.3,7.4-35.7s-2.3-24.2-7.4-35.7c-4.7-10.9-11.3-20.8-19.6-29.3
		c-8.7-8.5-18.4-15.1-29.3-19.6c-11.4-4.8-23.3-7.2-35.7-7.2S81.4,16.3,70,21.1c-10.9,4.5-20.6,11.1-29.1,19.6
		C32.2,49.5,25.6,59.4,21.1,70.2 M72.5,27c10.7-4.5,21.7-6.8,33.4-6.8c11.4,0,22.7,2.3,33.4,6.8c10.3,4.5,19.2,10.5,27.2,18.2
		c8,8.1,14,17.1,18.2,27.2c4.5,10.9,6.8,22.1,6.8,33.2s-2.3,22.3-6.8,33.4c-2.7,6.2-6.2,12.2-10.3,17.8c-1.2-0.8-3.7-2.3-7.2-4.5
		c-12-6.2-25.6-10.5-40.9-12.6c-4.8,5.6-10.1,11.4-15.9,17.1c-1.4,1.4-3.1,2.1-5,2.1c-2.1,0-3.9-0.8-5.2-2.1
		c-5-4.8-10.5-10.7-16.1-17.3c-15.5,2.1-29.3,6.4-41.1,13c-2.5,1.4-4.7,2.7-6,3.7c-4.1-5.6-7.4-11.3-9.9-17.1
		c-4.5-10.5-6.6-21.7-6.6-33.4s2.1-22.7,6.6-33.4C31.4,62.1,37.4,53,45.3,45.2l0,0C53.3,37.4,62.2,31.2,72.5,27z"/>
	<g>
		<g>
			<path class="st1" d="M654.3,104.6c5.4,3.3,9.3,9.9,9.3,16.5c0,5.8-2.1,11.1-6.2,15.1s-9.1,6.2-14.9,6.2h-28.1V70.6h27.7
				c5.4,0,10.1,1.9,14.2,5.8c4.1,3.9,6,8.3,6,13.8C662.2,95.8,659.1,101.5,654.3,104.6L654.3,104.6z M624.4,99.5h17.7
				c2.7,0,5-1,7-2.7c2.1-1.9,3.1-4.1,3.1-6.8c0-2.7-1-4.8-3.1-6.8c-1.9-1.9-4.3-2.9-7-2.9h-17.7V99.5L624.4,99.5z M624.4,109.6v22.7
				h17.7c3.1,0,5.8-1.2,8.1-3.3c2.3-2.3,3.5-5,3.5-8.1s-1.2-5.6-3.7-8c-2.3-2.3-5-3.5-8.1-3.5h-17.5V109.6z"/>
			<path class="st1" d="M716.7,96.6v-7.2h9.9v53h-9.9V135c-4.7,5.6-10.7,8.5-18.2,8.5s-14-2.7-19.2-8.1c-5.2-5.4-7.8-11.8-7.8-19.6
				s2.5-14.2,8-19.4c5.2-5.4,11.6-8.1,19.2-8.1S712.1,91,716.7,96.6L716.7,96.6z M711.3,128.6c3.5-3.3,5.2-7.4,5.4-12.2v-1.2
				c0-4.8-1.9-8.9-5.4-12.2c-3.5-3.3-7.6-5-12.4-5s-9.1,1.7-12.6,5.2s-5.2,7.6-5.2,12.4s1.7,9.1,5.2,12.6s7.8,5.2,12.6,5.2
				S707.8,131.9,711.3,128.6L711.3,128.6z"/>
			<path class="st1" d="M748.9,89.4v6c4.5-4.8,9.9-7.2,16.5-7.2c5.6,0,10.7,2.3,14.9,7.2c4.3,4.7,6.6,10.7,6.6,18v28.9h-10.5v-29.1
				c0-4.3-1.4-7.8-3.9-10.7c-2.5-2.9-5.8-4.5-9.9-4.5c-8.1,0-13.8,6.6-13.8,15.1V142h-10.3V89.4H748.9L748.9,89.4z"/>
			<path class="st1" d="M803.1,135.4c-5.4-5.4-8.3-12-8.3-19.6s2.7-14,8.1-19.4c5.4-5.4,11.8-8.1,19.4-8.1s14,2.7,19.4,8.1
				s8.1,11.8,8.1,19.4v4.1h-45.2c0.6,3.9,2.5,7.2,6.2,9.7c3.7,2.7,7.6,4.1,11.8,4.1c6,0,12.4-2.7,17.1-8.1l7.6,6
				c-6.8,8-14.7,11.8-24.4,11.8C815.1,143.6,808.5,140.8,803.1,135.4L803.1,135.4z M839.9,111.3c-1-4.1-3.1-7.2-6.6-9.5
				c-3.3-2.5-7-3.7-11.1-3.7c-8.3,0-15.5,5.2-17.7,13.2C804.6,111.3,839.9,111.3,839.9,111.3z"/>
			<path class="st1" d="M869.2,89.4v6c4.5-4.8,9.9-7.2,16.5-7.2c5.6,0,10.7,2.3,14.9,7.2c4.3,4.7,6.6,10.7,6.6,18v28.9h-10.5v-29.1
				c0-4.3-1.4-7.8-3.9-10.7S887,98,882.9,98c-8.1,0-13.8,6.6-13.8,15.1V142h-10.3V89.4H869.2L869.2,89.4z"/>
		</g>
		<g>
			<path class="st0" d="M286.9,139.1h-7.6l-14-33.9l-14,33.9H244l-21.1-69.6H238c0,0,0,0.4,0.2,1.2c0.2,0.8,0.6,1.9,1,3.5
				s1,3.5,1.6,5.8l5.4,20.8l2.7,10.3l16.7-42.7l16.7,42.7l1.7-6.8l3.5-13.4l4.1-15.1c0.2-0.6,0.2-1,0.4-1.6c0.2-0.6,0.2-1,0.4-1.4
				c0.2-0.4,0.2-0.8,0.2-1.2c0.2-0.4,0.2-0.8,0.2-1s0-0.4,0.2-0.6c0-0.2,0.2-0.4,0.2-0.4v-0.2h15.1L286.9,139.1L286.9,139.1z"/>
			<path class="st0" d="M307.4,114.6c0-8.5,2.5-15.3,7.6-20.4c5.2-5.2,11.4-7.8,19.2-7.8c7.8,0,13.6,2.7,18.8,8.1
				c5.2,5.4,7.8,12,7.8,20.2l-0.2,4.3H322c0.8,2.7,2.3,4.8,4.8,6.4s5.4,2.3,8.9,2.3c5.2,0,10.1-1.6,14.5-4.7l6.2,9.9
				c-2.5,2.3-5.6,4.1-9.5,5.4c-3.9,1.4-7.6,2.1-11.3,2.1c-8.7,0-15.7-2.5-20.8-7.6C309.9,127.4,307.4,121.6,307.4,114.6L307.4,114.6
				z M322.2,109h24.1c-0.6-2.9-1.9-5-4.1-6.8c-2.1-1.7-4.8-2.5-8-2.5c-3.1,0-5.6,1-8,2.7C323.9,104.2,322.6,106.3,322.2,109
				L322.2,109z"/>
			<path class="st0" d="M367.2,114.6c0-8.5,2.5-15.3,7.6-20.4c5.2-5.2,11.4-7.8,19.2-7.8s13.6,2.7,18.8,8.1c5.2,5.4,7.8,12,7.8,20.2
				l-0.2,4.3h-38.6c0.8,2.7,2.3,4.8,4.8,6.4s5.4,2.3,8.9,2.3c5.2,0,10.1-1.6,14.5-4.7l6.2,9.9c-2.5,2.3-5.6,4.1-9.5,5.4
				c-3.9,1.4-7.6,2.1-11.3,2.1c-8.7,0-15.7-2.5-20.8-7.6C369.7,127.4,367.2,121.6,367.2,114.6L367.2,114.6z M381.9,109H406
				c-0.6-2.9-1.9-5-4.1-6.8s-4.8-2.5-8-2.5c-3.1,0-5.6,1-8,2.7C383.7,104.2,382.3,106.3,381.9,109L381.9,109z"/>
			<path class="st0" d="M461.1,86.9l0.2,14.7c-1.4-0.6-3.5-0.8-6-0.8c-3.3,0-6,1.2-8,3.5s-2.9,5.6-2.9,9.7v25H430V87.7h14.4v8.1
				c2.7-6.2,7.2-9.3,13.2-9.3C458.7,86.5,459.9,86.7,461.1,86.9z"/>
			<path class="st0" d="M492.7,87.7h10.7V102h-10.7v37.1h-14.5v-36.9h-9.7V87.9h9.7V71.4h14.5V87.7L492.7,87.7z"/>
			<path class="st0" d="M508.8,114.6c0-8.5,2.5-15.3,7.8-20.4c5.2-5.2,11.6-7.8,19.2-7.8c7.6,0,13.6,2.7,18.8,8.1s7.8,12,7.8,20.2
				l-0.2,4.3h-38.6c0.8,2.7,2.3,4.8,4.8,6.4s5.4,2.3,8.7,2.3c5.2,0,10.1-1.6,14.5-4.7l6.2,9.9c-2.5,2.3-5.6,4.1-9.5,5.4
				c-3.9,1.4-7.6,2.1-11.3,2.1c-8.7,0-15.7-2.5-20.8-7.6C511.3,127.4,508.8,121.6,508.8,114.6L508.8,114.6z M523.5,109h24.1
				c-0.6-2.9-1.9-5-4.1-6.8s-4.8-2.5-7.8-2.5c-2.9,0-5.6,1-8,2.7C525.3,104.2,523.9,106.3,523.5,109z"/>
			<path class="st0" d="M602.7,86.9v14.7c-1.4-0.6-3.5-0.8-5.8-0.8c-3.3,0-6,1.2-8,3.5c-1.9,2.3-2.9,5.6-2.9,9.7v25h-14.4V87.7H586
				v8.1c2.7-6.2,7.2-9.3,13.2-9.3C600.2,86.5,601.3,86.7,602.7,86.9L602.7,86.9z"/>
		</g>
	</g>
</g>
</svg>
