<?xml version="1.0" encoding="UTF-8"?>
<svg id="Layer_1" xmlns="http://www.w3.org/2000/svg" version="1.1" viewBox="0 0 623.2 109.5">
  <!-- Generator: Adobe Illustrator 29.2.1, SVG Export Plug-In . SVG Version: 2.1.0 Build 116)  -->
  <defs>
    <style>
      .st0 {
        fill: var(--primary);
      }

      .st1 {
        fill: var(--secondary);
      }
    </style>
  </defs>
  <g>
    <path class="st0" d="M54.8,0c-7.3,0-14.4,1.4-21.3,4.3-6.6,2.7-12.4,6.7-17.4,11.7-5.1,5.1-9,10.9-11.7,17.4C1.4,40.2,0,47.3,0,54.8c0,7.4,1.4,14.5,4.3,21.3,2.7,6.5,6.7,12.3,11.7,17.4,5.1,5.1,10.9,9,17.4,11.7,6.9,2.9,14,4.3,21.3,4.3s14.4-1.4,21.3-4.3c6.5-2.7,12.3-6.7,17.4-11.7,5-5,8.9-10.7,11.7-17.4,2.9-6.9,4.3-14,4.3-21.3s-1.4-14.4-4.3-21.3c-2.8-6.6-6.7-12.4-11.7-17.4-5.1-5.1-10.9-9-17.4-11.7-6.9-2.9-14-4.3-21.3-4.3M34.9,7.7c6.3-2.7,13-4.1,19.9-4.1s13.5,1.4,19.8,4.1c6.1,2.6,11.5,6.2,16.3,10.9,4.8,4.8,8.4,10.2,10.9,16.3,2.7,6.3,4.1,13,4.1,19.9,0,6.9-1.4,13.5-4.1,19.8-2.5,6.1-6.2,11.5-10.9,16.3-4.7,4.7-10.1,8.4-16.3,10.9-6.3,2.7-12.9,4.1-19.8,4.1s-13.6-1.4-19.9-4.1c-6.2-2.6-11.6-6.2-16.3-10.9-4.7-4.7-8.4-10.1-11-16.3-2.7-6.3-4-12.9-4-19.8s1.3-13.6,4-19.9c2.6-6.1,6.3-11.5,11-16.3,4.7-4.7,10.1-8.4,16.3-10.9M63.7,23.3c-2.9-1.2-5.9-1.9-9.1-1.9s-6.4.6-9.2,1.9c-2.8,1.2-5.3,2.9-7.5,5.1-2.3,2.3-4,4.8-5.1,7.5-1.2,2.8-1.9,5.9-1.9,9.2,0,5.3,3.6,12.6,10.8,21.8,1.4,1.8,2.8,3.5,4.2,5.1,2,2.3,4.1,4.6,6.3,6.8l1.1,1.1c.3.3.7.5,1.3.5s.8-.2,1.2-.5c2.7-2.7,5.1-5.3,7.2-7.8,1.3-1.5,2.8-3.3,4.3-5.2,7.3-9.3,10.9-16.6,10.9-21.8s-.6-6.2-1.9-9.2c-1.2-2.7-2.9-5.3-5.1-7.5-2.2-2.2-4.8-3.9-7.5-5.1M41.4,44c0-3.6,1.3-6.7,3.8-9.3,2.6-2.5,5.7-3.8,9.3-3.8s6.7,1.3,9.2,3.8c2.5,2.6,3.8,5.7,3.8,9.3s-1.3,6.7-3.8,9.2c-2.5,2.5-5.6,3.8-9.2,3.8s-6.8-1.3-9.3-3.8c-2.5-2.5-3.8-5.6-3.8-9.2Z"/>
    <path class="st1" d="M10.9,36.3c-2.5,5.9-3.7,12-3.7,18.5,0,6.5,1.2,12.6,3.7,18.5,2.4,5.7,5.8,10.7,10.2,15.1,4.5,4.5,9.5,7.8,15.1,10.2,2.3,1,4.7,1.8,7.3,2.4l6.5,1.2c1.2.1,2.7.2,4.5.2h.2l6.6-.5c4.2-.6,8.1-1.7,11.9-3.3,5.6-2.3,10.6-5.7,15.1-10.2,4.4-4.4,7.7-9.4,10.1-15.1,2.5-5.9,3.8-12,3.8-18.5s-1.3-12.6-3.8-18.5c-2.4-5.7-5.8-10.7-10.1-15.2-4.5-4.5-9.6-7.8-15.1-10.2-6-2.5-12.1-3.7-18.5-3.7s-12.5,1.2-18.5,3.7c-5.6,2.3-10.7,5.7-15.1,10.2-4.5,4.5-7.9,9.5-10.2,15.2M37.6,14c5.5-2.3,11.2-3.5,17.2-3.5,6,0,11.7,1.2,17.2,3.5,5.3,2.3,10,5.4,14.1,9.5,4.1,4.2,7.2,8.9,9.5,14.1,2.3,5.7,3.5,11.4,3.5,17.2s-1.2,11.6-3.5,17.2c-1.4,3.2-3.2,6.3-5.3,9.3-.6-.4-1.9-1.2-3.7-2.3-6.2-3.4-13.2-5.6-21.1-6.6-2.5,2.9-5.3,5.9-8.2,8.9-.7.7-1.6,1.1-2.6,1.1s-2-.4-2.7-1.1c-2.6-2.5-5.4-5.5-8.3-8.9-8,1.1-15.1,3.3-21.3,6.7-1.3.7-2.4,1.4-3.2,1.9-2.1-2.9-3.8-5.8-5.1-8.9-2.3-5.5-3.5-11.2-3.5-17.2,0-6,1.2-11.7,3.5-17.2,2.3-5.3,5.5-10,9.5-14.1h0c4.1-4.1,8.8-7.3,14.1-9.5Z"/>
  </g>
  <g>
    <path class="st0" d="M122.1,35.3h28.4c0,0-2.6,5.1-2.6,5.1-1,2.1-2.7,5.3-4.9,9.7l-5.5,11-2.2,4.4h14.3v8h-28.5c8.9-15.7,14.4-25.8,16.7-30.2h-15.8v-8Z"/>
    <path class="st0" d="M153.5,49.1c2.9-2.9,6.4-4.4,10.4-4.4s7.5,1.4,10.4,4.4c2.9,2.9,4.3,6.3,4.3,10.3s-1.4,7.6-4.3,10.4c-2.9,2.9-6.3,4.3-10.4,4.3s-7.5-1.4-10.4-4.3c-2.9-2.9-4.3-6.3-4.3-10.4s1.4-7.4,4.3-10.3ZM159.1,64.3c1.3,1.3,3,2,4.8,2s3.5-.7,4.8-2c1.3-1.3,2-3,2-4.9s-.6-3.5-2-4.8c-1.3-1.3-2.9-2-4.8-2s-3.5.7-4.8,2c-1.3,1.3-2,3-2,4.8s.7,3.6,2,4.9Z"/>
    <path class="st0" d="M184.6,49c2.8-2.8,6.3-4.3,10.5-4.3s7.5,1.5,10.3,4.4c2.8,2.9,4.3,6.6,4.3,11v2.3h-21.3c.8,3,3.9,4.8,7.5,4.8s5.5-.9,8-2.6l3.4,5.4c-2.8,2.6-7.4,4.1-11.4,4.1-10.2,0-15.5-7.1-15.5-14s1.4-8.4,4.2-11.2ZM201.7,57c-.6-3.2-3.4-5.1-6.6-5.1s-6.2,2.2-6.6,5.1h13.2Z"/>
    <path class="st0" d="M229.6,45.4v7.9h-5.9v20.3h-8v-20.3h-5.3v-7.9h5.3v-9.1h8v9.1h5.9Z"/>
    <path class="st0" d="M235.1,49c2.8-2.8,6.3-4.3,10.5-4.3s7.5,1.5,10.3,4.4c2.8,2.9,4.3,6.6,4.3,11v2.3h-21.3c.8,3,3.9,4.8,7.5,4.8s5.5-.9,8-2.6l3.4,5.4c-2.8,2.6-7.4,4.1-11.4,4.1-10.2,0-15.5-7.1-15.5-14s1.4-8.4,4.2-11.2ZM252.2,57c-.6-3.2-3.4-5.1-6.6-5.1s-6.2,2.2-6.6,5.1h13.2Z"/>
    <path class="st0" d="M280.9,53c-.7-.3-1.8-.4-3.2-.4-3.7,0-6,2.8-6,7.3v13.7h-7.8v-28.1h7.8v4.5c1.5-3.4,3.9-5.1,7.2-5.1s1.2,0,1.9.2v8.1Z"/>
    <path class="st0" d="M307.8,73.5h-7.9v-16.5c0-2.7-1.6-4.3-3.8-4.3s-3.8,1.6-3.8,4.3v16.5h-7.8v-28.1h7.8v3.5c1.1-2.6,3.8-4.2,6.7-4.2h.5c1.2,0,4.8.6,6.8,4.1,2-2.7,4.7-4.1,8.2-4.1h.1c3,0,5.3,1.3,6.8,3.7,1.2,1.9,1.9,4.4,1.9,7.6v17.5h-7.9v-16.5c0-2.7-1.6-4.3-3.8-4.3s-3.6,1.5-3.8,3.9v16.9Z"/>
    <path class="st0" d="M330,49c2.8-2.8,6.3-4.3,10.5-4.3s7.5,1.5,10.3,4.4c2.8,2.9,4.3,6.6,4.3,11v2.3h-21.3c.8,3,3.9,4.8,7.5,4.8s5.5-.9,8-2.6l3.4,5.4c-2.8,2.6-7.4,4.1-11.4,4.1-10.2,0-15.5-7.1-15.5-14s1.4-8.4,4.2-11.2ZM347,57c-.6-3.2-3.4-5.1-6.6-5.1s-6.2,2.2-6.6,5.1h13.2Z"/>
    <path class="st0" d="M361.2,49c2.8-2.8,6.3-4.3,10.5-4.3s7.5,1.5,10.3,4.4c2.8,2.9,4.3,6.6,4.3,11v2.3h-21.3c.8,3,3.9,4.8,7.5,4.8s5.5-.9,8-2.6l3.4,5.4c-2.8,2.6-7.4,4.1-11.4,4.1-10.2,0-15.5-7.1-15.5-14s1.4-8.4,4.2-11.2ZM378.2,57c-.6-3.2-3.4-5.1-6.6-5.1s-6.2,2.2-6.6,5.1h13.2Z"/>
    <path class="st0" d="M406.9,53c-.7-.3-1.8-.4-3.2-.4-3.7,0-6,2.8-6,7.3v13.7h-7.8v-28.1h7.8v4.5c1.5-3.4,3.9-5.1,7.2-5.1s1.2,0,1.9.2v8.1Z"/>
    <path class="st0" d="M417.6,53.3c0,1,1.3,1.9,3.2,2.1,6.8.8,10.5,4.6,10.5,9.5s-1.1,4.9-3.2,6.7c-2.1,1.8-4.7,2.6-7.9,2.6s-4.8-.7-7-2.2c-2.1-1.4-3.6-3.4-4.5-5.7l6.2-2.8c.8,1.8,3.1,3.7,5.3,3.7s3.5-1.1,3.5-2.5-1.2-2.1-3.5-2.5c-6.2-1-10.5-4.5-10.5-8.7s1-4.5,3-6.2c2-1.6,4.6-2.4,8-2.4s8.4,2.2,10.5,6.5l-6,2.6c-1.4-1.7-3-2.6-4.7-2.6s-2.9.6-2.9,1.9Z"/>
    <path class="st0" d="M437.5,49c2.8-2.8,6.3-4.3,10.5-4.3s7.5,1.5,10.3,4.4c2.8,2.9,4.3,6.6,4.3,11v2.3h-21.3c.8,3,3.9,4.8,7.5,4.8s5.5-.9,8-2.6l3.4,5.4c-2.8,2.6-7.4,4.1-11.4,4.1-10.2,0-15.5-7.1-15.5-14s1.4-8.4,4.2-11.2ZM454.5,57c-.6-3.2-3.4-5.1-6.6-5.1s-6.2,2.2-6.6,5.1h13.2Z"/>
    <path class="st1" d="M488.6,53.4c2.9,1.7,5,5.3,5,8.7s-1.1,5.9-3.3,8.1c-2.2,2.2-4.8,3.3-8,3.3h-15v-38.2h14.7c2.9,0,5.4,1,7.5,3.1,2.1,2,3.2,4.5,3.2,7.3s-1.6,6-4.2,7.7ZM472.7,50.8h9.4c1.4,0,2.7-.5,3.7-1.5,1.1-1,1.7-2.2,1.7-3.6s-.5-2.6-1.7-3.6c-1.1-1-2.3-1.5-3.7-1.5h-9.4v10.2ZM472.7,56.1v12.1h9.4c1.6,0,3.1-.6,4.4-1.8,1.2-1.2,1.9-2.7,1.9-4.3s-.6-3-1.9-4.2c-1.2-1.2-2.7-1.8-4.4-1.8h-9.4Z"/>
    <path class="st1" d="M521.8,49.2v-3.8h5.3v28.1h-5.3v-3.9c-2.4,3-5.7,4.5-9.7,4.5s-7.5-1.4-10.3-4.3c-2.8-2.9-4.1-6.3-4.1-10.4s1.4-7.5,4.2-10.4c2.8-2.9,6.2-4.3,10.2-4.3s7.3,1.5,9.7,4.5ZM518.9,66.2c1.9-1.8,2.8-3.9,2.9-6.5v-.6c0-2.6-1-4.7-2.9-6.5-1.9-1.8-4-2.7-6.6-2.7s-4.8.9-6.7,2.8c-1.9,1.9-2.8,4-2.8,6.7s.9,4.8,2.8,6.7c1.9,1.9,4.1,2.8,6.7,2.8s4.7-.9,6.6-2.7Z"/>
    <path class="st1" d="M539,45.4v3.2c2.4-2.6,5.3-3.8,8.8-3.8s5.6,1.3,7.9,3.8,3.5,5.7,3.5,9.6v15.4h-5.5v-15.4c0-2.3-.7-4.2-2-5.7-1.3-1.5-3.1-2.3-5.3-2.3-4.3,0-7.3,3.5-7.3,8v15.4h-5.5v-28.1h5.5Z"/>
    <path class="st1" d="M567.9,69.9c-2.9-2.9-4.4-6.4-4.4-10.4s1.4-7.4,4.3-10.3c2.9-2.9,6.3-4.4,10.4-4.4s7.4,1.4,10.3,4.4c2.9,2.9,4.4,6.3,4.4,10.3v2.1h-24.1c.3,2,1.4,3.8,3.4,5.2s4,2.1,6.3,2.1c3.2,0,6.7-1.5,9-4.3l4,3.2c-3.6,4.2-7.9,6.3-13,6.3s-7.6-1.4-10.5-4.3ZM587.5,57.1c-.5-2.1-1.7-3.8-3.5-5.1-1.8-1.3-3.7-2-5.9-2-4.4,0-8.2,2.8-9.4,7.1h18.7Z"/>
    <path class="st1" d="M603.1,45.4v3.2c2.4-2.6,5.3-3.8,8.8-3.8s5.6,1.3,7.9,3.8,3.5,5.7,3.5,9.6v15.4h-5.5v-15.4c0-2.3-.7-4.2-2-5.7-1.3-1.5-3.1-2.3-5.3-2.3-4.3,0-7.3,3.5-7.3,8v15.4h-5.5v-28.1h5.5Z"/>
  </g>
</svg>