<?xml version="1.0" encoding="UTF-8"?>
<svg id="a" xmlns="http://www.w3.org/2000/svg" version="1.1" viewBox="0 0 907.2 219.8">
  <!-- Generator: Adobe Illustrator 29.2.1, SVG Export Plug-In . SVG Version: 2.1.0 Build 116)  -->
  <defs>
    <style>
      .st0 {
        fill: var(--primary);
      }
    </style>
  </defs>
  <path d="M109.7,0C95,0,80.7,2.8,67,8.7c-13.1,5.4-24.8,13.3-34.8,23.5-10.3,10.1-18.2,21.8-23.6,34.9C2.8,80.8,0,95.1,0,109.8s2.8,29.2,8.7,42.9c5.4,12.9,13.3,24.6,23.6,34.8,10.1,10.3,21.8,18.1,34.8,23.6,13.7,5.8,28,8.7,42.7,8.7s29-2.8,42.7-8.7c12.9-5.4,24.6-13.3,34.8-23.6,9.9-9.9,17.7-21.5,23.6-34.8,5.8-13.7,8.7-28,8.7-42.7s-2.8-29-8.7-42.7c-5.6-13.3-13.3-25-23.4-35-10.3-10.3-22-18.1-34.8-23.6C138.7,2.8,124.4,0,109.7,0M70,15.5c12.5-5.6,26-8.3,39.7-8.3s27.2,2.6,39.9,8.3c12.3,5.2,23.2,12.5,32.6,22,9.5,9.7,16.9,20.5,22,32.6,5.4,12.7,8.3,26,8.3,39.9s-2.6,27.2-8.3,39.9c-5,12.1-12.5,23-22,32.6-9.5,9.5-20.3,16.7-32.6,22-12.7,5.4-26,8.3-39.9,8.3s-27.2-2.6-39.9-8.3c-12.5-5.2-23.4-12.5-32.6-22-9.5-9.5-16.9-20.3-22-32.6-5.4-12.7-8.1-25.8-8.1-39.9s2.6-27.2,8.1-39.9c5.2-12.3,12.5-23.2,22-32.6,9.5-9.5,20.3-17,32.8-22M127.6,46.7c-5.8-2.4-11.9-3.8-18.3-3.8s-12.7,1.4-18.5,3.8c-5.6,2.4-10.7,5.8-15.1,10.1-4.6,4.6-8.1,9.7-10.1,15.1-2.4,5.6-3.8,11.7-3.8,18.5,0,10.7,7.3,25.2,21.8,43.7,2.8,3.6,5.6,7,8.5,10.3,4,4.6,8.1,9.3,12.5,13.7l2,2.2c.6.6,1.4,1,2.4,1s1.6-.4,2.4-1c5.4-5.4,10.3-10.7,14.5-15.7,2.6-3,5.6-6.4,8.7-10.5,14.5-18.7,21.8-33.2,21.8-43.7s-1.2-12.5-3.8-18.3c-2.4-5.4-5.8-10.5-10.3-15.1-4-4.4-9-7.9-14.7-10.3M82.9,88.2c0-7.3,2.6-13.5,7.7-18.5,5.2-5,11.5-7.7,18.5-7.7s13.3,2.6,18.5,7.7c5,5.2,7.7,11.5,7.7,18.5s-2.4,13.3-7.5,18.5c-5,5-11.3,7.7-18.5,7.7s-13.7-2.6-18.5-7.7c-5.3-5-7.7-11.2-7.9-18.5Z"/>
  <path class="st0" d="M21.9,72.9c-5,11.7-7.5,24.2-7.5,37.1s2.4,25.2,7.5,37.1c4.8,11.3,11.7,21.5,20.5,30.4,8.9,8.9,19.1,15.7,30.2,20.5,4.6,2,9.5,3.6,14.7,4.6l13.1,2.4c2.4.2,5.4.4,9.1.4h.4l13.1-.8c8.3-1.2,16.3-3.4,23.8-6.4,11.3-5.2,21.3-12.1,30.4-20.9,8.7-8.9,15.5-18.9,20.3-30.4,5-11.7,7.7-24.2,7.7-37.1s-2.4-25.2-7.7-37.1c-4.8-11.3-11.7-21.5-20.3-30.4-9.1-8.9-19.1-15.7-30.4-20.3-11.9-5-24.2-7.5-37.1-7.5s-25.2,2.4-37,7.5c-11.3,4.6-21.3,11.5-30.2,20.3-9.1,9.1-16,19.3-20.6,30.6M75.3,28c11.1-4.6,22.6-7,34.6-7s23.6,2.4,34.6,7c10.7,4.6,19.9,10.9,28.2,18.9,8.3,8.5,14.5,17.7,18.9,28.2,4.6,11.3,7,23,7,34.4s-2.4,23.2-7,34.6c-2.8,6.4-6.4,12.7-10.7,18.5-1.2-.8-3.8-2.4-7.5-4.6-12.5-6.4-26.6-10.9-42.5-13.1-5,5.8-10.5,11.9-16.5,17.7-1.4,1.4-3.2,2.2-5.2,2.2s-4-.8-5.4-2.2c-5.2-5-10.9-11.1-16.7-17.9-16.1,2.2-30.4,6.6-42.7,13.5-2.6,1.4-4.8,2.8-6.2,3.8-4.2-5.8-7.7-11.7-10.3-17.7-4.6-10.9-6.8-22.6-6.8-34.6s2.2-23.6,6.8-34.6c4.7-10.7,10.9-20.1,19.2-28.2h0c8.2-8,17.5-14.5,28.2-18.9Z"/>
  <g>
    <path class="st0" d="M644.6,107.1c5.6,3.4,9.7,10.3,9.7,17.1s-2.2,11.5-6.4,15.7-9.5,6.4-15.5,6.4h-29.2v-74.4h28.6c5.6,0,10.5,2,14.7,6s6.2,8.7,6.2,14.3c0,6.1-3.2,11.9-8.1,14.9ZM613.6,102.1h18.3c2.8,0,5.2-1,7.3-2.8,2.2-2,3.2-4.2,3.2-7s-1-5-3.2-7c-2-2-4.4-3-7.3-3h-18.3v19.8ZM613.6,112.6v23.6h18.3c3.2,0,6-1.2,8.5-3.4,2.4-2.4,3.6-5.2,3.6-8.5s-1.2-5.8-3.8-8.3c-2.4-2.4-5.2-3.6-8.5-3.6l-18.1.2h0Z"/>
    <path class="st0" d="M709.3,99.1v-7.5h10.3v54.8h-10.3v-7.7c-4.8,5.8-11.1,8.9-18.9,8.9s-14.5-2.8-19.9-8.5c-5.4-5.6-8.1-12.3-8.1-20.3s2.6-14.7,8.3-20.1c5.4-5.6,12.1-8.5,19.9-8.5,7.6,0,14,3,18.7,8.9h0ZM703.8,132.3c3.6-3.4,5.4-7.7,5.6-12.7v-1.2c0-5-2-9.3-5.6-12.7-3.6-3.4-7.9-5.2-12.9-5.2s-9.5,1.8-13.1,5.4-5.4,7.9-5.4,12.9,1.8,9.5,5.4,13.1c3.6,3.6,8.1,5.4,13.1,5.4,4.9,0,9.3-1.6,12.9-5Z"/>
    <path class="st0" d="M742.9,91.6v6.2c4.6-5,10.3-7.5,17.1-7.5s11.1,2.4,15.5,7.5c4.4,4.8,6.8,11.1,6.8,18.7v30h-11.1v-30.2c0-4.4-1.4-8.1-4-11.1s-6-4.6-10.3-4.6c-8.5,0-14.3,6.8-14.3,15.7v30h-10.6v-54.7h10.9Z"/>
    <path class="st0" d="M799.1,139.4c-5.6-5.6-8.7-12.5-8.7-20.3s2.8-14.5,8.5-20.1c5.6-5.6,12.3-8.5,20.1-8.5s14.5,2.8,20.1,8.5c5.6,5.6,8.5,12.3,8.5,20.1v4.2h-46.9c.6,4,2.6,7.5,6.4,10.1,3.8,2.8,7.9,4.2,12.3,4.2s12.9-2.8,17.7-8.5l7.9,6.2c-7,8.3-15.3,12.3-25.4,12.3-8,0-14.9-2.8-20.5-8.2h0ZM837.4,114.4c-1-4.2-3.2-7.5-6.8-9.9-3.4-2.6-7.3-3.8-11.5-3.8-8.7,0-16.1,5.4-18.3,13.7-.1,0,36.6,0,36.6,0Z"/>
    <path class="st0" d="M867.8,91.6v6.2c4.6-5,10.3-7.5,17.1-7.5s11.1,2.4,15.5,7.5c4.4,4.8,6.8,11.1,6.8,18.7v30h-11.1v-30.2c0-4.4-1.4-8.1-4-11.1s-6-4.6-10.3-4.6c-8.5,0-14.3,6.8-14.3,15.7v30h-10.7v-54.7h11Z"/>
  </g>
  <g>
    <path d="M247.5,86v-15.9h56l-5,10.1c-1.2,2.2-4.2,8.7-9.7,19.1l-10.9,21.7-4.2,8.7h28.2v15.7h-56.2c16.7-29.6,27.8-49.3,33-59.4,0,0-31.2,0-31.2,0Z"/>
    <path d="M346.1,88.6l14.1,29.4,9.1-28.2h16.5l-21.3,55.6h-6.2l-12.1-26.2-12.1,26.2h-6.4l-21.3-55.6h16.6l9.1,28.2,14-29.4h0Z"/>
    <path d="M386.2,117.6c0-7.9,2.8-14.7,8.5-20.3,5.8-5.6,12.5-8.7,20.5-8.7s14.9,2.8,20.5,8.7c5.6,5.6,8.5,12.5,8.5,20.3s-2.8,14.9-8.5,20.5c-5.6,5.6-12.5,8.5-20.5,8.5s-14.7-2.8-20.5-8.5c-5.7-5.6-8.5-12.4-8.5-20.5ZM401.7,117.6c0,3.8,1.4,7,4,9.7,2.6,2.6,5.8,4,9.5,4s6.8-1.4,9.5-4c2.6-2.6,3.8-5.8,3.8-9.7s-1.2-7-3.8-9.5c-2.6-2.6-5.8-4-9.5-4s-6.8,1.4-9.5,4c-2.6,2.7-4,5.9-4,9.5Z"/>
    <path d="M453.9,145.4v-75.3h15.7v75.3h-15.7Z"/>
    <path d="M502.8,101.7c-3.8,0-5.8,1.2-5.8,3.8s.6,1.8,1.8,2.6c1.2.8,2.8,1.4,4.6,1.6,6.6.8,11.7,2.8,15.3,6.2,3.6,3.4,5.4,7.5,5.4,12.5s-2,9.7-6.2,13.1c-4,3.4-9.3,5.2-15.5,5.2s-9.5-1.4-13.7-4.2c-4-2.8-7-6.4-8.9-11.3l12.1-5.6c.8,1.8,2.2,3.4,4.2,5s4,2.2,6,2.2,3.8-.4,5-1.4,1.8-2,1.8-3.6c0-2.4-2.2-4.2-6.8-5-6.2-1-11.1-3-14.9-6.2s-5.8-6.8-5.8-11.1,2-8.9,5.8-12.1,9.1-4.8,15.7-4.8,8.5,1,12.3,3.2c3.6,2.2,6.4,5.4,8.7,9.7l-11.7,5c-2.9-3.2-6.1-4.8-9.4-4.8h0Z"/>
    <path d="M530.8,119c0-9.1,2.8-16.5,8.3-22,5.6-5.6,12.5-8.5,20.7-8.5s14.7,2.8,20.3,8.7c5.6,5.8,8.5,13.1,8.5,21.8l-.2,4.6h-41.9c.8,3,2.4,5.2,5.2,6.8,2.8,1.6,5.8,2.4,9.5,2.4,5.6,0,10.9-1.6,15.7-5l6.6,10.7c-2.8,2.4-6.2,4.4-10.3,5.8-4,1.4-8.3,2.2-12.1,2.2-9.5,0-16.9-2.8-22.4-8.3s-7.9-11.7-7.9-19.2h0ZM546.7,113h26c-.6-3-2.2-5.4-4.4-7.5-2.4-1.8-5.2-2.6-8.5-2.6s-6,1-8.7,2.8c-2.3,2-4,4.5-4.4,7.3h0Z"/>
  </g>
</svg>